<?xml version="1.0" standalone="no"?>
<!DOCTYPE svg PUBLIC "-//W3C//DTD SVG 20010904//EN"
 "http://www.w3.org/TR/2001/REC-SVG-20010904/DTD/svg10.dtd">
<svg version="1.0" xmlns="http://www.w3.org/2000/svg"
 width="64.000000pt" height="64.000000pt" viewBox="0 0 64.000000 64.000000"
 preserveAspectRatio="xMidYMid meet">

<g transform="translate(0.000000,64.000000) scale(0.100000,-0.100000)"
fill="#000000" stroke="none">
<path d="M0 495 c0 -62 1 -65 24 -65 13 0 29 7 36 15 38 45 121 -17 175 -132
65 -136 142 -197 252 -197 71 -1 106 19 136 75 15 28 17 48 12 119 -4 54 -12
90 -21 100 -23 23 -177 21 -201 -2 -28 -29 2 -49 80 -55 l65 -6 4 -51 c3 -28
0 -62 -6 -76 -13 -29 -55 -40 -101 -28 -46 12 -56 34 -49 100 4 36 3 58 -3 58
-15 0 -25 -104 -13 -134 5 -14 18 -30 30 -36 24 -13 86 -16 119 -5 41 13 54
77 35 171 -3 19 -12 22 -69 26 -64 4 -85 11 -71 26 12 12 154 8 167 -5 7 -7
12 -48 13 -102 1 -89 0 -91 -30 -121 -39 -40 -93 -48 -162 -26 -66 22 -114 71
-162 165 -44 89 -80 135 -121 156 -37 19 -85 19 -93 0 -11 -30 -26 -14 -26 30
0 44 15 60 26 30 4 -10 19 -15 43 -15 83 0 194 -85 243 -185 12 -25 26 -45 30
-45 13 0 10 9 -24 72 -52 98 -161 178 -244 178 -12 0 -27 7 -34 15 -7 8 -23
15 -36 15 -23 0 -24 -3 -24 -65z"/>
</g>
</svg>
