<svg id="Ebene_1" xmlns="http://www.w3.org/2000/svg" viewBox="0 0 283.46 141.73"><style>.st0,.st1{fill:#a7a8a9}.st1{fill-rule:evenodd;clip-rule:evenodd}</style><g id="XMLID_29_"><path id="XMLID_2_" class="st0" d="M66.3 74.52c.29-.01 11.9 0 11.9 0l11.38 16.37c.33.47.93.25.93-.4v-12.1c0-1.49-1.1-2.29-2.34-2.29-.37-.02-.92 0-.92 0s-.43.12-.44-.28c-.01-.27-.01-.4 0-.79.01-.4.14-.5.46-.49h9.24c.42 0 .69.04.69.42v.73s0 .41-.55.42c-1.57.01-2.59-.12-2.66 2.09l-.03 28.24h-4.8c-.3 0-.43-.18-.62-.45-.14-.18-8.59-12.31-13.95-20.05-.23-.34-.69-.64-.79.3l.05 16.43c0 .89.05 2.09 1.34 2.09h1.64c.15 0 .45 0 .59.52v.7c.06.45 0 .45-.34.45H66.89c-.46.03-.64.05-.64-.4v-.84c0-.19.05-.42.6-.42h1.93s1.62.03 1.59-2.25l-.1-22.83c-.07-1.95-1.74-3.58-3.04-3.58 0 0-.7-.01-.91 0-.22.01-.29.01-.32-.42-.02-.4 0-.35 0-.73s.01-.43.3-.44"/><path id="XMLID_3_" class="st0" d="M10.06 79.38c-.97-2.93-2.17-3.29-3.47-3.29h-.9s-.33.01-.34-.42c-.01-.43-.01-.39-.02-.66-.03-.5.4-.49.4-.49h16.3c.7 0 .72 1.64-.07 1.72h-1.85c-1.35 0-1.45 1.39-1.1 2.28l5.53 17c.3.53.6.46.86 0l5.82-16.93c.4-1.46-.24-2.5-1.49-2.5-.37-.02-.92 0-.92 0s-.45-.15-.45-.42v-.66s-.04-.52.31-.49c.36.03 8.97 0 9.4 0 .42 0 .67-.04.68.42.01.46.03.33 0 .73-.02.3-.18.37-.55.42-.37.05-2.28 0-3.57 2.29L25 106.55h-5.9c-.31 0-.24-.19-.44-.45l-8.6-26.72z"/><path id="XMLID_4_" class="st0" d="M204.23 85.13l11.11 18.79s.44.83 1.01.83l1.11.06c.8.31.8 1.6.1 1.7.2-.1-15.38 0-15.38 0s-.28.07-.31-.42c-.03-.5 0-.73 0-.73 0-.36.32-.41.32-.41h.92c.42.08 1.76-.57 1.02-1.89l-7.14-11.38s-1.09-.66-1.14 1.09v11.12s-.09 1.03 1.04 1.06h1.45c.6-.01.47 1.59-.03 1.57-.03.02-14.59 0-14.59 0s-.32.02-.31-.42c.01-.45-.01-.28 0-.73.01-.45.31-.41.31-.41h.93c1.3 0 1.72-.41 1.82-2V78.09c-.1-1.59-.22-2-1.52-2h-.93s-.33.04-.29-.42c.02-.39 0-.47 0-.73 0-.43.3-.42.3-.42-1.15-.01 14.58-.01 14.58 0 .57-.01.54 1.58-.05 1.58l-1.37-.01c-1.49 0-1.29 1.1-1.29 1.1v9.79c.06.53.62.17.99-.16l8.04-7.84c.89-1.49.06-2.89-1.19-2.89-.38-.02-1.09 0-1.09 0s-.28-.15-.28-.42v-.66s-.05-.52.3-.49c.36.03 12.84 0 13.27 0 .42 0 .67.06.69.42v.73s-.06.37-.55.42c-.38.04-2.54-.45-5.09 1.5l-6.46 6.06c-.01 0-.9.64-.3 1.48"/><path id="XMLID_5_" class="st0" d="M132.79 106.42h-24.62c-.36.05-.4 0-.4-.45l-.05-.66c-.01-.4.05-.56.59-.56 0 0 1.37.04 1.94 0 .57-.04 1-.54.99-2.25 0 0-.09-22.63-.1-22.83-.1-1.59.11-3.59-2.31-3.59h-1.06s-.26-.02-.3-.42c0 0 .02-.43 0-.73s.3-.42.3-.42h25.34c.6-.01.96.29.96 1.57v6.03c0 .33-1.72.46-1.76-.1-.05-.8-1.85-4.9-5.03-4.9h-5.02c-.63 0-1.73.03-1.73.79v9.17s6.22.03 6.68 0c.46-.04 1.09.32 1.26-2.58.2-.5 1.55-.53 1.72.03v7.94c-.1.79-1.46.99-1.69.07-.24-.94-.03-2.51-1.49-2.58h-6.35v12.7s-.03 1.19.69 1.19h5.92c.66 0 5.85-1.99 7.04-6.35.13-.4 1.79-.33 1.69 0l-2.52 8.47c.03.01-.19.48-.69.46"/><path id="XMLID_6_" class="st0" d="M248.63 74.52h11.9l11.38 16.37c.33.47.66.07.93-.4v-12.1c.39-1.45-1.1-2.29-2.34-2.29-.38-.02-.93 0-.93 0s-.43-.15-.43-.42v-.66s-.05-.52.3-.49c.36.03 8.98 0 9.39 0 .42 0 .72.13.69.42-.05.47-.07.76-.07.76s0 .44-.49.39c-.38-.04-2.96 0-2.66 2.09l.1 28.24h-5.12c-.31 0-.24-.18-.44-.45-.13-.18-8.58-12.31-13.94-20.05-.23-.34-.78-.39-.79.3l-.08 15.97c0 .89.19 2.55 1.47 2.55h1.64c.15 0 .45 0 .59.52v.7c-.13.45 0 .45-.71.45h-9.81c-.47.03-.6 0-.6-.45l-.05-.8c0-.19.05-.42.59-.42h1.93s1.34-.52 1.49-2.25c0 0 .01-22.64 0-22.83-.09-1.59-1.74-3.58-3.03-3.58h-.91s-.33-.05-.34-.42v-.73c.03-.36.34-.42.34-.42"/><path id="XMLID_7_" class="st0" d="M243.94 106.42H219.5c-.47.03-.6 0-.6-.45l-.05-.8c0-.2.05-.42.6-.42h1.93s.85-.52.99-2.25l-.09-22.83c-.1-1.59.1-3.59-2.44-3.59h-.93c-.26.01-.24-.15-.31-.42 0 0 .03-.33 0-.73-.02-.39.31-.42.31-.42h25.34c.59-.01.96.09.96 1.57v6.07c0 .29-1.59.46-1.75-.13-.21-.78-.66-3.84-5.03-4.9h-5.03s-1.68-.03-1.71.79v9.17h6.68s1.09.37 1.25-2.55c.04-.46 1.62-.56 1.73 0 .03 0 0 8.04 0 8.04-.04.63-1.6.49-1.69-.03-.18-.94-.13-2.58-1.23-2.58h-6.61v12.7s0 1.32.69 1.19h5.92s5.85-1.99 7.05-6.35c.03-.37 1.58-.46 1.72-.13l-2.55 8.6-.71.45z"/><path id="XMLID_8_" class="st0" d="M153.23 106.42c.4 0 .59 0 .59-.45v-.72c0-.2 0-.5-.54-.5 0 0-1.47.02-1.93 0-.46-.02-.85-.52-1-2.25 0 0-.05-24.13-.04-24.32.1-1.58.13-2.12 1.86-2.1h1.65s.32.08.3-.42c-.01-.5-.02-.36 0-.73.02-.36-.43-.42-.43-.42h-15.85s-.29.03-.31.42c-.02.4-.01.33 0 .73.01.4.28.43.28.43l1.29.04c2.42.03 2.01 1.95 2.11 3.54.01.19.1 22.83.1 22.83-.03 1.72-.41 2.22-1 2.25-.59.03-1.93 0-1.93 0-.54 0-.59.23-.59.42l.05.8c0 .45.12.48.59.45h14.8z"/><path id="XMLID_9_" class="st0" d="M41.49 77.2c3.77-3.11 13.23-5.36 20.14 1.39 5.66 5.46 6.75 19.25-1.78 25.5-6.45 4.07-13.4 4-19.25-.4-6.85-6.05-7.95-20.24.89-26.49m4.86 3.66c-1.09 2.98-2.18 16.68.2 20.54 1.69 3.77 6.3 3.77 8.09 0 2.58-5.55 1.83-16.62.85-20.14-1.3-5.56-7.6-5.11-9.14-.4"/><path id="XMLID_12_" class="st0" d="M178.31 104.75c-4.84 3.94-11.79 3.47-17.31-1.07-6.85-6.05-8.66-20.44.17-26.69 4.03-2.78 8.63-2.94 9.34-2.94l10.29.07c.02.15.48 10.03.48 9.88.08 1.43-1.99 1.33-1.99-.12-1.72-11.38-11.57-7.15-12.54-3.02-1.23 3.54-2.68 14.13 1.29 19.29 2.25 3.57 9.65 5.42 11.51-1.86.06-.73 1.59-1.02 1.85-.13.66 3.18-3.09 6.59-3.09 6.59"/></g><g id="XMLID_30_"><path id="XMLID_53_" class="st1" d="M178.12 36.37l-.04-.01-.13.04-.13.04-.05.03-.06.03-.21.1-.41.13-.46.11-.51.1-.62.1-.65.07-.66.07-.67.05-.74.04-.73.03-.7.03-.7.02-.68.01-.64.01-.59.01h-.57l-.53.01h-.43l-.34.01-.26.01-.42.05-.38.12-.34.14-.25.19-.22.16-.21.21-.2.18-.19.15-.16.11-2.71 2.59.09.02-3.58 3.36c-3.34 2.26-2.65 1.96-3.18 2.26-.06.04-.26.2-.5.41.22-.43.42-.89.62-1.36l.22-.16-.01.03.37-.26 1.16-.78 2.9-2.48 1.1-1.11-.03-.07h.03l.36-.35.29-.3.25-.23.16-.17.09-.07.25-.18.28-.25.28-.31.31-.36.3-.42.29-.43.29-.45.26-.42.25-.41.22-.4.21-.35.17-.31.12-.25.07-.15.08-.23.09-.29.1-.32.09-.38.12-.42.13-.41.11-.39.12-.36.13-.28.2-.4.23-.49.21-.6.23-.68.24-.77.24-.83.24-.93.25-.96.27-1.03.27-1.09v-2.08l.06-.9.05-.83.08-.76.1-.66.1-.62.13-.53.12-.47.13-.41.14-.35.11-.31.14-.27.12-.24.11-.17.09-.17.09-.11.09-.22.08-.18-.07-.15-.05-.05h-.01l-.21-.04-.29.01-1.36.43-1.28.44-1.17.45-1.07.46-.98.43-.89.43-.8.42-.73.43-.62.37-.55.37-.51.31-.41.28-.32.23-.22.19-.18.18-.12.08-.06.02-.17.1-.22.11-.27.13c-.08-.99-.15-1.56-.15-1.59l-.05-.97h-30v1.4c0 .03-.06.51-.12 1.32l-.24-.13-.32-.15-.22-.11-.17-.1-.06-.02-.11-.08-.18-.18-.22-.19-.32-.23-.41-.28-.51-.31-.55-.37-.62-.38-.73-.43-.81-.41-.9-.44-.98-.43-1.07-.46-1.17-.45-1.28-.44-1.35-.43-.29-.01-.21.04h-.01l-.05.05-.07.15.08.18.09.22.08.11.09.17.11.17.12.24.14.27.12.31.13.35.14.42.12.46.13.53.1.62.1.66.08.76.05.83.06.9v2.08l.27 1.09.27 1.03.25.96.24.93.23.83.24.77.23.68.22.6.23.49.2.4.13.28.12.36.12.39.13.41.12.42.09.38.1.32.09.29.08.23.07.15.12.25.17.31.2.35.23.4.25.41.27.42.29.45.29.43.3.42.31.36.28.31.28.25.25.18.09.07.16.16.25.23.29.3.36.35h.03l-.03.07 1.1 1.11 2.9 2.48 1.16.78.37.26-.01-.03.29.21c.18.46.37.9.57 1.33-.27-.23-.47-.39-.53-.43-.53-.3.17 0-3.18-2.26l-3.58-3.36.09-.02-2.7-2.59-.16-.11-.19-.15-.19-.18-.21-.21-.24-.19-.25-.18-.34-.14-.37-.12-.42-.05-.26-.01-.34-.01h-.43l-.52-.01h-.57l-.59-.01-.64-.01-.68-.01-.7-.02-.7-.03-.73-.03-.74-.03-.67-.05-.63-.07-.65-.07-.62-.1-.51-.1-.47-.11-.41-.13-.21-.1-.06-.03-.05-.03-.12-.04-.14-.04-.04.01-.06.08.03.17.05.2.1.26.08.15.14.26.18.29.21.38.26.43.29.49.3.49.33.51.36.57.38.62.4.57.4.58.37.6.36.61.37.55.37.53.35.5.32.5.3.41.25.38.2.31.16.25.14.18.07.1.09.09.14.14.21.23.28.3.33.31.34.35.42.37.45.37.51.38.56.39.62.36.61.33.64.26.71.22.71.18c.74.25 3.99 1.05 6.44 1.29 1.73.17 4.94-.15 7.22-.43.95 1.12 1.92 2.04 2.85 2.79-.05.03-.1.05-.12.07-.22.2-1.17.74-1.79 1.09l-.48.27c-.24.15-2.74 1.41-2.86 1.47-.15.08-1.27.51-1.31.53l-.06-.15c.01 0 .99-.43 1.28-.63.1-.06.26-.16.45-.26.38-.22.91-.52 1.23-.79.21-.17.3-.26.38-.34.11-.11.21-.2.56-.48.15-.12.27-.21.39-.3.35-.27.56-.42.92-.88.17-.21.29-.32.38-.38l-.59-.07-1.09-.24-1.85-.03-1.4.53c-.1.06-2.76 1.66-2.99 1.76-.21.1-2.19 1.2-2.21 1.21l-.09-.14 1.06-.82c.26-.22.99-.69 1.16-.8.12-.08.26-.18.39-.28.14-.1.28-.21.41-.29.31-.19 1.33-1.03 1.41-1.24-.01-.01-.02-.02-.02-.03h-.17c-.5.05-.99.09-1.46.12-.66.04-1.43-.03-2.22-.16-.4-.01-.8-.01-1.19-.02l-3.42 1.71c-.26.16-.54.34-.85.53l-.09-.14.73-.52c.06-.05 1.22-1.09 2.08-1.61-2.06-.04-3.7-.07-3.91-.11-.11-.02-.2-.04-.26-.05l-5.26-.36v-.17c.04 0 3.9-.06 8.36-.11l-.5-.27c-.61-.2-1-.34-1-.34l-.86-.21-.84-.23-.75-.23-.7-.27-.65-.28-.56-.3-.49-.31-.39-.33-6.35 2.15-.19.09-.14.1-.08.11-.01.11.07.12.13.12.22.11.31.1.24.08.3.14.38.17.38.24.44.23.46.28.52.27.51.28.47.3.49.29.43.27.46.25.35.22.32.18.25.14.2.11.28.15.36.14.45.19.54.21.56.27.62.27.68.28.73.28.76.29.78.28.79.24.85.21.83.18.83.15.87.13.77.09.83.04.84-.02.72-.08.4-.04.53-.05.59-.06.58-.06.58-.08.76-.1.74-.1.65-.12.74-.13.83-.15.66-.17.63-.17.83-.2.59-.2.55-.23.49-.23.69-.25.39-.25.19-.14c1.21.58 2.01.79 2.04.79l.04.01.04-.01c.03-.01 1.02-.26 2.47-.98l.1.09.32.22.39.25.69.25.5.23.54.23.59.2.82.2.63.17.66.17.83.15.75.13.65.12.74.1.76.1.58.08.58.07.59.06.53.05.4.04.72.08.84.02.83-.03.77-.1.87-.12.83-.15.83-.18.86-.21.79-.24.78-.28.76-.29.73-.28.68-.28.62-.27.56-.27.54-.21.45-.19.36-.14.29-.15.2-.11.25-.14.33-.18.35-.23.46-.25.43-.27.49-.29.47-.3.51-.28.53-.27.46-.28.44-.23.38-.24.37-.17.3-.14.24-.08.32-.1.22-.11.13-.12.07-.12-.01-.11-.08-.11-.14-.1-.19-.09-6.35-2.15-.39.33-.49.31-.57.3-.65.28-.7.27-.75.23-.84.23-.86.21s-.39.15-1 .35l-.49.27c4.46.05 8.32.11 8.36.11v.16l-5.27.36c-.06.01-.15.02-.25.04-.21.04-1.85.07-3.91.11.87.52 2.03 1.55 2.09 1.61l.72.51-.09.14c-.32-.2-.6-.37-.87-.54l-3.4-1.7c-.4.01-.8.01-1.2.02-.79.13-1.56.2-2.22.16-.47-.03-.96-.07-1.45-.12h-.17c0 .01-.01.02-.03.03.08.21 1.1 1.04 1.41 1.24.13.08.27.19.41.29.14.1.27.2.4.28.18.11.9.58 1.16.8.06.05 1.06.82 1.06.82l-.09.14c-.02-.01-1.99-1.11-2.21-1.21-.23-.09-2.89-1.69-3-1.76l-1.38-.52-1.87.03-1.07.24-.59.07c.09.06.21.17.38.38.36.45.57.61.92.88.11.09.24.18.39.3.35.28.45.37.56.48.08.08.17.16.38.34.33.27.85.57 1.24.79.18.11.34.2.45.26.29.2 1.27.63 1.28.63l-.03.08-.03.08c-.04-.02-1.15-.45-1.31-.53-.02-.01-2.61-1.33-2.86-1.47l-.48-.27c-.63-.35-1.58-.88-1.79-1.09-.06-.05-.2-.11-.39-.18.95-.73 1.94-1.62 2.91-2.7 2.29.28 5.64.62 7.43.45 2.45-.23 5.7-1.03 6.44-1.29l.71-.18.72-.22.64-.26.61-.33.62-.36.56-.39.51-.38.45-.37.42-.37.34-.35.33-.31.28-.3.21-.23.15-.14.08-.09.08-.11.14-.18.16-.25.2-.31.25-.38.3-.4.33-.5.35-.5.36-.53.37-.55.36-.61.37-.6.4-.58.4-.57.38-.62.36-.57.33-.51.3-.49.29-.48.26-.43.21-.38.18-.29.14-.26.08-.15.1-.26.05-.2.03-.17-.1-.06zm-67.1 16.24l-.13.11.05-.07.08-.04zm2.04 2.07l.07.04-.07-.04zm60.77-2.07l.08.03.05.07-.13-.1zm-2.04 2.07l-.08.05.08-.05zm-38.46-6.62l-.51-1.01-.48-.98-.5-1.05-.46-1.04-.4-1.12-.28-1.09-.23-1.14-.22-1.13-.17-1.19-.16-1.17-.15-1.23-.12-1.15-.08-1.24-.06-1.26-.03-1.24-.03-1.27v-2.56l.02-1.25.03-1.33.01-1.24.03-1.3.01-1.31v-.5h26.19l.25 5.55.04 3.88-.06 2.57-.07 1.28-.1 1.25-.33 2.46-.21 1.22-.29 1.21-.31 1.2-.7 2.33-.39 1.13-.48 1.09-1.84 3.14-.75.98-.87 1.01-.76.92-1.06.91-.92.88-1.05.83-1.23.82-1.42.76-.83.5-.81-.48-1.34-.73-1.03-.77-1.11-.74-.85-.81-.99-.85-.78-.88-.68-.94-.38-.46v.05l-.48-.58-.54-.78c.02 0 .04.01.06.01l-.1-.16zm30.73-13.43l-.03.03-.1.07-.13.08-.18.12-.18.14-.19.13-.17.11-.14.12-.09.05-2.92 1.76-.13.06-.21.11-.25.14-.3.16-.27.19-.3.17-.34.17-.29.13-.24.12-.18.06-.11.07-.17.1-.07.05c.1-.52.18-1.05.26-1.58l.05-.01.26-.05.39-.07.31-.08.26-.08.23-.09.23-.12.35-.14.27-.1.19-.05.16-.07.12-.02.06-.03.03-.02.13-.02.15-.03.21-.08.32-.15.36-.17.35-.19.34-.19.28-.16.22-.11.18-.09.16-.1.24-.12.2-.1.19-.12.17-.12.11-.07.03-.03.11-.02.08.05.02.09-.03.1zm-5.92-1.95l.18-.3.11-.23.07-.17.03-.14.03-.21.03-.3.03-.37.05-.42.03-.48.05-.51.03-.53.04-.56.04-.59.03-.57.03-.56.03-.57.03-.52.01-.54.02-.44.03-.43.03-.36.01-.28.01-.21.01-.12v-.06l.04-.37.05-.08.07-.03.09.03.04.09.02 1.08v.09l.01.2.01.27.02.32.02.37v.44l.01.46.01.46v2.85l.02.34V30l.01.2.01.11v.06l.25-.38.24-.4.27-.42.27-.42.25-.42.24-.4.23-.41.21-.37.2-.32.19-.27.13-.24.11-.19.07-.12.01-.02.01-.03.01-.11.05-.19.03-.23.04-.25.04-.23.04-.22.05-.13.01-.09.02-.16.03-.24.04-.3.03-.3.03-.39.04-.39.04-.41.02-.27.02-.46v-.12l.04-.17.02-.25.02-.27.02-.28.04-.27.02-.25.02-.2v-.07l.03-.08.05-.08.07-.03.09.03.03.09v.07l-.01.08-.05.44v.04l-.01.15-.02.21-.03.27-.02.34-.05.35-.03.37-.02.15-.05.93v2l4.39-6.88.07-.12.05-.06.11.01.07.07-.02.1-2.37 4.52-.02.07-.06.12-.08.22-.06.12-.09.19-.14.24-.19.29-.2.37-.25.42-.27.44-.28.52-.3.51-.11.16.26-.13.33-.13.34-.15.35-.11.32-.14.3-.1.24-.11.2-.05.12-.05.02-.01.06-.01.86-.39h.08l.08.07v.07l-.04.08-.03.02-.03.01-.13.06-.17.1-.23.12-.33.17-.25.13-.06.07-3.18 1.95-.01.03-.37.58-.32.55-.34.56-.29.53-.31.52-.28.45-.26.43-.24.4-.15.26.17-.03.21-.05.25-.08.27-.07.26-.08.22-.11.2-.08.17-.08.12-.06.31-.13.37-.15.31-.15.17-.07.23-.12.27-.12.26-.12.25-.1.21-.09 1.34-.52h.1l.07.07.02.07-.06.08-.02.02-.04.02-.11.05-.19.11-.2.12-.25.15-.28.16-.29.17-.27.14-.24.14-.23.14-.15.07-.08.06-.09.06-.16.09-.23.12-.25.13-.31.17-.34.18-.33.19-.34.16-.3.15-.29.15-.26.16-.2.08-.16.09-1.19.96-.97 1.54-.29.86c.15-1.12.27-2.25.36-3.35l.16-.25.26-.3zm-30.45 6.03l-.17-.1-.11-.07-.18-.06-.24-.12-.28-.13-.34-.18-.3-.17-.27-.19-.3-.16-.25-.14-.21-.11-.13-.06-2.92-1.77-.09-.05-.14-.12-.17-.11-.19-.13-.18-.14-.18-.12-.13-.08-.1-.07-.04-.03-.05-.08.02-.09.07-.05.11.02.03.03.11.07.17.12.19.12.2.1.25.12.16.1.18.09.22.11.29.16.34.19.35.19.36.17.33.15.21.08.15.03.13.02.03.02.07.03.12.02.15.07.19.05.27.1.35.14.23.12.23.08.26.08.31.08.39.07.26.05.24.05-.2-.41-.36-1.07-.97-1.54-1.19-.96-.16-.09-.19-.08-.26-.16-.29-.15-.3-.15-.34-.16-.33-.19-.34-.18-.31-.17-.26-.13-.23-.12-.16-.09-.09-.06-.08-.06-.15-.08-.23-.14-.25-.13-.26-.14-.29-.17-.28-.16-.25-.15-.2-.12-.2-.11-.11-.05-.04-.02-.02-.02-.05-.08.01-.07.07-.07h.1l1.34.52.21.09.24.1.27.12.27.12.22.12.17.07.31.15.37.15.31.13.11.06.17.08.21.08.21.1.26.08.27.07.25.09.21.05.17.03-.15-.26-.24-.4-.26-.43-.28-.45-.31-.52-.29-.53-.34-.56-.31-.55-.37-.58-.02-.03-3.18-1.95-.06-.07-.24-.14-.32-.17-.23-.12-.17-.1-.13-.06-.03-.01-.03-.02-.04-.08.01-.07.08-.07h.08l.86.39.06.01.02.01.12.06.2.04.25.11.3.1.32.14.35.11.34.15.34.13.26.13-.11-.16-.29-.51-.29-.52-.27-.44-.25-.42-.2-.37-.19-.3-.13-.24-.1-.19-.06-.12-.08-.22-.06-.12-.02-.07-2.37-4.52-.01-.1.07-.07.11-.01.05.06.08.12 4.39 6.88v-2l-.06-.93-.02-.15-.03-.37-.04-.35-.02-.34-.03-.27-.02-.21-.01-.15v-.04l-.05-.44-.01-.08v-.07l.03-.09.1-.03.07.03.05.08.03.08v.07l.02.2.02.25.04.27.03.28.02.27.02.25.04.17v.12l.01.46.03.27.03.41.04.39.03.4.03.3.04.3.03.24.02.16.01.09.05.13.03.22.04.23.04.25.03.23.04.19.02.11.01.03.01.02.07.12.12.19.13.24.19.27.2.32.21.37.23.41.24.4.25.42.27.42.26.42.25.4.25.38v-.06l.01-.11.01-.2v-.27l.02-.34v-2.85l.01-.46.01-.46.01-.44.03-.37.01-.32.01-.27.01-.2v-.09l.02-1.08.04-.09.09-.03.08.03.05.08.04.37v.06l.01.11.01.21.01.28.03.36.03.43.02.45.01.53.03.53.03.57.03.56.03.57.04.59.04.56.03.53.05.51.03.48.05.42.03.37.03.3.04.21.03.14.07.17.11.23.18.3.18.32.23.36.24.39c.14 1.71.34 3.46.64 5.19l-.11-.08-.21-.15zm3.7 10.51l-.8-.22-.33-.12-.09.02-.12.04-.15.1-.25.1-.27.12-.34.13-.31.1-.3.07-.3.12-.26.09-.2.08-.13.06-3.06.95-.09.03-.17.02-.18.05-.18.04-.21.04-.19.05-.13.05-.11.03h-.04l-.08-.02-.04-.07.02-.09.09-.06h.04l.11-.03.19-.04.2-.06.2-.07.24-.1.17-.05.18-.08.21-.08.29-.11.35-.12.35-.13.35-.16.31-.14.19-.1.12-.09.11-.08h.03l.06-.03.1-.08.14-.07.16-.1.25-.13.33-.17.23-.09.21-.12.22-.13.27-.18.09-.07-.28-.08-.61-.18-.48-.15-.31-.07-2.8-1.06c.01.02.03.05.04.07h-.06l-.22.01-.16.02-.1.02-.15.06-.23.05-.25.07-.31.07-.28.05-.27.02-.28.06-.24.05-.19.04-.12.04-2.8.45-.08.02h-.14l-.16.02-.19.01-.19.01-.17.02-.13.02-.1.01h-.04l-.07-.02-.03-.07.03-.08.08-.04h.03l.11-.02.17-.01.19-.03.18-.04.22-.06.15-.02.17-.04.19-.05.27-.05.32-.06.33-.07.32-.09.29-.08.18-.07.12-.06.1-.06.02.01.06-.02.09-.05.14-.04.15-.07.24-.08.3-.1.21-.05.19-.08.21-.09.25-.12.07-.05-2.55-.96-.19-.07-.01.01-.2.06-.21.09-.27.09-.24.06-.23.02-.24.08-.21.07-.16.05-.1.04-2.42.54-.07.02h-.12l-.14.02-.14.02-.08.07-.08.01-.19.05-.15.02h-.09l-.05-.04-.03-.06-.02-.03-.03-.08v-.06l.07-.09.96-.22.3-.07-.02.02.09-.03.23-.07.28-.07.28-.09.28-.11.25-.1.16-.08.1-.07.09-.07h.02l.05-.02.08-.07.12-.05.14-.09.2-.1.26-.12.18-.06-.98-.29-.89-.41h.1l-.16-.08-.2-.1-.13-.03-.07-.02-.11.01-.18.05-.21.06-.2.05-.16.04-.18.04-.22.05-.25.04-.19.05-.17.06-.14.03-.14.06-.2.04-.2.06-.16.05-.11.01-.07.01-.14.04-.16.05-.16.04-.11.01h-.22l-.07-.03-.01-.08.05-.05h.02l.1-.05.14-.08.17-.08.15-.07.17-.05.11-.06.92-.36 1.04-.37.34-.15-.33-.16-.48-.29-.44-.29-.53-.28-.48-.29-.45-.27-.44-.29-.41-.28-.41-.27-.37-.23-.3-.22-.24-.17-.18-.12-.13-.1-.07-.04-.11-.11-.14-.11-.1-.1-.06-.08-.03-.02-.03-.07.06-.06h.06l.03.01.75.42.8.39.75.43.68.37.64.34.63.31.5.25.47.24.39.18.32.15.26.12.09.01-.05-.1-.08-.17-.09-.18-.08-.19-.08-.17-.07-.12-.04-.1-.29-.86-.24-.72-.12-.37-.1-.34.03-.07.06-.05.07.06.01.05.21.37.22.47.04.11.09.16.09.17.08.17.06.12.04.08.07.17.12.22.12.25.14.26.16.25.12.23.12.19.09.14.22.23.21.17.22.14.19.1.13.07.07.04.19.11-.02.02.11.05.48.24.41.32.11.03.08-.06v-.07l-.02-.21-.02-.17-.03-.15-.06-.14-.05-.22-.04-.17-.02-.12v-.03l-.06.03-.03-.17-.07-.3-.1-.29-.07-.23-.07-.18-.29-.95-.11-.28-.01-.02-.03-.07-.02-.02v-.07l-.12-.32-.03-.14.01-.07.07-.05.05.01.1.07.02.04.25.45.04.05.03.09.03.14.09.15.32.67.29.8.26.54.02.09.06.12.06.16.07.19.1.16.09.18.07.21.05.18.06.16.02.11.03.07.05.1.03.06.16.04.5.14.69.22.8.27.83.25.41.1c.02.01.04.02.07.03l-.07-.19-.08-.16-.1-.16-.12-.25-.09-.2-.05-.14-.05-.11-.02-.09-.03-.06-.02-.01V44l-.03-.11-.07-.15-.12-.23-.14-.25-.15-.24-.16-.22-.13-.19-.09-.14-.07-.13-.08-.1-.1-.16-.09-.13-.1-.13-.1-.1-.05-.07-.03-.01-.02-.08.04-.08.07-.04.06.02.03.02.05.07.06.09.09.11.11.12.11.12.09.1.09.08.04.06 1.43 1.9.04.1.1.13.11.17.12.21.16.17.14.19.14.23.11.19.1.17.05.13.05.07.08.11.12.12c1.02.43 2.07.82 3.21 1.09.6.14 1.21.29 1.81.43.27.57.56 1.12.86 1.63l-.07-.05zm43.3-9.75l-.04.02-.06.08-.11.1-.13.11-.11.11-.07.04-.14.1-.18.12-.24.17-.3.22-.38.23-.41.27-.41.28-.44.29-.45.27-.48.29-.53.28-.44.29-.47.26-.29.17.34.16 1.04.37.92.36.11.06.16.05.15.06.17.08.14.08.1.05h.03l.05.05-.01.09-.07.03h-.22l-.11-.01-.16-.04-.16-.05-.14-.04-.07-.01-.11-.01-.16-.05-.2-.06-.2-.04-.14-.06-.14-.03-.18-.06-.19-.05-.24-.04-.22-.05-.17-.04-.16-.04-.19-.05-.21-.06-.19-.05-.11-.01-.07.02-.13.03-.2.1-.16.08h.1l-.89.41-.99.29.18.05.26.12.21.1.13.09.12.05.08.07.05.02h.02l.09.07.1.07.16.08.25.1.28.11.28.09.28.07.24.07.08.03-.02-.02.29.07.97.22.07.09v.06l-.03.08-.02.03-.03.06-.05.04h-.1l-.15-.02-.19-.05-.08-.01-.08-.07-.14-.02-.14-.02h-.13l-.07-.02-2.41-.54-.1-.04-.16-.05-.21-.07-.24-.08-.23-.02-.24-.06-.27-.09-.21-.09-.2-.06-.01-.01-.19.07-2.57.94.07.05.25.12.22.09.19.08.21.05.3.1.24.08.15.07.14.04.09.05.06.02.03-.01.1.06.11.06.18.07.29.08.32.09.33.07.32.06.28.05.19.05.16.04.15.02.22.06.19.04.19.03.17.01.11.02h.03l.08.04.03.08-.03.07-.07.02h-.04l-.1-.01-.12-.02-.17-.02-.19-.01-.19-.01-.16-.02h-.14l-.09-.02-2.8-.45-.11-.04-.19-.04-.24-.05-.28-.06-.27-.02-.28-.05-.31-.07-.25-.07-.22-.05-.15-.06-.1-.02-.16-.02-.22-.01h-.06c.01-.02.03-.05.04-.07l-2.8 1.06-.31.07-.48.15-.61.18-.28.08.09.07.27.18.23.13.21.12.23.09.33.17.25.13.16.1.14.07.1.08.07.03h.03l.11.08.12.09.19.1.31.14.35.16.35.13.35.12.29.11.21.08.18.08.17.05.24.1.2.07.2.06.19.04.12.03h.03l.09.06.02.09-.04.07-.08.02h-.04l-.11-.03-.13-.05-.19-.05-.27-.03-.21-.05-.18-.05-.17-.02-.09-.03-3.06-.95-.13-.06-.21-.08-.25-.09-.3-.12-.31-.07-.3-.1-.33-.13-.27-.12-.25-.1-.15-.1-.12-.04-.09-.02-.31.13-.8.22-.17.04c.33-.53.65-1.09.95-1.68.6-.14 1.2-.26 1.8-.41 1.14-.27 2.19-.66 3.21-1.09l.11-.12.09-.11.05-.07.05-.13.11-.17.11-.19.14-.23.14-.19.16-.17.12-.21.11-.17.1-.13.05-.1 1.43-1.9.04-.06.09-.08.08-.1.11-.12.11-.12.09-.11.06-.09.05-.07.03-.02.06-.02.07.04.04.08-.02.08-.03.01-.05.07-.1.1-.1.13-.09.13-.1.16-.08.1-.07.13-.09.14-.12.23-.16.22-.15.24-.14.25-.12.23-.06.15-.04.11-.02.11-.02.01-.03.06-.02.09-.05.11-.05.14-.08.2-.12.25-.1.16-.07.17-.07.19c.02-.01.05-.02.07-.03l.41-.1.83-.25.79-.27.69-.22.5-.14.16-.04.03-.06.05-.1.03-.07.02-.11.05-.16.06-.18.07-.21.08-.18.1-.16.06-.19.06-.16.05-.12.02-.09.26-.55.29-.8.32-.67.09-.15.03-.14.03-.09.04-.05.26-.45.02-.04.1-.07.05-.01.06.05.01.07-.03.14-.12.32v.07l-.02.02-.04.07-.01.01-.11.28-.29.95-.07.18-.07.23-.1.29-.07.3-.03.17-.06-.03-.01.03-.02.12-.03.17-.05.22-.06.14-.03.15-.02.17-.02.21v.07l.08.06.11-.03.41-.32.48-.24.1-.05-.02-.02.2-.12.07-.04.13-.07.18-.1.22-.14.21-.17.22-.23.09-.14.13-.19.12-.23.15-.25.14-.26.12-.25.12-.22.07-.17.04-.08.06-.12.08-.17.09-.17.09-.16.04-.11.22-.47.21-.37.01-.05.07-.06.06.05.03.07-.1.34-.12.37-.24.72-.29.86-.04.1-.06.12-.08.17-.08.19-.09.18-.08.17-.05.1.08-.01.26-.12.32-.15.4-.18.47-.23.5-.25.63-.31.63-.34.68-.37.75-.43.81-.39.75-.42.03-.01h.06l.06.06.03.09z"/><path id="XMLID_65_" class="st1" d="M136.53 35.82c0 3.24 2.63 5.86 5.86 5.86 3.24 0 5.86-2.62 5.86-5.86s-2.63-5.87-5.86-5.87c-3.23.01-5.86 2.63-5.86 5.87"/><path id="XMLID_66_" class="st1" d="M142.08 28.75v-7.46H130.6v13.92h4.86c.24-3.57 3.09-6.38 6.62-6.46"/><path id="XMLID_67_" class="st1" d="M142.46 42.92c-.09 0-.17-.02-.25-.02v11.9c4.17-1.53 8.35-6.04 10.71-12.14.44-1.13.79-2.26 1.07-3.38l.01-.13c.11-.47.22-1.07.31-1.73.11-.8.17-1.52.18-2.04h-5.05c.02.2.06.39.06.59 0 3.84-3.15 6.95-7.04 6.95"/><path id="XMLID_68_" class="st0" d="M123.58 9.23c0-1.05-.08-1.08-.51-1.14l-.15-.02c-.06-.07-.05-.24.02-.29.17.01.37.02.57.02.2.01.42.01.62.01h1.76c.59 0 1.12-.01 1.24-.03.04.17.09.95.15 1.37-.04.08-.22.1-.29.04-.15-.57-.29-.82-.58-.9-.21-.07-.49-.09-.74-.09h-.62c-.39 0-.39.02-.39.58v1.67c0 .26.01.27.22.27h.44c.8 0 .96-.01 1.02-.43l.07-.33c.07-.07.25-.07.29.01-.01.27-.03.62-.03.99s.02.72.03 1.03c-.05.07-.22.07-.29.01l-.07-.39c-.06-.41-.22-.43-1.02-.43h-.44c-.21 0-.22.02-.22.27v1.25c0 .5.02.86.16 1.03.11.14.27.22 1.04.22 1.17.02 1.37-.27 1.69-1.06.08-.07.24-.04.3.06-.05.41-.26 1.16-.39 1.43-.2-.01-.5-.02-.88-.02-.39-.01-.85-.01-1.39-.01h-1.05c-.41 0-.97.01-1.38.03-.07-.04-.08-.22-.02-.29l.34-.04c.43-.05.51-.08.51-1.12v-3.7z"/><path id="XMLID_69_" class="st0" d="M128.85 14.06c-.17-.21-.29-.89-.28-1.5.05-.1.21-.11.28-.04.17.5.66 1.56 1.57 1.56.7 0 1.1-.45 1.1-1.05 0-.56-.25-1.02-.94-1.43l-.4-.24c-.69-.41-1.3-1.01-1.3-1.9 0-.98.68-1.8 2.03-1.8.48 0 .83.12 1.26.21.1.22.19.87.19 1.33-.05.09-.21.1-.3.03-.14-.52-.46-1.17-1.24-1.17-.74 0-1.04.51-1.04 1.03 0 .41.27.86.87 1.2l.57.32c.6.34 1.26.95 1.26 1.94 0 1.12-.8 1.92-2.14 1.92-.82.01-1.3-.29-1.49-.41"/><path id="XMLID_70_" class="st0" d="M135.37 8.64c0-.41-.01-.43-.25-.43h-.52c-.85 0-1.1.11-1.44.91-.06.06-.26.03-.29-.07.16-.53.29-1.14.36-1.49.02-.03.05-.04.1-.04.04 0 .07.01.09.04.05.25.17.26.8.26h3.76c.45 0 .59-.03.7-.26.04-.02.07-.04.11-.04.05 0 .1.02.12.05-.09.4-.16 1.25-.14 1.57-.04.08-.2.1-.28.03-.12-.77-.29-.96-1.28-.96h-.52c-.24 0-.25.02-.25.43v4.26c0 1.05.08 1.07.52 1.12l.33.04c.06.07.06.25-.02.29-.53-.02-.95-.03-1.36-.03-.4 0-.84.01-1.43.03-.07-.04-.08-.24-.02-.29l.39-.05c.43-.04.52-.07.52-1.11V8.64z"/><path id="XMLID_71_" class="st0" d="M139.03 13.81c0-.37.26-.65.61-.65.34 0 .6.28.6.65 0 .36-.26.65-.6.65-.36 0-.61-.29-.61-.65"/><path id="XMLID_72_" class="st0" d="M145.01 12.78c0 1.02.04 1.05.64 1.13l.27.04c.07.06.07.28-.02.31a32.828 32.828 0 0 0-2.83 0c-.09-.03-.09-.25-.02-.31l.27-.04c.6-.09.64-.11.64-1.13V9.4c0-.71-.03-.96-.48-1.01l-.48-.05c-.06-.06-.06-.21-.01-.26.83-.17 1.52-.43 1.93-.67.06.01.1.04.11.1-.02.22-.03.87-.03 1.29v3.98z"/><path id="XMLID_73_" class="st0" d="M150 7.55c.55 0 1.19 0 1.31-.03.04.02.07.06.07.13-.24.4-.56.97-.98 1.84l-2.59 5.4c-.17.02-.42-.06-.43-.25l2.56-5.19c.2-.4.32-.8.32-.89 0-.05-.06-.1-.23-.1H148c-.49 0-.83.05-1.04.49-.07.05-.22.03-.25-.07.15-.5.25-.96.34-1.37.2.02.52.03 1.06.03H150z"/><path id="XMLID_74_" class="st0" d="M155.5 7.55c.55 0 1.19 0 1.31-.03.04.02.07.06.07.13-.24.4-.56.97-.98 1.84l-2.59 5.4c-.17.02-.42-.06-.43-.25l2.55-5.19c.2-.4.33-.8.33-.89 0-.05-.06-.1-.23-.1h-2.02c-.49 0-.83.05-1.04.49-.07.05-.22.03-.25-.07.15-.5.25-.96.34-1.37.2.02.52.03 1.06.03h1.88z"/><path id="XMLID_75_" class="st0" d="M161.54 10.89c0 1.68-.61 3.49-2.14 3.49-1.54 0-2.14-1.81-2.14-3.49 0-1.61.61-3.49 2.14-3.49 1.53 0 2.14 1.88 2.14 3.49m-3.11 0c0 1 .1 3.06.97 3.06s.97-2.06.97-3.06-.1-3.06-.97-3.06-.97 2.06-.97 3.06"/></g><g id="XMLID_1_"><path id="XMLID_13_" class="st0" d="M78.57 121.94c1.25-1.4 2.85-2.1 4.79-2.1.78 0 1.55.15 2.33.46.77.31 1.26.47 1.44.47.2 0 .37-.08.49-.22.12-.15.22-.38.3-.69h.52v4.68h-.48c-.45-1.02-.92-1.82-1.39-2.41-.88-1.08-1.88-1.62-3-1.62-1.21 0-2.1.56-2.66 1.68-.56 1.12-.84 2.69-.84 4.73 0 1.67.26 3.15.78 4.46s1.52 1.96 3 1.96c.8 0 1.34-.18 1.62-.54.16-.2.24-.51.24-.92v-2.11c0-.6-.17-1-.52-1.19-.23-.12-.69-.18-1.38-.2v-.51h6.45v.51c-.65.03-1.08.16-1.29.42-.21.25-.32.72-.32 1.41v2.55c-.42.27-1.09.55-2.02.82-.93.27-1.97.41-3.12.41-2.09 0-3.76-.7-5.01-2.1-1.16-1.31-1.75-2.95-1.75-4.92.01-1.99.61-3.67 1.82-5.03z"/><path id="XMLID_15_" class="st0" d="M96.99 133.62v-.51c.54-.02.92-.1 1.15-.23.35-.21.52-.6.52-1.17v-9.69c0-.58-.18-.98-.54-1.18-.21-.12-.59-.2-1.13-.23v-.51h10.85v4.03h-.46c-.24-1.29-.65-2.17-1.22-2.64-.57-.48-1.62-.71-3.13-.71-.58 0-.94.06-1.1.19-.16.13-.23.38-.23.76v4.63c1.07.01 1.8-.19 2.18-.62.38-.43.67-1.21.87-2.34h.48v6.76h-.48c-.14-1.14-.41-1.94-.82-2.41-.41-.46-1.16-.7-2.23-.7v4.85c0 .42.1.71.31.86.21.15.63.23 1.26.23 1.2 0 2.18-.25 2.94-.74.76-.49 1.43-1.42 2.02-2.78h.52l-.76 4.16h-11z"/><path id="XMLID_17_" class="st0" d="M115.33 133.11c.64-.03 1.07-.16 1.31-.38.23-.22.35-.71.35-1.45v-8.85c0-.77-.14-1.27-.41-1.51-.18-.16-.6-.27-1.24-.32v-.51h6.06c1.26 0 2.27.14 3.05.42 1.51.57 2.26 1.58 2.26 3.06 0 1.09-.39 1.94-1.18 2.57-.6.47-1.24.77-1.92.9l4 5.69c.1.16.21.26.33.31.12.05.26.08.43.09v.48h-3.93l-4.39-6.25h-.01v3.92c0 .71.11 1.18.33 1.42.22.24.66.38 1.32.4v.51h-6.36v-.5zm7.35-6.94c.53-.35.8-1.16.8-2.42 0-.77-.1-1.39-.3-1.83-.35-.76-.99-1.14-1.91-1.14-.5 0-.83.06-.99.2-.16.13-.23.35-.23.66v5.09c1.22-.03 2.1-.21 2.63-.56z"/><path id="XMLID_20_" class="st0" d="M135.1 133.11c.72 0 1.18-.14 1.4-.4.21-.26.32-.66.32-1.19v-9.5c0-.55-.12-.9-.37-1.07-.25-.17-.68-.28-1.3-.34v-.51h4.74l3.7 9.26h.16l3.68-9.26h4.75v.51c-.64.05-1.07.18-1.3.38-.23.2-.35.68-.35 1.45v8.85c0 .74.12 1.22.35 1.45.23.23.67.35 1.3.38v.51h-6.25v-.51c.56-.02.98-.12 1.26-.3s.42-.57.42-1.18v-9.78h-.14l-4.62 11.76h-.51l-4.66-11.53h-.08v9.05c0 .67.12 1.16.35 1.46.23.31.75.48 1.54.51v.51h-4.4v-.51z"/><path id="XMLID_22_" class="st0" d="M157.72 133.11c.45-.03.82-.25 1.1-.65.18-.25.43-.81.76-1.68l4.18-10.95h.52l4.2 10.51c.47 1.18.82 1.94 1.06 2.28.23.34.56.51.99.49v.51h-6.1v-.51c.62-.03 1.01-.08 1.21-.16.19-.08.29-.3.29-.64 0-.16-.05-.39-.14-.71a7.63 7.63 0 0 0-.25-.68l-.48-1.21h-4.23c-.28.79-.46 1.31-.54 1.55-.16.52-.25.89-.25 1.12 0 .29.18.5.54.63.21.07.54.11.97.12v.51h-3.84v-.53zm7.07-4.21l-1.81-4.63h-.16l-1.7 4.63h3.67z"/><path id="XMLID_25_" class="st0" d="M176.06 133.11c.7-.02 1.15-.16 1.35-.42.2-.26.3-.65.3-1.17v-9.48c-.58-.68-.93-1.08-1.07-1.21-.14-.12-.32-.2-.55-.23v-.51h3.99l6.47 8.36h.09v-5.88c0-.68-.11-1.16-.35-1.45-.23-.29-.69-.46-1.39-.52v-.51h4.04v.51c-.59.11-.98.24-1.18.42-.2.17-.3.56-.3 1.17v11.79h-.52l-8.28-10.7h-.13v7.84c0 .62.08 1.05.24 1.31.25.41.76.64 1.55.67v.51h-4.27v-.5z"/><path id="XMLID_27_" class="st0" d="M201.51 120.1v.51c-.65.04-1.07.09-1.25.16-.18.07-.27.2-.27.41 0 .09.01.19.05.3.03.11.11.3.23.58l2.49 4.81h.02l2.02-3.52c.13-.22.26-.48.41-.79.22-.48.32-.83.32-1.06 0-.35-.13-.59-.39-.7-.18-.08-.57-.14-1.18-.19v-.51h4.14v.51c-.3.06-.54.13-.71.21-.23.12-.42.31-.57.57l-3.59 6.22v3.68c0 .76.12 1.25.37 1.47.24.22.7.34 1.37.36v.51h-6.53v-.51c.7-.02 1.17-.15 1.39-.38.23-.23.35-.72.35-1.45v-2.94l-3.44-6.65c-.23-.43-.51-.74-.84-.92-.22-.11-.44-.17-.67-.18v-.51h6.28z"/></g></svg>