<?xml version="1.0" standalone="no"?>
<!DOCTYPE svg PUBLIC "-//W3C//DTD SVG 20010904//EN"
 "http://www.w3.org/TR/2001/REC-SVG-20010904/DTD/svg10.dtd">
<svg version="1.0" xmlns="http://www.w3.org/2000/svg"
 width="1024.000000pt" height="819.000000pt" viewBox="0 0 1024.000000 819.000000"
 preserveAspectRatio="xMidYMid meet">

<g transform="translate(0.000000,819.000000) scale(0.100000,-0.100000)"
fill="#000000" stroke="none">
<path d="M5108 6679 c-14 -15 -14 -18 -2 -23 8 -3 14 -12 14 -21 0 -12 4 -11
20 5 20 20 20 21 3 39 -17 17 -19 17 -35 0z"/>
<path d="M5107 6564 c-4 -4 -7 -20 -7 -36 0 -26 3 -29 28 -26 23 3 27 8 27 33
0 23 -5 31 -20 33 -12 2 -24 0 -28 -4z"/>
<path d="M5010 6505 c0 -3 5 -14 12 -24 9 -15 9 -23 -1 -35 -18 -21 -38 -20
-50 1 -7 13 -5 23 6 35 15 16 15 18 0 18 -24 0 -104 -37 -142 -65 -34 -27 -55
-69 -55 -111 0 -45 84 -254 102 -254 11 0 11 -2 -12 65 -11 32 -20 71 -20 87
0 15 9 37 20 48 21 21 70 28 70 10 0 -5 14 -10 30 -10 22 0 30 -5 30 -18 0
-10 6 -38 14 -63 8 -24 17 -56 20 -71 6 -28 6 -28 95 -28 l89 0 16 68 c10 37
18 74 19 82 5 28 17 38 37 33 12 -3 22 1 26 11 9 23 41 20 69 -9 30 -29 31
-48 5 -126 -12 -34 -19 -64 -16 -66 2 -3 16 18 30 46 72 140 86 225 47 280
-20 28 -129 91 -157 91 -7 0 -11 -13 -10 -32 1 -26 -3 -33 -18 -33 -31 0 -43
30 -22 54 19 21 19 21 -11 21 -30 0 -30 0 -22 -42 7 -40 -3 -126 -17 -149 -13
-21 -24 6 -24 58 0 54 0 55 -18 33 -22 -27 -52 -18 -52 16 0 28 24 42 44 25 8
-7 17 -8 20 -3 9 15 -5 22 -41 22 -33 0 -33 -1 -34 -47 -1 -27 -3 -55 -4 -63
-1 -8 -3 -23 -4 -32 0 -10 -5 -18 -10 -18 -15 0 -34 100 -28 151 5 44 4 49
-13 49 -11 0 -20 -2 -20 -5z m8 -94 c20 -12 11 -56 -12 -56 -27 0 -43 29 -27
49 15 18 21 19 39 7z m266 -13 c14 -22 -12 -52 -37 -42 -17 6 -23 44 -10 58
11 11 35 3 47 -16z m-129 -48 c8 -26 -1 -40 -26 -40 -22 0 -34 22 -25 45 8 22
44 18 51 -5z m110 -38 c7 -20 -19 -47 -39 -39 -19 7 -21 38 -5 54 14 14 35 7
44 -15z m-220 -12 c0 -18 -6 -26 -23 -28 -13 -2 -25 3 -28 12 -10 26 4 48 28
44 17 -2 23 -10 23 -28z m110 -40 c9 -30 -12 -52 -36 -39 -19 10 -26 39 -12
52 14 14 42 6 48 -13z m-70 -50 c0 -18 -6 -26 -23 -28 -13 -2 -25 3 -28 12
-10 26 4 48 28 44 17 -2 23 -10 23 -28z m140 0 c0 -16 -6 -26 -19 -28 -25 -5
-39 12 -31 38 10 31 50 24 50 -10z m-75 -35 c18 -21 5 -45 -25 -45 -20 0 -25
5 -25 23 0 39 26 50 50 22z"/>
<path d="M4890 6227 c0 -26 25 -115 39 -136 6 -9 18 -11 39 -6 29 6 31 9 25
38 -10 52 -31 97 -46 97 -8 0 -20 7 -27 15 -18 22 -30 18 -30 -8z"/>
<path d="M5340 6240 c0 -5 -11 -12 -25 -16 -18 -4 -28 -15 -32 -35 -3 -16 -10
-32 -14 -35 -5 -3 -9 -18 -9 -33 0 -24 5 -29 31 -33 21 -3 33 0 38 11 18 32
40 122 34 136 -6 17 -23 20 -23 5z"/>
<path d="M6070 6193 c11 -16 26 -63 34 -105 16 -83 33 -117 73 -143 23 -16 26
-15 45 2 11 10 26 30 34 45 13 25 13 29 -7 40 -11 7 -36 43 -54 79 -35 69 -81
109 -124 109 l-22 0 21 -27z"/>
<path d="M4160 6189 c-38 -16 -60 -39 -91 -101 -16 -32 -40 -65 -54 -74 -14
-9 -25 -19 -25 -23 0 -3 16 -25 34 -49 l34 -43 36 32 c35 30 66 103 66 153 0
12 11 42 25 69 27 49 23 55 -25 36z"/>
<path d="M5901 6159 c-12 -19 -21 -44 -21 -56 0 -29 -19 -77 -27 -69 -3 3 -6
23 -5 43 1 34 0 36 -15 20 -11 -11 -18 -43 -23 -100 -5 -60 -13 -94 -28 -119
-29 -46 -28 -49 11 -41 37 7 91 44 109 76 10 18 30 265 22 276 -2 2 -12 -12
-23 -30z"/>
<path d="M5970 6171 c-15 -30 -14 -31 35 -31 25 0 45 3 45 6 0 20 -24 44 -45
44 -14 0 -29 -8 -35 -19z"/>
<path d="M4218 6145 c-14 -31 -12 -33 35 -27 55 6 48 52 -9 52 -8 0 -20 -11
-26 -25z"/>
<path d="M4338 6047 c4 -136 14 -166 72 -204 30 -21 90 -32 90 -17 0 3 -10 20
-22 36 -16 23 -23 53 -28 112 -4 45 -11 89 -15 99 -13 30 -25 19 -25 -24 0
-54 -16 -41 -30 24 -6 28 -18 62 -28 74 -16 22 -17 18 -14 -100z"/>
<path d="M5500 6126 c0 -7 -7 -19 -15 -26 -14 -12 -14 -15 1 -31 15 -17 13
-19 -25 -39 -53 -27 -68 -57 -53 -108 7 -21 23 -48 36 -61 21 -19 30 -22 70
-16 46 7 46 8 29 27 -14 15 -15 23 -6 38 10 15 9 19 -3 24 -9 3 -14 16 -13 28
2 13 -2 33 -9 45 -10 18 -9 25 4 38 22 22 48 1 39 -32 -3 -13 -1 -23 4 -23 15
0 22 -32 10 -46 -9 -11 -7 -15 5 -20 19 -7 21 -35 4 -52 -10 -10 -5 -11 22 -6
81 15 108 52 95 130 -7 42 -27 57 -84 64 -41 4 -46 8 -49 33 -2 15 -9 27 -18
27 -8 0 -14 5 -14 10 0 6 -7 10 -15 10 -8 0 -15 -6 -15 -14z m161 -123 c20
-53 -25 -144 -51 -103 -11 17 -13 113 -3 123 16 16 44 5 54 -20z m-161 -72
c31 -80 -6 -101 -50 -29 -24 40 -25 61 -4 83 21 20 27 14 54 -54z"/>
<path d="M4730 6120 c0 -5 -9 -10 -21 -10 -16 0 -20 -5 -17 -27 3 -26 0 -28
-37 -34 -22 -3 -50 -11 -62 -17 -27 -15 -39 -67 -26 -119 8 -34 13 -38 58 -49
55 -14 64 -12 45 11 -10 12 -10 18 1 31 8 9 12 28 11 41 -3 18 2 26 17 30 18
4 18 7 6 20 -8 8 -15 18 -15 22 0 16 28 31 44 25 18 -7 22 -39 5 -50 -6 -3 -8
-16 -5 -29 3 -13 0 -27 -8 -34 -8 -7 -12 -21 -9 -31 3 -11 0 -27 -7 -35 -16
-19 -14 -21 37 -29 47 -7 68 8 98 70 22 47 11 80 -39 112 -53 34 -53 34 -38
39 14 5 17 33 3 33 -5 0 -11 9 -14 20 -5 20 -27 28 -27 10z m-80 -171 c0 -61
-2 -70 -17 -67 -39 7 -59 108 -25 127 36 22 42 14 42 -60z m170 15 c17 -43
-39 -128 -71 -108 -14 8 -11 26 12 83 24 56 44 65 59 25z"/>
<path d="M4983 6043 c-19 -4 -21 -7 -10 -24 9 -14 9 -24 1 -37 -11 -16 -9 -18
18 -14 24 4 29 8 24 25 -3 11 -1 29 5 39 10 19 7 20 -38 11z"/>
<path d="M5060 6035 c7 -8 10 -24 7 -35 -4 -16 0 -20 18 -20 18 0 22 4 18 20
-3 11 0 27 7 35 11 13 7 15 -25 15 -32 0 -36 -2 -25 -15z"/>
<path d="M5145 6030 c14 -15 15 -23 6 -34 -9 -11 -7 -15 14 -18 21 -4 25 -1
25 18 0 12 3 29 6 38 5 13 -1 16 -31 16 -37 0 -38 0 -20 -20z"/>
<path d="M5225 6037 c13 -10 16 -21 11 -40 -6 -25 -4 -27 25 -27 27 0 30 2 19
15 -10 13 -10 19 5 35 14 16 15 20 4 21 -8 1 -30 3 -48 5 -31 4 -33 3 -16 -9z"/>
<path d="M4912 6033 c-18 -4 -21 -9 -16 -31 9 -37 13 -42 30 -42 16 0 19 16 4
25 -14 9 -12 21 6 39 8 9 12 15 7 15 -4 -1 -18 -4 -31 -6z"/>
<path d="M5329 6022 c6 -11 6 -24 0 -34 -6 -10 -6 -19 0 -23 12 -7 31 26 31
54 0 14 -6 21 -20 21 -17 0 -19 -3 -11 -18z"/>
<path d="M4939 5923 c-9 -2 -24 -23 -33 -47 -9 -24 -26 -52 -36 -61 -28 -25
-25 -37 8 -29 44 11 83 44 102 88 25 53 15 64 -41 49z"/>
<path d="M5264 5903 c14 -56 77 -111 129 -113 17 0 16 3 -5 29 -14 15 -31 44
-38 62 -17 41 -27 49 -64 49 -26 0 -28 -2 -22 -27z"/>
<path d="M6240 5878 c0 -71 -42 -211 -82 -275 -18 -31 -21 -32 -41 -18 -26 18
-37 19 -37 2 0 -7 -12 -36 -26 -65 -22 -44 -38 -59 -112 -106 -96 -60 -135
-97 -151 -139 -14 -36 -14 -105 0 -145 8 -24 7 -37 -6 -62 -9 -18 -17 -53 -18
-77 0 -41 3 -48 46 -85 41 -34 47 -45 47 -78 0 -30 -6 -43 -26 -59 -37 -29
-68 -26 -98 10 -20 24 -26 41 -26 81 0 41 -5 54 -29 79 -30 29 -61 39 -61 18
0 -7 11 -22 25 -35 22 -20 25 -32 25 -87 0 -40 -5 -70 -15 -83 -25 -34 -19
-92 15 -131 17 -18 30 -42 30 -52 0 -45 -15 -84 -42 -111 -22 -23 -32 -46 -43
-102 -13 -65 -12 -74 1 -85 24 -18 37 -89 24 -129 -12 -35 -62 -84 -86 -84
-18 0 -18 -14 1 -30 13 -10 19 -10 33 4 26 22 27 21 46 -27 29 -76 107 -130
114 -79 2 12 6 22 10 22 4 0 22 -29 41 -65 37 -72 92 -134 141 -158 32 -16 32
-16 26 6 -23 76 -30 127 -19 138 8 8 21 -4 48 -46 35 -55 37 -57 56 -40 24 22
27 95 4 95 -31 0 -48 83 -23 108 7 7 25 12 40 12 26 0 28 3 28 39 0 44 10 51
69 51 45 0 61 -14 61 -56 0 -30 3 -33 32 -36 30 -3 33 -7 39 -43 8 -46 3 -62
-19 -70 -21 -6 -27 -91 -9 -109 54 -53 210 -93 272 -70 12 5 9 11 -17 30 -85
61 -152 144 -173 212 -9 31 15 29 45 -3 59 -63 177 -121 262 -130 51 -5 56 10
16 42 -62 51 -183 172 -177 177 3 4 30 2 59 -4 91 -17 198 -12 260 13 30 12
53 27 50 32 -3 5 -36 20 -74 33 -71 24 -149 69 -150 87 -1 6 13 11 29 13 54 5
137 33 179 60 46 29 96 72 96 83 0 3 -28 12 -62 19 -121 25 -284 100 -261 120
4 4 37 13 73 20 98 18 176 67 211 132 11 20 9 21 -20 15 -66 -14 -157 -18
-180 -10 -23 9 -23 10 33 68 73 74 115 136 132 193 8 25 12 47 11 49 -2 2 -37
-12 -78 -31 -41 -18 -90 -37 -109 -40 -19 -4 -43 -10 -52 -12 -26 -8 -22 13
11 55 73 92 131 218 131 285 l0 30 -27 -26 c-38 -35 -124 -89 -134 -83 -4 3 9
45 28 93 28 70 37 105 41 177 l5 90 -57 -53 c-31 -29 -61 -50 -66 -47 -6 4 -8
32 -4 73 12 131 -27 368 -55 336 -4 -5 -13 -29 -20 -54 -7 -25 -22 -63 -33
-85 -23 -45 -85 -125 -97 -125 -5 0 -11 28 -14 63 -13 136 -73 307 -107 307
-6 0 -10 -15 -10 -32z m46 -143 c8 -33 -5 -173 -17 -181 -5 -3 -9 -12 -9 -19
0 -11 25 -15 123 -17 l122 -3 2 -180 c2 -218 0 -225 -80 -225 -28 0 -65 -7
-81 -15 -21 -11 -32 -12 -41 -5 -8 6 -46 14 -85 19 -44 4 -75 13 -81 22 -5 8
-8 97 -6 199 l2 185 54 3 c52 3 53 4 36 22 -17 19 -16 24 10 120 15 55 31 100
36 100 5 0 11 -11 15 -25z m245 -82 c4 -60 -18 -113 -46 -113 -21 0 -19 32 7
85 23 47 37 57 39 28z m-441 -226 c0 -7 -7 -25 -15 -41 -8 -15 -15 -41 -15
-56 0 -15 -9 -38 -19 -51 -12 -16 -17 -34 -14 -51 3 -14 0 -35 -6 -47 -16 -29
-87 -64 -107 -53 -14 8 -11 14 20 37 38 29 46 49 21 59 -24 9 -18 29 18 61
l32 29 -30 6 c-31 6 -36 28 -10 43 7 4 35 24 62 46 47 37 63 42 63 18z m550
-82 c0 -14 -50 -103 -65 -115 -24 -20 -40 1 -25 31 23 44 61 89 76 89 7 0 14
-2 14 -5z m-554 -170 c10 -26 -4 -61 -31 -75 -39 -21 -47 -1 -18 48 26 44 40
52 49 27z m624 -72 c0 -19 -67 -106 -111 -143 -108 -91 -208 -134 -223 -95 -8
21 20 46 90 84 33 17 97 60 144 96 82 62 100 73 100 58z m-263 -20 c8 -20 -57
-83 -87 -83 -21 0 -29 33 -10 45 6 4 8 11 5 16 -3 5 0 6 8 4 7 -3 22 3 32 15
22 24 43 26 52 3z m-129 -231 c1 -105 -2 -190 -7 -201 -8 -13 -27 -20 -77 -24
-36 -4 -73 -12 -80 -18 -11 -9 -21 -9 -42 1 -15 7 -54 13 -86 15 -44 2 -63 8
-73 21 -10 13 -13 65 -13 200 l0 183 28 4 c15 2 99 4 187 3 l160 -1 3 -183z
m413 -56 c-12 -13 -53 -38 -90 -55 -117 -54 -227 -64 -266 -25 -28 28 -1 44
76 44 78 0 155 15 213 41 23 9 52 18 65 18 l24 1 -22 -24z m-816 -126 c0 -22
-6 -26 -45 -33 -53 -10 -125 9 -125 33 0 11 13 15 53 16 29 0 55 4 59 8 4 4
19 6 33 4 19 -2 25 -9 25 -28z m532 -19 c63 -24 143 -40 218 -42 33 -1 69 -5
80 -9 18 -7 17 -8 -10 -23 -72 -37 -241 -25 -337 24 -48 25 -52 63 -6 68 4 1
29 -7 55 -18z m-524 -51 c9 -11 28 -20 42 -20 33 0 43 -26 19 -51 -17 -17 -23
-17 -52 -7 -29 11 -35 11 -43 -5 -13 -22 -37 -22 -61 0 -17 15 -19 15 -36 0
-25 -23 -48 -21 -66 5 -23 33 -21 52 6 44 17 -4 29 2 45 22 l23 27 23 -27 c29
-35 33 -35 46 2 12 35 30 38 54 10z m582 -60 c3 -5 6 -92 6 -192 -1 -174 -2
-184 -22 -200 -14 -12 -38 -18 -73 -18 -28 0 -61 -6 -72 -14 -17 -12 -22 -12
-39 0 -11 8 -43 14 -75 14 -89 0 -90 3 -96 220 -4 145 -3 185 8 191 19 12 356
11 363 -1z m-445 -287 c0 -219 -1 -223 -84 -223 -28 0 -64 -7 -80 -15 -22 -12
-32 -13 -43 -4 -7 7 -37 13 -66 15 -29 1 -57 3 -64 3 -6 1 -19 8 -27 17 -13
13 -16 45 -16 198 0 100 3 186 7 189 3 4 89 7 190 7 l183 0 0 -187z m657 92
c48 -14 92 -30 97 -35 28 -28 -165 -24 -209 4 -21 14 -24 20 -15 36 14 26 22
25 127 -5z m-78 -217 c70 -23 91 -34 91 -51 0 -13 -137 -3 -172 13 -38 18 -38
60 0 60 9 0 45 -10 81 -22z m-204 -65 c21 -27 63 -74 94 -105 99 -103 23 -83
-95 25 -76 70 -91 92 -73 113 19 23 35 16 74 -33z m-547 -130 c15 -29 21 -123
8 -123 -30 0 -80 113 -59 133 12 13 42 7 51 -10z m511 -134 c59 -57 59 -83 -1
-55 -62 30 -102 78 -81 99 13 14 29 5 82 -44z"/>
<path d="M6179 5476 c-7 -7 0 -309 7 -315 5 -6 72 -13 129 -13 47 -1 139 14
146 23 3 5 4 44 3 86 -1 43 -3 111 -3 151 l-1 72 -138 0 c-76 0 -141 -2 -143
-4z m171 -48 c35 -26 38 -55 9 -92 -24 -31 -52 -33 -79 -6 -28 28 -26 70 7 97
32 28 27 28 63 1z m85 -129 c4 -5 0 -18 -9 -28 -9 -10 -16 -24 -16 -33 0 -21
-11 -29 -25 -18 -8 7 -27 4 -59 -11 -53 -23 -94 -22 -110 3 -14 23 -8 27 62
39 47 8 63 16 68 31 4 15 12 18 29 14 13 -3 27 -2 30 4 8 13 22 13 30 -1z"/>
<path d="M5988 4963 c-2 -16 -2 -87 0 -159 l3 -131 62 -8 c77 -9 88 -8 162 2
l60 8 3 158 3 157 -145 0 -145 0 -3 -27z m172 2 c17 -21 3 -35 -36 -35 -37 0
-43 10 -18 34 19 20 38 20 54 1z m-40 -112 c0 -18 5 -33 10 -33 6 0 10 12 10
27 0 28 35 73 56 73 22 0 33 -33 27 -78 -3 -26 -1 -47 6 -56 16 -19 -3 -91
-26 -100 -17 -7 -36 12 -26 27 2 4 2 16 -2 25 -6 16 -7 16 -16 0 -14 -25 -48
-22 -59 5 -9 23 -13 15 -14 -33 -1 -28 -25 -34 -36 -10 -4 8 -12 25 -19 38 -9
18 -8 27 4 46 11 17 14 35 9 65 -4 27 -2 46 6 56 11 13 16 13 41 -2 23 -14 29
-25 29 -50z"/>
<path d="M6180 4341 c0 -156 0 -159 23 -165 37 -10 39 -7 18 20 -16 20 -18 31
-10 45 12 23 27 25 35 4 9 -22 18 -19 43 16 l24 32 -36 -7 c-47 -9 -63 15 -39
58 13 22 14 30 5 33 -29 10 4 63 39 63 10 0 17 11 20 30 l5 30 -64 0 -63 0 0
-159z"/>
<path d="M6350 4494 c0 -3 9 -17 20 -31 11 -14 20 -38 20 -53 0 -27 26 -60 48
-60 16 0 26 -40 13 -53 -6 -6 -11 -23 -11 -38 0 -44 -20 -46 -54 -6 -41 49
-49 47 -26 -8 10 -24 16 -46 12 -49 -4 -2 -25 -7 -46 -11 -31 -6 -35 -10 -22
-17 10 -5 25 -7 34 -3 9 4 42 10 72 14 l55 6 3 158 3 157 -61 0 c-33 0 -60 -3
-60 -6z"/>
<path d="M5728 4343 c-2 -32 -2 -106 0 -164 l3 -106 72 -6 c40 -3 102 0 139 6
78 13 75 2 70 200 l-3 127 -60 0 c-32 0 -59 -3 -59 -6 0 -3 9 -17 19 -30 15
-20 18 -31 11 -55 -5 -17 -17 -37 -27 -45 -17 -12 -16 -13 10 -14 15 0 42 -7
59 -16 29 -15 30 -18 23 -61 -10 -71 -23 -90 -40 -62 -5 7 -14 4 -26 -7 -19
-17 -20 -17 -26 4 -7 28 -36 28 -56 0 l-16 -23 -7 23 c-5 17 -12 22 -25 19
-25 -7 -32 6 -18 36 9 19 8 31 -5 54 -14 28 -14 32 3 47 22 20 35 20 51 1 7
-8 19 -15 27 -15 11 0 10 6 -6 26 -26 34 -27 66 -1 89 32 29 24 35 -45 35
l-64 0 -3 -57z"/>
<path d="M3990 5864 c-14 -17 -31 -48 -37 -70 -31 -105 -43 -165 -43 -217 0
-31 -5 -59 -10 -62 -27 -17 -113 117 -140 218 -7 26 -16 47 -20 47 -33 0 -67
-265 -47 -377 10 -57 -6 -56 -69 2 -26 25 -51 45 -56 45 -13 0 -9 -88 8 -153
8 -33 27 -89 41 -124 14 -35 23 -66 20 -69 -8 -8 -66 24 -113 62 -23 19 -43
34 -46 34 -9 0 11 -103 22 -114 5 -5 10 -18 10 -27 0 -17 63 -119 107 -172 13
-16 23 -33 23 -39 0 -16 -64 -1 -163 39 -49 19 -91 33 -93 30 -9 -8 28 -102
54 -137 14 -19 53 -63 85 -97 l59 -62 -27 -7 c-30 -7 -160 0 -187 11 -55 22
35 -85 96 -115 24 -11 75 -27 113 -34 37 -6 68 -16 67 -22 -3 -28 -183 -107
-271 -119 -29 -4 -53 -10 -53 -14 0 -16 117 -110 124 -99 1 2 10 22 20 44 20
47 84 95 131 100 68 6 105 -30 105 -104 1 -33 27 -82 44 -82 3 0 6 74 6 165 0
124 3 167 13 170 20 7 337 14 353 8 11 -4 14 -39 14 -193 0 -219 0 -220 -91
-220 -31 0 -63 -6 -74 -14 -10 -7 -26 -12 -34 -10 -11 3 -25 -14 -43 -54 l-28
-57 24 -20 c13 -11 36 -39 51 -63 l29 -43 23 38 c20 33 36 90 46 158 1 11 10
21 19 23 47 9 23 -119 -38 -207 -28 -42 -33 -55 -23 -67 18 -21 22 -18 65 41
21 30 43 55 48 55 5 0 7 -51 4 -115 -3 -63 -3 -115 -1 -115 31 0 123 87 167
158 14 23 31 42 36 42 15 0 12 -50 -5 -106 -8 -27 -15 -50 -15 -51 0 -2 6 -3
14 -3 8 0 40 23 71 51 39 37 65 72 88 120 32 69 49 82 55 41 4 -28 8 -28 50 4
20 16 45 50 60 82 l25 55 17 -24 c16 -20 20 -21 34 -10 22 19 20 23 -24 50
-64 40 -83 125 -41 182 19 25 20 34 11 67 -5 20 -10 51 -10 68 0 21 -10 40
-35 64 -19 18 -37 46 -40 61 -8 36 9 91 35 114 24 22 27 90 5 119 -18 24 -20
118 -3 149 6 12 18 27 26 33 15 11 9 34 -8 34 -4 0 -22 -13 -39 -29 -27 -26
-31 -35 -31 -84 0 -44 -5 -59 -25 -81 -63 -68 -164 14 -110 90 8 12 30 37 50
57 40 40 41 51 16 126 -14 39 -17 62 -10 78 16 43 10 116 -13 163 -19 37 -40
55 -127 110 -88 54 -108 72 -128 110 -12 25 -23 53 -23 63 0 21 -8 22 -32 1
-13 -13 -21 -14 -32 -5 -27 23 -68 135 -85 233 l-16 101 -25 -29z m35 -209
c11 -38 19 -89 19 -113 0 -40 2 -43 26 -41 14 0 35 1 48 0 l22 -1 0 -190 c0
-177 -1 -191 -20 -210 -15 -15 -33 -20 -73 -20 -32 0 -61 -6 -75 -16 -21 -14
-26 -14 -56 0 -19 9 -42 16 -53 16 -14 0 -10 -8 20 -34 36 -33 50 -76 24 -76
-7 0 -32 16 -56 36 -30 27 -40 41 -36 55 5 14 1 19 -11 19 -10 0 -26 7 -36 17
-16 14 -18 35 -18 204 0 103 4 190 9 193 5 3 0 23 -10 43 -20 39 -26 103 -9
103 16 0 62 -99 55 -121 -6 -18 -1 -19 104 -19 l110 0 -14 33 c-18 44 -26 152
-14 185 13 34 22 21 44 -63z m231 -281 c70 -50 81 -74 34 -74 -16 0 -30 -4
-30 -8 0 -5 14 -18 30 -30 36 -27 38 -47 8 -63 l-22 -12 31 -27 c17 -15 37
-30 44 -32 27 -10 0 -20 -34 -14 -50 9 -90 53 -83 89 4 20 0 38 -14 57 -11 15
-20 39 -20 53 0 14 -7 38 -15 53 -35 67 -15 69 71 8z m-584 -81 c36 -39 61
-90 48 -98 -16 -10 -39 13 -66 67 -13 26 -24 50 -24 53 0 13 18 3 42 -22z
m673 -103 c-3 -5 -12 -10 -18 -10 -7 0 -6 4 3 10 19 12 23 12 15 0z m-121 -62
c19 -29 24 -44 16 -52 -22 -22 -80 44 -67 77 10 26 21 21 51 -25z m-571 -113
c36 -27 103 -70 149 -95 81 -45 105 -73 77 -91 -15 -9 -51 -3 -89 17 -85 42
-230 181 -230 220 0 18 4 15 93 -51z m672 -191 c-1 -222 -1 -224 -77 -224 -28
0 -65 -7 -84 -16 -30 -14 -35 -14 -56 0 -14 10 -43 16 -77 16 -91 0 -91 0 -91
227 l0 193 193 -2 192 -3 0 -191z m-604 -82 c41 -6 97 -9 124 -9 45 2 50 0 53
-20 10 -71 -226 -50 -329 30 -66 50 -61 61 14 33 35 -13 98 -29 138 -34z m758
-73 c31 2 42 -1 39 -11 -8 -22 -51 -38 -104 -38 -55 0 -81 17 -70 46 5 13 14
15 49 9 23 -4 62 -7 86 -6z m-569 -48 c0 -22 -64 -60 -129 -76 -80 -19 -232
-18 -252 2 -7 7 -10 15 -8 18 3 2 48 9 100 15 54 6 129 23 175 39 55 20 84 26
97 19 9 -5 17 -13 17 -17z m480 -41 c15 -37 23 -37 49 -2 l20 27 23 -28 c15
-18 31 -28 43 -25 28 4 27 -40 -1 -58 -18 -13 -24 -12 -46 6 -25 19 -26 19
-43 0 -23 -25 -33 -25 -61 1 -21 20 -23 20 -48 4 -31 -21 -56 -7 -56 31 0 18
5 24 23 24 13 0 34 11 47 25 30 32 35 31 50 -5z m198 -338 c2 -181 1 -193 -18
-212 -15 -15 -33 -20 -73 -20 -32 0 -61 -6 -75 -16 -21 -14 -26 -14 -63 0 -22
9 -59 16 -83 16 -75 0 -76 4 -76 225 l0 194 143 3 c78 2 165 3 192 2 l50 0 3
-192z m-329 -280 c13 -24 1 -73 -32 -139 -26 -51 -43 -70 -54 -60 -6 6 24 160
38 195 10 27 35 29 48 4z m341 4 c0 -3 -4 -8 -10 -11 -5 -3 -10 -1 -10 4 0 6
5 11 10 11 6 0 10 -2 10 -4z m-171 -40 c17 -21 4 -60 -35 -103 l-35 -38 7 65
c3 36 11 71 16 78 14 16 33 15 47 -2z"/>
<path d="M3797 5453 c-2 -5 -3 -80 -3 -168 l1 -160 58 -2 c31 -1 65 -6 74 -11
11 -6 28 -5 49 4 18 8 52 14 74 14 l40 0 0 165 0 165 -144 0 c-80 0 -147 -3
-149 -7z m219 -31 c26 -17 33 -46 16 -65 -14 -16 -14 -17 0 -12 18 7 48 -29
48 -58 0 -14 -5 -18 -19 -14 -21 5 -31 -15 -35 -71 -5 -59 -56 -84 -56 -26 0
33 -13 30 -27 -7 -8 -21 -17 -30 -30 -27 -14 3 -18 14 -19 53 -1 28 2 58 8 68
8 15 6 17 -16 11 -19 -4 -26 -1 -31 16 -4 11 -2 26 3 33 6 7 12 28 14 47 4 44
34 54 44 16 8 -31 24 -34 24 -5 0 35 47 61 76 41z"/>
<path d="M3984 4965 c-3 -6 -3 -80 -2 -165 l3 -155 65 -7 c36 -4 72 -8 80 -8
8 0 44 4 80 8 l65 7 3 166 2 166 -146 -1 c-97 0 -147 -3 -150 -11z m177 -40
c4 -16 7 -25 8 -19 0 6 15 17 32 25 28 11 33 11 46 -7 19 -26 10 -69 -26 -121
-30 -43 -32 -77 -5 -87 8 -3 14 -17 14 -31 0 -18 -5 -25 -19 -25 -11 0 -23 5
-26 11 -5 7 -15 5 -32 -6 -23 -15 -26 -15 -44 1 -15 14 -21 14 -34 4 -18 -15
-45 -7 -45 13 0 8 6 20 14 26 18 15 30 62 19 70 -19 13 -53 80 -53 104 0 59
28 74 68 37 l22 -21 0 24 c0 30 9 39 35 35 13 -2 22 -13 26 -33z"/>
<path d="M4249 4388 c-6 -13 -6 -258 0 -258 12 0 75 104 99 163 33 82 29 91
-41 95 -31 2 -58 2 -58 0z m71 -88 c12 -8 12 -14 -3 -45 -19 -40 -36 -41 -54
-5 -21 43 16 76 57 50z"/>
<path d="M4417 4382 c-17 -26 101 -261 124 -247 5 3 8 61 6 128 l-2 122 -62 3
c-34 2 -64 -1 -66 -6z m101 -74 c24 -24 8 -78 -24 -78 -6 0 -17 14 -25 31 -11
28 -10 33 6 45 23 17 28 17 43 2z"/>
<path d="M4375 4239 c-10 -19 -31 -53 -46 -76 -16 -23 -29 -45 -29 -48 0 -9
62 5 78 18 9 7 16 7 24 -1 13 -13 78 -17 78 -5 0 3 -7 14 -15 23 -8 9 -28 40
-44 70 l-29 53 -17 -34z m45 -70 c0 -5 -11 -9 -25 -9 -26 0 -35 25 -12 33 13
5 37 -10 37 -24z"/>
<path d="M4247 4074 c-14 -14 6 -24 48 -24 24 0 55 -4 69 -10 18 -7 37 -5 66
5 23 8 44 14 48 14 26 -4 62 3 62 11 0 11 -282 14 -293 4z"/>
<path d="M5555 5823 c-68 -14 -95 -27 -83 -38 7 -8 190 34 203 46 13 13 -38 9
-120 -8z"/>
<path d="M4576 5821 c11 -12 205 -53 212 -46 10 10 -8 18 -85 36 -86 20 -143
25 -127 10z"/>
<path d="M5565 5769 c-55 -13 -107 -18 -168 -17 -48 2 -87 1 -87 -2 0 -3 9
-16 20 -30 11 -14 20 -30 20 -36 0 -14 -56 -57 -104 -81 -53 -25 -41 -40 47
-58 24 -5 27 -10 27 -45 l0 -39 35 15 c43 17 55 12 55 -24 0 -26 -1 -27 -63
-27 l-62 0 -5 40 c-4 33 -9 41 -29 43 -34 5 -94 -54 -81 -79 7 -13 4 -27 -11
-53 -12 -20 -24 -36 -27 -36 -4 0 -17 16 -30 34 -18 27 -21 39 -13 54 8 16 4
25 -23 51 -46 44 -80 40 -84 -9 -4 -46 -24 -61 -65 -49 -17 5 -40 6 -50 3 -15
-5 -18 -1 -15 23 3 29 17 33 66 18 20 -7 22 -4 22 34 0 36 3 41 28 47 93 20
99 31 34 62 -26 12 -60 33 -75 45 l-28 22 27 38 c14 21 24 40 22 43 -3 2 -19
-1 -37 -7 -37 -13 -131 -7 -257 17 -92 17 -123 10 -150 -31 -10 -15 -26 -25
-41 -25 -32 0 -80 -25 -93 -49 -16 -30 -12 -76 8 -94 15 -13 20 -14 42 -2 36
20 74 18 95 -5 14 -15 31 -20 70 -20 37 0 61 -6 85 -22 53 -36 51 -50 -7 -43
-29 4 -77 1 -123 -9 -97 -21 -116 -20 -140 4 -25 25 -27 25 -33 -6 -3 -18 2
-33 15 -46 25 -25 78 -20 152 12 48 20 96 27 96 13 0 -5 -23 -21 -50 -36 -28
-16 -50 -32 -50 -38 0 -19 67 -9 100 16 36 27 72 31 115 15 37 -14 42 9 15 65
-25 51 -70 90 -155 133 -33 16 -68 39 -79 51 -18 19 -18 22 -2 46 32 49 59 53
132 17 44 -22 79 -32 110 -32 65 0 52 -21 -24 -41 l-62 -15 54 -46 c95 -83
120 -180 71 -273 l-26 -48 35 6 c20 3 38 2 41 -3 6 -10 -32 -97 -46 -106 -16
-10 -10 -19 27 -39 31 -16 41 -17 80 -7 24 7 51 12 60 12 8 0 33 14 54 31 66
54 150 49 204 -10 14 -15 31 -21 62 -21 23 0 54 -4 68 -10 19 -7 33 -5 56 8
35 20 36 21 10 69 -11 21 -20 48 -20 60 0 19 5 23 30 23 34 0 36 4 15 53 -36
87 -4 198 79 275 l43 40 -46 7 c-87 13 -107 45 -29 45 27 0 59 10 95 30 29 17
63 30 75 30 23 0 78 -46 78 -64 0 -16 -64 -65 -108 -83 -20 -8 -52 -26 -71
-40 -37 -29 -91 -108 -91 -134 0 -23 19 -34 33 -20 20 20 83 13 115 -14 30
-25 66 -32 90 -16 10 6 0 16 -35 36 -61 35 -60 34 -44 44 8 6 41 -1 85 -15 92
-32 145 -29 166 8 11 21 12 30 3 39 -10 10 -17 9 -33 -6 -17 -15 -29 -17 -87
-10 -38 4 -103 8 -146 8 -42 1 -77 5 -77 8 0 3 11 15 23 27 29 28 80 43 117
36 20 -5 34 0 49 15 29 29 64 35 99 17 30 -15 32 -15 46 6 39 55 -1 128 -68
128 -27 0 -40 7 -59 31 -31 40 -82 45 -192 18z m-557 -414 c23 -28 40 -32 48
-10 9 23 31 18 36 -7 11 -59 -25 -104 -63 -79 -18 11 -26 11 -46 0 -31 -17
-52 -5 -77 45 -21 43 -15 57 14 31 22 -20 21 -21 38 18 14 34 25 34 50 2z
m295 -5 l11 -30 23 22 c20 19 23 19 29 5 7 -19 -23 -75 -48 -91 -13 -8 -23 -8
-37 1 -15 9 -26 9 -51 0 -29 -11 -34 -10 -51 12 -22 27 -24 44 -8 72 10 20 11
20 30 3 19 -17 21 -17 47 9 34 34 41 34 55 -3z"/>
<path d="M5657 5704 c-14 -15 -6 -34 14 -34 14 0 19 5 17 17 -3 18 -20 27 -31
17z"/>
<path d="M4577 5694 c-14 -15 -6 -34 14 -34 14 0 19 5 17 17 -3 18 -20 27 -31
17z"/>
<path d="M5105 5108 c-26 -15 -35 -28 -35 -54 0 -50 76 -73 104 -32 23 32 20
54 -10 77 -31 24 -32 24 -59 9z m44 -32 c15 -18 3 -46 -20 -46 -25 0 -35 26
-19 45 15 19 24 19 39 1z"/>
<path d="M4760 5066 c0 -20 14 -28 36 -19 16 6 16 7 -2 20 -23 17 -34 17 -34
-1z"/>
<path d="M5455 5070 c-3 -5 -4 -10 -1 -10 2 0 11 -3 19 -6 8 -3 17 2 20 10 7
18 -27 23 -38 6z"/>
<path d="M4930 5061 c-26 -4 -36 -12 -38 -28 -4 -25 5 -27 71 -16 31 5 38 9
35 27 -3 23 -16 27 -68 17z"/>
<path d="M5260 5046 c0 -21 6 -24 47 -29 55 -6 63 -3 63 22 0 13 -10 20 -37
25 -64 10 -73 8 -73 -18z"/>
<path d="M5545 5057 c-4 -10 -3 -23 4 -30 16 -16 26 0 14 25 -10 21 -11 22
-18 5z"/>
<path d="M4695 5039 c-4 -11 -4 -23 -2 -26 9 -8 27 7 27 22 0 23 -18 27 -25 4z"/>
<path d="M5430 4996 c0 -7 6 -19 14 -25 11 -9 15 -8 20 5 4 10 1 21 -6 26 -19
12 -28 10 -28 -6z"/>
<path d="M4794 4989 c-3 -6 -1 -16 5 -22 9 -9 14 -8 21 3 5 8 10 18 10 23 0
11 -28 8 -36 -4z"/>
<path d="M5510 4960 c0 -18 3 -19 20 -10 22 12 18 30 -6 30 -8 0 -14 -9 -14
-20z"/>
<path d="M4711 4961 c-11 -7 -9 -10 8 -16 25 -8 36 -2 26 14 -8 13 -15 14 -34
2z"/>
<path d="M4940 4963 c-56 -9 -70 -14 -70 -28 0 -12 20 -15 113 -14 69 0 104 3
92 9 -12 4 -27 15 -34 24 -13 15 -44 18 -101 9z"/>
<path d="M5201 4945 l-34 -25 106 0 c101 0 133 9 111 30 -5 5 -40 11 -79 14
-63 5 -73 3 -104 -19z"/>
<path d="M5425 4888 c-3 -8 -7 -139 -8 -292 -2 -333 8 -310 -146 -319 -55 -3
-110 -11 -121 -17 -15 -8 -26 -7 -42 1 -12 7 -67 13 -122 15 -150 5 -140 -17
-146 326 -4 197 -8 282 -16 285 -8 3 -13 -20 -16 -68 -3 -59 -8 -75 -26 -89
-28 -23 -29 -71 -2 -108 30 -41 36 -92 14 -137 -15 -33 -16 -46 -6 -103 9 -52
17 -70 42 -93 27 -25 39 -29 89 -29 51 0 61 -3 86 -30 l29 -30 28 27 c27 26
28 26 48 8 16 -14 23 -16 32 -7 18 18 43 14 63 -8 19 -20 19 -20 50 10 27 26
39 30 85 30 79 1 113 34 132 127 13 63 13 70 -4 98 -24 38 -19 107 10 138 26
28 23 85 -7 123 -16 20 -21 41 -21 85 0 55 -14 86 -25 57z"/>
<path d="M5530 4893 c-22 -9 -30 -24 -30 -63 0 -53 10 -62 66 -58 l49 3 3 48
c2 27 -2 55 -9 63 -11 14 -51 17 -79 7z"/>
<path d="M4656 4877 c-13 -10 -17 -24 -14 -62 l3 -50 43 -3 c56 -4 72 10 72
64 0 33 -5 46 -19 54 -27 14 -64 13 -85 -3z"/>
<path d="M4889 4823 c-4 -263 0 -486 9 -495 11 -11 417 -14 451 -3 21 6 21 10
21 281 l0 274 -240 0 -240 0 -1 -57z m250 31 c18 -13 22 -23 17 -45 -6 -32 1
-59 16 -59 5 0 25 12 44 27 l35 26 30 -33 c34 -37 35 -65 0 -65 -30 -1 -55
-33 -40 -52 6 -7 19 -13 29 -13 31 0 70 -39 70 -71 0 -36 -13 -38 -28 -4 -6
14 -19 25 -27 25 -12 0 -14 -4 -5 -19 5 -11 10 -35 10 -53 0 -18 8 -55 18 -83
l18 -50 -28 -23 c-28 -24 -29 -24 -97 -8 -42 9 -95 13 -134 10 -55 -3 -69 -1
-98 19 -28 18 -35 30 -37 62 -3 35 2 45 36 78 27 27 38 45 35 58 -7 24 -23 25
-23 1 0 -11 -9 -27 -20 -37 -20 -18 -20 -17 -20 28 0 60 8 77 34 77 11 1 32
10 45 20 18 16 21 23 12 34 -7 8 -16 27 -20 43 -5 15 -12 36 -16 47 -7 16 -6
17 14 6 24 -13 51 1 51 26 0 12 37 44 50 44 3 0 16 -7 29 -16z"/>
<path d="M5110 4810 c0 -5 5 -10 11 -10 5 0 7 5 4 10 -3 6 -8 10 -11 10 -2 0
-4 -4 -4 -10z"/>
<path d="M5020 4620 c0 -5 7 -10 15 -10 8 0 15 5 15 10 0 6 -7 10 -15 10 -8 0
-15 -4 -15 -10z"/>
<path d="M5109 4558 c-28 -23 -50 -68 -44 -88 4 -14 15 -20 35 -20 27 0 29 2
24 30 -4 17 -3 30 2 30 23 0 73 -41 76 -62 2 -17 11 -24 31 -26 43 -5 34 25
-27 91 -56 59 -71 66 -97 45z"/>
<path d="M5225 4540 c10 -11 22 -17 27 -14 12 8 -11 34 -30 34 -13 0 -12 -3 3
-20z"/>
<path d="M5012 4490 c-6 -16 -6 -31 0 -44 16 -30 31 -4 20 35 l-9 34 -11 -25z"/>
<path d="M4960 4460 c0 -11 5 -20 10 -20 6 0 10 9 10 20 0 11 -4 20 -10 20 -5
0 -10 -9 -10 -20z"/>
<path d="M5550 4695 c0 -18 5 -25 20 -25 15 0 20 7 20 25 0 18 -5 25 -20 25
-15 0 -20 -7 -20 -25z"/>
<path d="M4664 4695 c-8 -20 4 -35 27 -35 14 0 19 7 19 25 0 18 -5 25 -20 25
-11 0 -23 -7 -26 -15z"/>
<path d="M4670 4592 c-22 -7 -40 -33 -40 -59 0 -32 40 -51 76 -35 21 10 25 18
22 48 -3 38 -26 56 -58 46z m35 -52 c0 -16 -6 -26 -18 -28 -19 -4 -32 20 -23
44 9 25 41 13 41 -16z"/>
<path d="M5534 4575 c-9 -14 -13 -32 -9 -44 14 -46 105 -34 105 13 0 54 -66
76 -96 31z m61 -26 c0 -15 -7 -25 -18 -27 -22 -4 -33 24 -17 43 18 21 35 13
35 -16z"/>
<path d="M3800 4318 l0 -163 38 -1 c20 -1 57 -3 82 -4 25 -2 71 1 102 5 l57 8
3 106 c2 58 2 130 0 159 l-3 52 -140 0 -139 0 0 -162z m116 127 c4 -8 12 -15
19 -15 7 0 18 7 25 15 18 22 50 19 50 -5 0 -11 -4 -20 -10 -20 -5 0 -10 -7
-10 -15 0 -17 16 -20 25 -5 11 19 35 10 45 -16 10 -24 -2 -139 -14 -152 -3 -2
-17 3 -32 12 -23 16 -27 16 -43 2 -22 -20 -40 -20 -63 1 -17 15 -19 15 -38 -2
-26 -23 -35 -14 -46 50 -16 91 1 129 47 105 14 -8 19 -7 19 3 0 7 -5 18 -11
24 -6 6 -8 16 -5 22 10 16 36 13 42 -4z m118 -266 c-9 -15 -42 -10 -48 8 -10
24 15 35 36 16 10 -9 15 -20 12 -24z m-136 14 c-4 -22 -48 -31 -48 -10 0 19
10 27 32 27 13 0 18 -6 16 -17z"/>
<path d="M3920 4321 c0 -37 19 -50 37 -25 19 26 12 48 -15 52 -19 3 -22 -1
-22 -27z"/>
<path d="M5526 4393 c-10 -61 -8 -73 13 -73 20 0 31 26 31 78 0 25 -4 32 -19
32 -14 0 -20 -10 -25 -37z"/>
<path d="M4686 4412 c-2 -4 0 -29 6 -55 7 -36 14 -47 29 -47 21 0 24 22 13 79
-6 29 -35 44 -48 23z"/>
<path d="M3565 4309 c-4 -5 -18 -15 -32 -20 -21 -8 -23 -12 -13 -24 10 -12 9
-16 -4 -21 -9 -3 -16 -14 -16 -24 0 -43 95 -35 129 10 36 49 22 117 -16 79 -8
-8 -13 -8 -17 0 -9 14 -23 14 -31 0z"/>
<path d="M5512 4248 c3 -7 15 -15 28 -16 21 -3 22 -2 11 12 -16 19 -44 21 -39
4z"/>
<path d="M4705 4240 c-8 -12 20 -24 35 -15 5 3 10 10 10 16 0 12 -37 12 -45
-1z"/>
<path d="M4792 4213 c-10 -17 -9 -22 5 -27 22 -9 28 0 16 26 l-10 23 -11 -22z"/>
<path d="M5445 4209 c-8 -23 -1 -34 14 -24 13 8 15 45 2 45 -5 0 -13 -9 -16
-21z"/>
<path d="M4930 4203 c0 -5 14 -24 30 -43 25 -31 30 -33 36 -17 4 12 -1 26 -16
43 -22 23 -50 32 -50 17z"/>
<path d="M5281 4184 c-24 -31 -26 -44 -8 -44 12 0 57 51 57 65 0 15 -31 2 -49
-21z"/>
<path d="M4880 4188 c0 -9 5 -20 11 -23 17 -11 20 0 4 21 -13 17 -14 17 -15 2z"/>
<path d="M5360 4185 c-7 -9 -11 -18 -8 -20 3 -3 11 1 18 10 7 9 11 18 8 20 -3
3 -11 -1 -18 -10z"/>
<path d="M4670 4186 c0 -3 5 -17 11 -33 9 -25 11 -26 20 -10 8 13 7 22 -1 33
-12 13 -30 19 -30 10z"/>
<path d="M5056 4168 c-20 -28 -20 -38 -3 -38 16 0 47 32 47 48 0 20 -28 13
-44 -10z"/>
<path d="M5164 4179 c-8 -14 31 -54 45 -45 7 5 6 15 -5 32 -18 26 -29 30 -40
13z"/>
<path d="M5560 4180 c-12 -7 -12 -12 -2 -22 10 -10 15 -10 22 2 19 29 9 39
-20 20z"/>
<path d="M3631 4161 c-25 -19 -21 -41 8 -41 22 0 41 19 41 42 0 23 -18 23 -49
-1z"/>
<path d="M5483 4143 c-21 -8 -15 -20 12 -25 28 -6 27 -6 19 16 -6 17 -11 18
-31 9z"/>
<path d="M4746 4125 c-4 -12 -1 -16 14 -13 24 3 28 22 7 26 -8 2 -17 -4 -21
-13z"/>
<path d="M5107 4122 c-22 -24 -21 -38 2 -68 l18 -23 22 23 c26 27 27 48 3 69
-23 21 -25 21 -45 -1z"/>
<path d="M4864 4115 c-9 -23 4 -47 23 -43 26 5 28 35 3 48 -16 9 -21 8 -26 -5z"/>
<path d="M5362 4118 c-27 -27 -6 -56 28 -38 16 9 18 15 10 30 -12 23 -21 25
-38 8z"/>
<path d="M3770 4113 c0 -2 12 -25 27 -50 25 -43 27 -44 40 -27 14 20 28 63 22
68 -7 6 -89 14 -89 9z"/>
<path d="M4952 4087 c-36 -37 -39 -47 -14 -46 22 0 68 57 55 70 -5 5 -21 -4
-41 -24z"/>
<path d="M5260 4107 c0 -20 46 -59 65 -55 13 2 12 8 -11 36 -28 33 -54 42 -54
19z"/>
<path d="M3525 4096 c-11 -7 -42 -20 -69 -27 -27 -8 -51 -20 -53 -26 -11 -32
158 -67 232 -49 22 6 25 9 15 21 -8 10 -31 15 -66 15 -65 0 -74 11 -28 34 30
14 34 19 24 31 -15 19 -30 19 -55 1z"/>
<path d="M3692 4080 l-23 -19 40 -52 c21 -28 52 -77 67 -108 42 -85 71 -121
99 -121 28 0 49 31 40 59 -3 10 -33 50 -66 87 -34 38 -75 92 -92 121 -18 29
-34 52 -37 52 -3 0 -15 -8 -28 -19z"/>
<path d="M4994 4039 l-28 -30 19 -34 c24 -46 43 -61 57 -47 7 7 4 19 -12 42
-20 29 -21 32 -6 49 38 42 10 61 -30 20z"/>
<path d="M5220 4055 c0 -3 7 -16 15 -29 14 -22 14 -27 -5 -59 -27 -46 -8 -62
26 -21 36 44 39 63 13 90 -20 22 -49 33 -49 19z"/>
<path d="M6147 4044 c-16 -16 -7 -44 14 -44 15 0 20 5 17 22 -3 22 -19 33 -31
22z"/>
<path d="M4800 4015 c0 -8 -15 -24 -32 -35 -18 -11 -44 -29 -58 -40 -14 -11
-41 -30 -60 -43 -33 -22 -35 -26 -36 -82 -1 -33 -5 -68 -9 -77 -9 -21 12 -24
65 -8 34 11 36 10 91 -50 31 -33 59 -60 62 -60 4 0 10 15 15 32 6 25 16 35 40
42 29 8 32 12 30 49 -1 31 4 44 21 59 64 51 132 -23 97 -105 -17 -42 -41 -57
-90 -57 -32 0 -38 -4 -55 -40 -22 -45 -21 -46 61 -24 71 18 94 14 78 -15 -5
-11 -19 -23 -30 -26 -26 -8 -16 -25 16 -25 24 0 29 -4 85 -72 17 -21 36 -38
43 -38 6 1 25 19 41 41 47 62 55 69 80 69 34 0 39 15 10 30 -29 15 -40 39 -21
46 7 3 43 -2 80 -10 37 -9 69 -16 71 -16 2 0 -4 18 -12 40 -15 38 -18 40 -57
40 -23 0 -51 7 -63 15 -46 32 -47 131 -3 155 49 26 87 -1 92 -65 3 -35 6 -40
33 -45 24 -4 31 -12 38 -43 5 -20 12 -37 15 -36 4 0 30 27 57 59 l50 59 54 -2
54 -2 -2 60 c-1 33 -4 68 -7 77 -3 10 -43 43 -90 74 -47 30 -88 62 -91 70 -6
17 -49 19 -59 3 -3 -6 -21 -17 -39 -24 -33 -14 -121 -118 -111 -133 11 -17
-99 -182 -121 -182 -26 0 -139 163 -127 182 10 15 -76 118 -98 118 -11 0 -33
11 -50 25 -33 28 -58 32 -58 10z m360 -460 c0 -54 -4 -76 -16 -86 -14 -11 -18
-10 -30 6 -20 27 -19 139 2 160 29 29 44 1 44 -80z"/>
<path d="M5055 4009 c-4 -6 2 -20 12 -32 34 -38 34 -45 3 -81 -28 -32 -29 -35
-13 -45 14 -8 24 -4 46 17 l29 27 24 -28 c15 -17 31 -27 39 -23 21 8 19 24
-10 58 l-25 29 26 34 c38 51 13 76 -33 33 l-23 -21 -23 21 c-26 24 -42 28 -52
11z"/>
<path d="M6064 3949 c-10 -17 13 -36 27 -22 12 12 4 33 -11 33 -5 0 -12 -5
-16 -11z"/>
<path d="M6147 3954 c-4 -4 -4 -10 -1 -15 6 -10 34 0 34 12 0 10 -24 12 -33 3z"/>
<path d="M6235 3950 c-7 -12 2 -30 16 -30 5 0 9 9 9 20 0 21 -15 27 -25 10z"/>
<path d="M3653 3888 c-27 -24 -61 -53 -76 -64 -15 -12 -27 -25 -27 -29 0 -14
124 2 163 21 36 17 55 53 21 40 -32 -12 -64 -18 -64 -11 0 3 11 21 25 39 47
61 25 63 -42 4z"/>
<path d="M6136 3874 c-30 -30 -13 -74 29 -74 44 0 63 60 26 80 -27 14 -37 13
-55 -6z"/>
<path d="M5108 3815 c-12 -27 2 -55 28 -55 19 0 29 47 14 65 -18 21 -29 19
-42 -10z"/>
<path d="M6079 3731 c-22 -21 -39 -45 -39 -54 0 -13 6 -12 45 2 42 15 45 18
45 53 0 21 -3 38 -6 38 -4 0 -24 -17 -45 -39z"/>
<path d="M6210 3735 c0 -33 2 -35 52 -50 28 -8 53 -13 56 -11 14 14 -66 96
-94 96 -9 0 -14 -11 -14 -35z"/>
<path d="M3753 3716 l-53 -41 47 -3 c63 -4 115 6 110 21 -2 7 -10 12 -18 12
-7 0 -15 9 -17 20 -7 35 -16 33 -69 -9z"/>
<path d="M3910 3745 c-10 -12 -10 -18 0 -30 7 -8 18 -15 25 -15 19 0 36 25 29
44 -8 20 -38 21 -54 1z"/>
<path d="M3966 3674 l-39 -27 32 -31 c18 -17 52 -62 76 -100 l45 -69 -25 -23
c-42 -39 -28 -81 24 -71 36 7 39 -1 11 -26 -24 -20 -25 -30 -5 -47 9 -7 26 -9
46 -5 32 7 32 7 15 -16 -25 -36 -21 -59 10 -59 35 0 78 33 94 70 10 24 17 29
36 24 20 -5 24 -1 30 33 24 125 102 198 282 257 80 27 112 51 112 86 0 13 -13
16 -72 15 -72 -1 -74 -1 -118 -44 -68 -65 -156 -119 -205 -127 -35 -5 -54 -1
-92 17 -26 12 -65 23 -86 23 -33 1 -45 7 -69 38 -17 20 -33 51 -37 69 -4 18
-11 34 -16 36 -6 2 -28 -9 -49 -23z"/>
<path d="M5550 3682 c0 -33 28 -55 124 -103 57 -28 135 -74 172 -103 101 -76
142 -97 200 -103 71 -8 119 11 149 55 14 21 34 49 46 63 20 25 20 27 3 70 -9
24 -22 50 -27 57 -16 20 -37 14 -37 -11 0 -13 -7 -32 -15 -43 -8 -10 -15 -33
-15 -50 0 -17 -6 -37 -13 -43 -18 -15 -52 24 -61 70 -4 24 -17 41 -41 57 -33
21 -36 21 -43 5 -4 -10 -7 -42 -6 -70 0 -29 -4 -53 -8 -53 -31 0 -83 38 -209
153 l-66 61 -77 0 c-56 1 -76 -2 -76 -12z"/>
<path d="M4742 3618 c-16 -16 -15 -37 3 -68 l13 -25 11 28 c14 36 14 39 -2 60
-10 14 -15 15 -25 5z"/>
<path d="M5490 3591 c0 -49 16 -61 32 -26 8 18 9 31 2 43 -20 32 -34 25 -34
-17z"/>
<path d="M6310 3584 c-6 -14 -10 -38 -10 -53 0 -15 -11 -49 -24 -74 -13 -26
-20 -47 -15 -47 11 0 109 118 109 131 0 18 -30 69 -41 69 -5 0 -14 -12 -19
-26z"/>
<path d="M5586 3525 c-15 -76 -120 -98 -206 -41 -43 28 -50 31 -50 16 0 -30
161 -107 283 -135 60 -13 139 -48 175 -77 9 -8 12 -6 12 5 0 21 -54 82 -91
104 -19 11 -34 33 -44 63 -9 26 -28 59 -44 74 l-29 27 -6 -36z"/>
<path d="M4636 3524 c-14 -15 -32 -47 -38 -71 -7 -30 -19 -50 -37 -61 -42 -25
-72 -55 -88 -85 -18 -36 -10 -46 20 -21 30 26 80 50 147 69 30 9 82 26 115 37
84 29 205 108 165 108 -7 0 -24 -8 -38 -19 -36 -25 -93 -40 -128 -34 -34 6
-74 40 -74 62 -1 37 -16 42 -44 15z"/>
<path d="M4929 3454 c-30 -34 -163 -97 -248 -119 -71 -18 -131 -45 -149 -68
-10 -12 -6 -14 29 -13 36 1 45 -4 71 -37 20 -24 38 -37 54 -37 22 0 24 3 18
38 -5 31 -2 41 18 58 29 26 219 127 226 119 10 -10 -32 -87 -65 -115 -40 -35
-50 -37 -78 -10 -20 19 -23 19 -35 4 -8 -8 -13 -34 -13 -56 1 -24 -7 -54 -18
-72 -10 -17 -19 -49 -19 -71 l0 -40 37 63 c25 42 61 83 109 122 81 67 119 131
127 213 4 43 3 47 -17 47 -13 0 -33 -12 -47 -26z"/>
<path d="M5268 3463 c-7 -30 17 -119 41 -151 12 -17 47 -53 79 -79 71 -60 101
-95 128 -146 13 -25 24 -36 28 -28 8 12 -10 77 -26 97 -4 7 -10 34 -12 62 -1
28 -8 57 -15 65 -10 13 -15 12 -36 -9 -13 -13 -28 -24 -34 -24 -31 0 -127 128
-109 146 4 3 59 -19 123 -51 121 -60 135 -74 121 -130 -6 -22 -3 -25 23 -25
22 0 34 8 49 34 20 34 65 52 99 39 16 -6 16 -5 4 11 -22 27 -78 52 -170 75
-103 26 -176 58 -223 100 -40 35 -65 40 -70 14z"/>
<path d="M5024 3404 c-23 -75 -61 -132 -135 -203 -97 -91 -156 -191 -90 -149
15 9 28 10 49 2 37 -14 86 -7 107 16 14 16 14 20 -1 46 -16 28 -16 31 11 84
32 64 63 110 74 110 4 0 14 -19 21 -42 48 -154 75 -174 115 -84 13 29 27 70
30 90 4 20 11 36 15 36 20 0 100 -133 100 -166 0 -10 -8 -26 -17 -37 -17 -18
-17 -20 6 -38 26 -21 68 -24 105 -8 20 10 30 9 51 -5 20 -13 25 -14 25 -3 0
26 -54 95 -128 163 -72 66 -122 142 -122 184 0 28 -11 25 -50 -15 -43 -45 -70
-44 -120 1 -35 32 -40 34 -46 18z"/>
<path d="M4272 3241 c-18 -11 -11 -61 11 -75 22 -14 51 3 55 33 6 40 -32 64
-66 42z"/>
<path d="M5671 3177 c-16 -16 -13 -54 6 -83 16 -26 13 -58 -12 -116 -10 -26
37 -24 92 3 49 23 83 77 83 129 0 29 -2 30 -44 30 -29 0 -55 8 -79 24 -25 17
-38 21 -46 13z m142 -73 c9 -10 -13 -60 -36 -82 -12 -11 -35 -24 -51 -28 l-30
-7 23 31 c12 17 27 45 32 62 8 21 17 30 33 30 13 0 25 -3 29 -6z"/>
<path d="M4570 3172 c0 -16 -60 -42 -98 -42 -31 0 -41 -4 -44 -17 -6 -26 11
-85 30 -107 24 -26 86 -56 118 -56 23 0 25 3 19 23 -14 43 -17 99 -6 110 19
19 11 97 -10 97 -5 0 -9 -4 -9 -8z m-63 -89 c4 -10 18 -35 31 -56 29 -44 24
-54 -17 -37 -39 16 -59 39 -67 78 -6 30 -4 32 20 32 16 0 29 -7 33 -17z"/>
<path d="M5022 3118 c-6 -18 -13 -50 -17 -70 -3 -21 -17 -51 -30 -67 -31 -36
-31 -41 -1 -41 35 0 61 39 75 110 12 59 8 100 -9 100 -5 0 -13 -15 -18 -32z"/>
<path d="M5206 3132 c-8 -24 19 -159 35 -178 11 -13 69 -20 69 -9 0 3 -9 18
-21 34 -11 15 -28 59 -37 96 -17 70 -35 92 -46 57z"/>
<path d="M4330 3125 c0 -8 7 -15 15 -15 8 0 15 7 15 15 0 8 -7 15 -15 15 -8 0
-15 -7 -15 -15z"/>
<path d="M5096 3018 c-4 -29 -18 -71 -31 -93 l-23 -41 44 -49 45 -49 46 47 45
46 -26 53 c-14 29 -28 70 -32 91 -3 20 -12 37 -19 37 -7 0 -20 2 -28 6 -11 4
-16 -7 -21 -48z"/>
<path d="M4861 2943 c-36 -24 -89 -30 -122 -13 -14 8 -19 7 -19 -3 0 -19 40
-54 71 -62 50 -12 115 39 107 84 -3 15 -6 15 -37 -6z"/>
<path d="M5364 2957 c-6 -18 12 -56 35 -74 25 -20 85 -15 115 8 36 28 35 52
-1 38 -35 -13 -84 -4 -117 22 -22 17 -27 18 -32 6z"/>
<path d="M1657 2605 c-130 -36 -196 -136 -184 -278 10 -111 49 -166 237 -327
138 -118 169 -166 169 -255 1 -148 -133 -242 -290 -205 -71 17 -136 80 -146
142 -6 38 -8 40 -14 18 -13 -45 -10 -157 4 -169 30 -24 141 -44 225 -38 200
12 324 145 310 332 -9 106 -55 176 -191 291 -231 194 -261 249 -207 370 16 37
28 49 72 69 123 58 266 11 294 -97 l12 -43 1 77 c1 42 3 83 6 90 4 10 -12 17
-65 26 -88 15 -171 14 -233 -3z"/>
<path d="M6506 2542 c-4 -11 -6 -227 -5 -481 l2 -461 -23 -25 c-12 -13 -34
-26 -49 -28 -14 -2 29 -3 95 -3 l122 1 -30 25 c-38 33 -44 80 -53 445 -3 154
-8 287 -10 295 -3 8 0 22 5 30 11 17 -6 33 161 -150 176 -193 631 -650 640
-644 5 3 9 218 9 478 0 440 1 474 18 489 9 9 27 20 39 24 14 5 -27 8 -102 8
-69 0 -113 -3 -99 -7 39 -10 62 -36 68 -76 3 -21 8 -129 11 -242 3 -113 8
-263 10 -335 3 -76 1 -136 -4 -145 -8 -12 -26 3 -88 70 -84 92 -612 650 -673
714 -35 35 -38 37 -44 18z"/>
<path d="M8552 2553 l-203 -3 28 -24 c27 -23 28 -29 33 -133 3 -59 5 -260 5
-446 l0 -339 -28 -24 -28 -24 243 0 c177 0 247 3 256 12 7 7 12 30 12 52 0 39
-1 40 -15 19 -22 -31 -76 -45 -173 -45 -104 1 -135 11 -150 49 -6 15 -13 112
-15 215 -5 152 -3 189 8 198 10 8 52 11 125 8 107 -3 113 -4 135 -30 23 -27
23 -27 29 -5 3 12 6 42 6 66 0 39 -2 42 -16 30 -23 -19 -258 -26 -279 -9 -12
10 -15 45 -15 196 0 216 -8 203 125 198 116 -5 144 -12 171 -41 21 -23 24 -24
24 -7 0 10 3 36 6 57 l7 37 -44 -2 c-24 -2 -135 -4 -247 -5z"/>
<path d="M5757 2537 c-6 -16 -50 -138 -213 -587 -116 -322 -133 -361 -166
-384 -66 -47 -146 5 -308 199 -83 100 -170 213 -170 220 0 3 22 32 48 64 71
84 96 142 100 228 4 63 1 77 -24 122 -33 62 -95 104 -174 120 -62 12 -440 12
-440 -1 0 -4 14 -8 30 -8 17 0 39 -9 50 -20 19 -19 20 -33 20 -449 0 -260 -4
-440 -10 -456 -5 -14 -24 -32 -42 -39 -29 -13 -17 -14 117 -13 109 1 139 4
111 10 -62 15 -67 32 -69 234 l-2 178 95 0 94 0 39 -50 c21 -27 71 -93 110
-145 94 -126 177 -207 220 -215 37 -7 51 -8 242 -6 120 1 128 2 107 17 -32 22
-28 59 26 224 l48 145 95 5 c51 3 123 3 158 0 l64 -5 27 -65 c74 -180 102
-262 98 -285 -6 -31 -2 -32 137 -33 90 -1 104 1 75 9 -78 23 -111 79 -225 374
-247 637 -253 651 -268 612z m-930 -67 c48 -21 96 -87 114 -155 17 -62 6 -175
-22 -231 -33 -67 -81 -94 -171 -94 -65 0 -115 13 -130 35 -11 15 -9 410 2 439
9 25 13 26 87 26 55 0 90 -6 120 -20z m1000 -301 c35 -95 61 -179 58 -186 -5
-15 -250 -19 -259 -4 -5 8 97 339 111 364 13 23 33 -14 90 -174z"/>
<path d="M7757 2539 c62 -18 63 -29 63 -504 1 -381 -4 -449 -32 -466 -22 -14
-5 -15 102 -10 68 4 97 9 83 14 -43 16 -46 49 -51 485 -4 446 -3 463 47 481
19 7 -10 9 -109 9 -100 0 -127 -2 -103 -9z"/>
<path d="M2685 2534 c-11 -2 -45 -9 -75 -15 -231 -46 -404 -287 -387 -539 16
-233 161 -415 365 -459 75 -16 207 -14 277 4 139 37 257 128 318 246 82 162
89 353 18 505 -51 110 -181 214 -301 242 -53 12 -187 22 -215 16z m206 -72
c110 -52 189 -155 224 -289 20 -75 20 -261 0 -336 -31 -120 -101 -208 -202
-254 -112 -52 -229 -47 -346 14 -128 68 -204 194 -227 377 -25 201 46 386 180
469 108 67 255 75 371 19z"/>
<path d="M3500 2510 c19 -5 43 -19 53 -31 17 -22 18 -48 15 -454 -3 -388 -5
-434 -20 -457 -10 -15 -30 -28 -45 -31 -29 -4 263 -11 332 -8 147 7 269 104
293 231 11 60 -7 147 -41 199 -29 44 -95 97 -139 113 -36 13 -35 22 7 74 106
129 98 267 -19 339 l-49 30 -211 2 c-134 1 -198 -1 -176 -7z m357 -46 c39 -28
72 -98 79 -170 6 -53 3 -69 -19 -118 -31 -67 -65 -86 -156 -86 -97 0 -91 -13
-91 194 0 132 3 186 13 195 19 20 140 10 174 -15z m19 -432 c58 -30 109 -93
133 -165 61 -178 -19 -312 -185 -309 -66 1 -137 28 -148 57 -9 24 -8 430 2
439 15 16 156 0 198 -22z"/>
</g>
</svg>
