<?xml version="1.0" standalone="no"?>
<!DOCTYPE svg PUBLIC "-//W3C//DTD SVG 20010904//EN"
 "http://www.w3.org/TR/2001/REC-SVG-20010904/DTD/svg10.dtd">
<svg version="1.0" xmlns="http://www.w3.org/2000/svg"
 width="943.000000pt" height="676.000000pt" viewBox="0 0 943.000000 676.000000"
 preserveAspectRatio="xMidYMid meet">
<metadata>
Created by potrace 1.16, written by Peter Selinger 2001-2019
</metadata>
<g transform="translate(0.000000,676.000000) scale(0.100000,-0.100000)"
fill="#000000" stroke="none">
<path d="M4732 6383 c-5 -10 -74 -168 -152 -351 -79 -183 -146 -330 -151 -325
-4 4 -44 97 -90 206 -45 109 -86 196 -91 195 -5 -2 -61 -122 -123 -268 -108
-249 -130 -290 -162 -290 -7 0 -13 -4 -13 -10 0 -6 37 -10 90 -10 50 0 90 4
90 9 0 5 -12 11 -26 13 -47 5 -51 28 -19 107 l28 72 111 -3 110 -3 25 -58 c28
-67 23 -86 -27 -102 -18 -5 -32 -15 -32 -22 0 -10 30 -13 130 -13 109 0 130 2
130 15 0 10 -10 15 -30 15 -37 0 -65 38 -57 78 3 16 22 63 41 105 l35 77 163
-2 162 -3 39 -96 c45 -110 45 -145 -1 -155 -50 -11 -56 -14 -45 -25 12 -12
323 -8 324 5 0 5 -17 15 -38 22 -63 22 -95 80 -73 135 l13 30 111 -3 111 -3
28 -73 c30 -78 26 -102 -14 -102 -11 0 -19 -4 -19 -10 0 -6 43 -10 110 -10 67
0 110 4 110 10 0 6 -8 10 -17 10 -36 0 -65 51 -170 301 -59 142 -112 258 -117
256 -5 -2 -47 -90 -93 -197 -45 -106 -84 -195 -86 -197 -2 -1 -69 152 -148
342 -79 190 -147 345 -151 345 -4 0 -11 -8 -16 -17z m118 -514 c0 -5 -63 -9
-140 -9 -77 0 -140 4 -140 8 0 4 25 66 56 138 31 71 62 145 71 164 l14 35 70
-164 c38 -90 69 -167 69 -172z m-574 -1 c24 -57 44 -104 44 -105 0 -2 -43 -3
-96 -3 -73 0 -95 3 -91 13 36 90 91 207 95 203 2 -3 24 -52 48 -108z m978 -1
l45 -107 -94 0 c-52 0 -95 2 -95 4 0 2 16 42 36 88 20 45 40 94 45 107 5 13
12 22 14 19 3 -2 25 -52 49 -111z"/>
<path d="M1393 4080 c-56 -13 -97 -44 -121 -90 -34 -66 -28 -163 15 -251 35
-70 116 -166 182 -214 22 -16 39 -33 38 -36 -1 -3 -63 -56 -137 -118 -464
-386 -747 -710 -906 -1036 -160 -329 -191 -654 -86 -904 79 -187 235 -330 422
-386 141 -42 338 -38 503 10 327 95 623 353 792 692 175 352 140 583 -88 583
-21 0 -72 -11 -113 -25 -196 -66 -334 -210 -445 -465 -34 -80 -99 -279 -99
-304 0 -6 20 24 44 66 78 136 149 230 246 328 134 134 224 178 295 144 116
-55 80 -271 -83 -491 -181 -243 -438 -408 -671 -429 -226 -21 -416 117 -462
334 -16 78 -6 281 21 407 51 241 164 504 313 727 131 196 276 371 513 617
l119 123 95 -32 c129 -43 243 -67 385 -81 162 -16 385 7 509 52 223 81 404
207 529 372 82 106 117 179 117 240 0 45 -4 54 -39 87 -55 52 -126 71 -296 77
-98 4 -177 0 -265 -11 -290 -38 -481 -118 -934 -388 l-199 -119 -39 38 c-49
48 -93 116 -108 169 -15 50 -2 99 35 134 32 30 101 38 143 16 40 -20 41 -10 6
55 -30 54 -84 96 -141 110 -43 10 -46 10 -90 -1z m1762 -94 c107 -45 77 -144
-95 -310 -251 -242 -551 -345 -914 -316 -168 14 -374 60 -361 80 3 6 62 51
130 102 278 209 541 345 788 409 181 47 385 63 452 35z"/>
<path d="M2681 2659 c-52 -48 -51 -116 2 -166 73 -70 197 -71 330 -5 69 35
202 130 193 139 -2 2 -27 -7 -57 -21 -109 -48 -230 -57 -298 -21 -14 7 -43 31
-63 54 -42 47 -72 52 -107 20z"/>
<path d="M7133 2235 c-29 -8 -74 -26 -101 -39 -44 -22 -209 -153 -289 -229
-18 -17 -35 -29 -37 -26 -3 2 38 69 90 149 l94 145 -105 3 -106 3 -77 -55
c-88 -61 -322 -206 -334 -206 -5 0 -5 24 -2 54 5 45 2 63 -19 110 -34 74 -69
90 -179 84 -66 -4 -91 -11 -160 -46 -243 -120 -514 -448 -579 -700 -24 -94
-24 -155 0 -208 36 -80 114 -114 215 -96 123 23 263 109 381 233 127 134 203
239 267 366 49 100 66 124 91 134 38 16 163 105 242 173 l59 51 -24 -40 c-13
-22 -58 -94 -101 -160 -239 -375 -461 -727 -465 -740 -5 -13 11 -15 105 -15
l111 0 98 150 c53 83 135 209 182 281 48 74 114 161 152 199 57 58 195 165
342 264 45 31 70 34 64 8 -3 -9 -72 -125 -153 -257 -274 -443 -298 -486 -303
-536 -5 -58 9 -84 54 -99 80 -27 217 29 367 149 48 39 87 68 87 65 0 -3 -27
-45 -59 -93 -97 -145 -100 -131 31 -131 l114 0 179 278 c214 330 260 382 459
521 261 182 263 178 58 -143 -82 -127 -186 -293 -231 -369 -77 -126 -84 -142
-85 -193 -1 -74 21 -94 105 -94 54 0 71 7 196 71 76 40 157 85 180 100 23 16
46 29 52 29 6 0 11 -19 11 -43 0 -91 65 -157 154 -157 64 0 175 30 261 71 133
62 355 249 296 249 -4 0 -41 -24 -82 -54 -177 -131 -377 -196 -410 -134 -14
27 -5 147 13 164 7 7 73 38 147 69 253 106 474 238 571 341 91 96 133 241 85
294 -38 42 -75 54 -160 53 -195 -1 -375 -91 -566 -282 -130 -131 -234 -295
-284 -449 l-17 -52 -126 -65 c-144 -73 -179 -84 -188 -61 -4 10 37 82 109 193
117 182 229 362 305 489 83 138 68 207 -49 229 -78 15 -179 -40 -374 -203 -60
-50 -111 -89 -113 -87 -2 2 39 69 92 149 l95 146 -117 0 -117 -1 -215 -344
-215 -344 -152 -106 c-84 -58 -163 -110 -177 -116 -25 -12 -56 -7 -56 9 0 5
35 60 77 123 120 177 250 383 325 513 85 149 90 205 24 258 -25 21 -44 21
-113 3z m1872 -81 c65 -65 -159 -342 -382 -472 -112 -65 -253 -133 -253 -122
0 59 212 344 358 481 120 113 231 158 277 113z m-2878 -32 c13 -8 36 -62 29
-69 -2 -3 -13 0 -24 6 -35 19 -87 13 -109 -11 -66 -73 -55 -144 29 -183 l47
-22 -55 -98 c-72 -130 -120 -191 -223 -281 -132 -115 -243 -161 -285 -118 -49
48 11 191 208 492 106 162 170 232 251 272 40 20 110 26 132 12z"/>
<path d="M2363 1903 c-378 -604 -374 -597 -352 -676 12 -44 33 -57 93 -57 98
0 228 71 371 202 30 28 55 48 55 45 0 -2 -6 -23 -14 -45 -31 -87 21 -174 111
-188 101 -15 214 46 372 199 51 51 88 81 81 67 -13 -25 -268 -429 -280 -443
-3 -4 -80 -14 -171 -22 -301 -28 -503 -72 -699 -152 -162 -67 -320 -171 -320
-212 0 -47 99 -86 295 -116 163 -24 316 -20 487 15 287 58 420 133 534 301
l49 71 200 -5 c129 -3 270 -14 395 -31 368 -48 971 -80 2050 -107 861 -21
1721 16 2340 102 480 66 836 168 1030 294 39 24 70 47 70 49 0 2 -31 -9 -69
-25 -298 -125 -991 -199 -2020 -215 -497 -8 -3063 13 -3331 27 -113 5 -296 13
-408 17 l-204 7 32 43 c26 36 666 1036 739 1155 l23 37 -120 0 -120 0 -12 -30
c-7 -16 -14 -30 -15 -30 -2 0 -18 14 -35 31 -30 31 -33 31 -105 27 -62 -4 -88
-12 -177 -56 -221 -108 -397 -279 -628 -608 -21 -30 -57 -68 -79 -85 -119 -86
-263 -179 -277 -179 -37 0 -3 60 388 673 87 137 158 251 158 253 0 2 -51 4
-113 4 l-113 0 -211 -337z m1117 232 c29 -35 -17 -130 -154 -312 -186 -248
-503 -525 -571 -500 -28 11 -14 76 35 162 65 112 261 370 353 463 157 160 296
237 337 187z m-750 -1244 c0 -16 -70 -99 -122 -145 -110 -97 -222 -132 -503
-158 -103 -9 -153 -9 -223 0 -95 13 -152 29 -152 42 0 12 155 104 225 133 125
52 362 110 520 126 110 11 255 13 255 2z"/>
<path d="M4255 2226 c-65 -20 -219 -104 -292 -158 -207 -155 -467 -492 -525
-682 -23 -78 -17 -123 27 -173 22 -26 29 -28 97 -27 56 0 89 7 143 29 60 25
87 45 189 144 l119 116 -42 -78 c-49 -94 -55 -152 -18 -183 55 -48 87 -54 157
-29 62 22 226 133 303 205 37 34 67 59 67 55 0 -4 -34 -62 -75 -130 -41 -67
-75 -125 -75 -129 0 -4 51 -5 113 -4 l112 3 133 200 c73 110 150 229 172 265
28 47 69 92 147 160 133 117 281 240 288 240 14 0 1 -60 -44 -200 -28 -85 -48
-156 -46 -158 2 -2 53 32 113 77 l109 80 39 128 c27 91 38 147 39 193 l0 65
-35 3 c-26 2 -50 -6 -93 -32 -54 -33 -86 -57 -264 -205 -76 -63 -74 -58 39
111 43 65 78 120 78 123 0 3 -55 4 -122 3 l-122 -3 -207 -335 -208 -335 -182
-122 c-176 -120 -229 -144 -229 -106 0 9 49 89 109 177 88 131 342 521 448
689 l23 37 -124 0 -124 0 -10 -30 -11 -30 -30 30 c-26 27 -36 30 -88 29 -32 0
-76 -6 -98 -13z m139 -92 c39 -39 -48 -189 -244 -420 -186 -220 -411 -402
-483 -392 -57 8 -19 100 128 308 243 347 522 581 599 504z"/>
</g>
</svg>
