<?xml version="1.0" encoding="UTF-8" standalone="no"?>
<svg
   xmlns:dc="http://purl.org/dc/elements/1.1/"
   xmlns:cc="http://creativecommons.org/ns#"
   xmlns:rdf="http://www.w3.org/1999/02/22-rdf-syntax-ns#"
   xmlns:svg="http://www.w3.org/2000/svg"
   xmlns="http://www.w3.org/2000/svg"
   viewBox="0 0 340.28 137.96001"
   height="137.96001"
   width="340.28"
   xml:space="preserve"
   id="svg2"
   version="1.1"><metadata
     id="metadata8"><rdf:RDF><cc:Work
         rdf:about=""><dc:format>image/svg+xml</dc:format><dc:type
           rdf:resource="http://purl.org/dc/dcmitype/StillImage" /></cc:Work></rdf:RDF></metadata><defs
     id="defs6" /><g
     transform="matrix(1.3333333,0,0,-1.3333333,0,137.96)"
     id="g10"><g
       transform="scale(0.1)"
       id="g12"><path
         id="path14"
         style="fill:#231f20;fill-opacity:1;fill-rule:nonzero;stroke:none"
         d="m 373.328,975.477 -8.156,22.449 -10.199,16.324 -14.285,12.24 -14.278,4.08 -16.316,2.05 -14.281,-4.08 -14.286,-8.17 -10.199,-10.2 -8.16,-18.369 -4.082,-18.363 2.043,-20.411 8.156,-20.41 10.203,-18.363 16.325,-18.367 16.316,-18.367 20.398,-16.325 -53.039,-44.894 -53.043,-46.942 -51,-51.015 L 128.523,665.281 85.6797,608.145 67.3203,579.574 48.9609,548.961 34.6797,518.348 22.4375,485.691 12.2344,453.047 4.07813,420.391 0,393.867 v -24.492 -24.492 l 4.07813,-24.485 4.08203,-22.449 6.11714,-22.449 20.4024,-40.812 28.5586,-34.7 18.3633,-14.273 18.3593,-12.246 20.3981,-10.207 22.446,-8.164 24.48,-4.082 26.52,-2.043 28.562,2.043 28.563,4.082 28.558,8.164 26.524,8.164 24.48,12.246 24.481,14.277 44.882,34.696 38.762,38.773 32.645,44.898 26.515,44.895 18.36,46.941 6.125,24.485 4.082,20.41 v 18.371 l -2.043,16.316 -4.082,12.246 -6.121,10.204 -10.203,8.164 -8.157,4.082 -12.242,4.078 h -12.234 l -26.528,-4.078 -28.558,-10.203 -28.563,-16.329 -14.285,-12.246 -12.234,-16.316 -14.281,-18.371 -14.286,-24.492 -14.281,-28.567 -12.234,-30.613 -10.199,-36.738 -10.204,-40.813 20.403,38.781 20.398,34.688 22.442,30.613 24.476,26.524 22.442,20.414 20.406,14.285 10.195,4.082 8.164,2.043 h 8.16 l 8.16,-2.043 10.2,-8.164 6.125,-12.246 2.039,-14.289 v -16.317 l -4.082,-18.371 -8.16,-20.406 -8.164,-20.41 -14.278,-22.446 -14.281,-22.449 -16.316,-20.41 -40.801,-38.769 -22.449,-16.329 -24.477,-14.289 -24.481,-12.246 -26.527,-8.164 -28.555,-4.082 -30.601,2.043 -28.563,10.203 -24.48,16.328 -20.402,22.454 -14.282,30.605 -6.117,18.367 -2.043,20.41 -2.039,22.446 2.039,24.492 4.082,34.695 8.16,34.688 8.161,32.656 12.242,32.644 26.519,61.227 34.68,59.184 38.766,55.097 44.882,53.063 46.918,53.058 48.965,51.02 38.762,-14.285 36.719,-10.207 34.679,-6.125 32.649,-4.075 h 30.594 l 28.566,2.036 26.516,6.121 26.527,6.125 30.598,10.207 26.519,12.246 26.524,14.285 24.484,16.324 22.433,18.364 20.403,20.41 18.363,22.445 16.317,24.488 8.167,16.328 2.04,18.368 -2.04,16.324 -8.167,16.329 -8.157,6.12 -8.16,8.16 -12.242,4.08 -12.238,4.08 -16.321,4.09 h -18.363 -20.402 l -22.438,-2.04 -46.922,-6.13 -42.84,-10.2 -40.8,-14.28 -38.766,-16.326 -40.801,-20.411 -42.843,-24.492 -46.918,-28.57 -53.047,-32.652 -14.278,14.289 -12.242,14.281 -8.164,14.289 -4.074,12.238 -4.078,12.246 v 10.207 l 2.035,8.164 4.082,8.165 10.199,10.203 16.32,4.078 16.325,-2.035 14.273,-10.207 v 0 z m 34.684,-130.602 65.285,51.012 34.683,22.449 38.758,22.445 38.766,20.41 40.801,18.368 42.84,14.285 44.882,10.206 30.602,4.08 h 24.476 l 18.368,-4.08 14.281,-8.167 6.117,-10.199 -2.039,-14.289 -6.121,-18.368 -16.32,-20.41 -28.563,-30.605 -30.598,-24.492 -32.644,-20.407 -30.602,-14.285 -32.64,-10.199 -30.602,-6.125 -30.601,-4.082 -28.563,-2.039 -26.515,2.039 -26.528,2.043 -20.398,4.082 -20.403,4.082 -14.281,4.074 -12.234,4.082 -8.164,2.043 -2.043,2.047 v 0 0" /><path
         id="path16"
         style="fill:#231f20;fill-opacity:1;fill-rule:nonzero;stroke:none"
         d="m 554.898,242.852 -8.16,-6.125 -8.16,-2.039 -2.039,2.039 -2.043,2.043 2.043,6.121 4.082,8.164 4.082,4.082 6.117,10.207 8.16,14.277 10.2,16.328 12.242,18.367 12.238,22.446 28.563,44.898 26.523,42.852 12.238,20.414 12.243,18.367 8.156,14.285 8.164,12.238 4.082,8.164 2.035,2.04 h -65.277 l -2.043,-2.04 -4.082,-8.164 -6.117,-10.207 -10.207,-16.316 -10.196,-16.328 -12.238,-20.41 -26.524,-42.852 -26.519,-42.859 -12.242,-18.364 -10.199,-18.367 -10.207,-16.328 -8.153,-12.246 -4.082,-6.121 -2.043,-4.074 -8.156,-16.328 -6.117,-18.371 -2.043,-12.247 4.078,-12.246 6.121,-8.164 10.199,-4.082 h 16.321 l 16.324,4.082 18.359,8.164 14.277,8.164 30.606,24.493 28.559,24.496 36.722,30.601 36.719,32.649 18.363,22.453 -150.969,-108.156 v 0 0" /><path
         id="path18"
         style="fill:#231f20;fill-opacity:1;fill-rule:nonzero;stroke:none"
         d="m 785.43,604.063 8.16,4.082 8.164,4.082 4.078,2.039 h 2.039 v 0 l -4.082,-4.082 -6.117,-6.121 -10.199,-8.165 -6.121,-6.125 -8.164,-6.121 -10.2,-6.125 -12.242,-8.156 -14.281,-6.125 -14.277,-4.082 -18.36,-2.039 -16.324,2.039 -18.359,8.164 -12.243,10.199 -8.156,14.289 v 16.329 l 6.117,12.242 10.2,6.121 10.203,2.043 6.117,-2.043 4.082,-4.082 6.121,-8.16 6.117,-6.121 10.203,-6.125 8.157,-2.04 10.207,-4.082 h 14.277 18.363 l 12.238,4.082 14.282,4.083 v 0 0" /><path
         id="path20"
         style="fill:#231f20;fill-opacity:1;fill-rule:nonzero;stroke:none"
         d="m 1305.64,502.02 h 65.3 l -57.13,-89.793 16.33,14.285 16.31,12.25 12.24,12.246 10.2,8.164 18.36,16.328 18.38,14.273 18.35,8.165 14.28,4.082 8.17,-2.04 4.06,-8.164 v -12.238 l -2.03,-16.324 -4.08,-16.328 -6.12,-18.371 -10.21,-38.77 -69.36,-48.984 6.11,18.371 6.14,14.285 4.08,12.246 4.08,10.203 6.11,18.36 6.12,18.371 2.05,8.164 -2.05,4.082 h -4.08 l -6.12,-4.082 -12.24,-10.203 -10.2,-8.168 -16.33,-14.278 -16.31,-12.246 -8.16,-8.164 -10.19,-10.203 -6.14,-4.082 -8.14,-8.164 -8.17,-8.164 -6.12,-6.121 -12.24,-16.328 -4.08,-6.125 -2.04,-2.032 -79.56,-128.574 h -65.29 l 189.72,304.071 v 0 0" /><path
         id="path22"
         style="fill:#231f20;fill-opacity:1;fill-rule:nonzero;stroke:none"
         d="m 2107.4,242.852 -10.19,-6.125 -6.12,-2.039 -2.05,2.039 -2.03,4.082 2.03,4.082 4.09,8.164 2.03,4.082 6.13,8.168 6.11,8.152 6.12,12.246 18.37,28.574 18.36,30.606 18.36,30.617 16.31,26.531 6.13,10.196 6.12,8.164 2.05,6.121 2.03,2.043 10.2,18.371 6.13,16.328 V 475.5 l -2.05,12.234 -6.12,8.164 -10.19,4.082 -16.33,2.04 -16.33,-4.082 -18.36,-8.165 -16.31,-10.195 -28.57,-22.449 -28.55,-24.492 -10.2,-10.207 -12.25,-10.203 55.08,89.793 h -65.27 L 1852.4,195.906 h 65.28 l 89.76,144.895 10.2,14.289 8.16,12.246 8.16,8.164 8.17,10.203 8.14,8.164 10.22,8.164 8.16,6.121 2.03,2.043 63.25,44.895 8.16,4.082 8.16,2.039 2.04,-4.082 -2.04,-4.082 -4.08,-8.164 -2.05,-4.082 -6.11,-8.164 -6.12,-10.207 -6.13,-12.235 -18.36,-28.574 -18.36,-30.613 -18.36,-30.61 -16.32,-26.531 -6.12,-10.207 -6.11,-8.16 -2.05,-6.125 -2.03,-2.031 -10.22,-16.328 -6.11,-18.371 v -12.247 l 2.05,-10.203 6.11,-10.207 10.2,-4.082 h 16.33 l 18.36,4.082 18.36,8.164 16.32,10.207 16.31,8.164 14.28,8.165 12.25,10.203 16.32,8.164 18.36,10.207 14.28,10.195 12.25,10.203 14.27,12.246 8.17,8.164 -128.54,-61.218 v 0 0" /><path
         id="path24"
         style="fill:#231f20;fill-opacity:1;fill-rule:nonzero;stroke:none"
         d="m 1834.04,242.852 -8.16,-4.082 -6.13,-2.043 -4.09,4.082 2.05,4.082 4.09,8.164 2.03,4.082 4.08,8.168 6.13,10.195 8.15,12.242 16.33,26.535 20.39,32.649 18.38,28.574 16.3,26.531 6.12,10.196 6.13,8.164 2.03,6.121 2.05,2.043 10.2,18.371 6.11,16.328 V 475.5 l -2.03,12.234 -6.13,8.164 -10.2,4.082 -16.31,2.04 -16.33,-4.082 -18.35,-8.165 -16.33,-10.195 -28.56,-22.449 -28.55,-24.492 -12.25,-10.207 -10.19,-10.203 55.07,89.793 h -65.29 L 1581.05,197.949 h 65.3 l 89.76,142.852 10.2,16.328 8.16,10.207 8.17,10.203 8.14,8.164 8.17,8.164 10.21,8.164 8.14,6.121 2.06,2.043 61.19,44.895 10.21,6.121 h 6.12 2.03 l 2.05,-4.082 -2.05,-4.082 -4.07,-8.164 -2.05,-4.082 -6.11,-8.164 -6.13,-8.164 -6.12,-12.246 -18.36,-28.567 -18.36,-30.613 -18.35,-30.606 -16.33,-26.535 -8.17,-10.203 -4.08,-8.164 -4.06,-6.121 -2.05,-2.043 -8.17,-18.359 -6.11,-16.328 -2.03,-12.247 4.06,-12.246 6.13,-8.164 10.2,-4.082 16.33,-2.043 16.31,4.082 18.36,8.164 14.29,10.207 30.59,22.45 28.57,24.496 36.72,32.644 34.69,30.606 20.39,22.453 -150.96,-108.156 v 0 0" /><path
         id="path26"
         style="fill:#231f20;fill-opacity:1;fill-rule:nonzero;stroke:none"
         d="m 1536.17,132.645 h -148.92 l -83.64,2.043 h -171.37 l -83.64,2.039 -77.522,2.043 -34.683,2.039 -34.68,2.043 -75.485,2.039 -75.484,2.043 -75.48,-2.043 -73.446,-8.164 -69.359,-10.196 -63.242,-18.367 -30.602,-12.246 -26.523,-14.2852 -24.481,-16.3281 -22.441,-18.3711 -6.117,-8.1641 2.039,-6.1132 4.078,-4.0821 10.199,-6.125 16.324,-6.1211 18.36,-6.125 L 430.453,6.125 452.895,2.04297 501.855,0 h 26.524 l 28.559,4.08203 51,10.20317 24.488,6.125 24.476,10.2031 22.446,14.2773 22.437,18.3711 20.403,22.4531 18.359,28.5702 h 40.805 42.836 l 51.007,-4.082 28.559,-4.078 28.559,-4.082 18.363,-2.043 22.437,-2.0391 26.528,-2.0429 30.599,-2.0391 32.64,-2.043 36.73,-2.039 40.8,-2.043 40.8,-2.0391 87.72,-4.082 91.81,-2.043 91.8,-4.082 87.71,-2.039 h 55.1 l 59.16,-2.043 61.19,2.043 h 65.3 l 134.64,6.121 134.63,12.2461 63.25,8.1641 63.24,8.164 57.13,12.246 55.07,12.235 48.97,16.328 40.8,16.332 36.72,20.41 14.3,10.191 12.22,12.246 -14.27,-8.164 -16.33,-6.121 -36.72,-12.234 -44.88,-10.207 -53.03,-10.203 -55.1,-8.168 -61.19,-6.121 -63.24,-4.082 -67.33,-4.082 -134.65,-4.082 -67.32,-2.043 h -65.27 -63.25 -59.16 -55.09 -48.97 v 0 z m -971.068,-95.9067 -44.883,-8.1641 -46.922,-2.0429 -40.801,2.0429 -18.359,4.0821 -16.324,4.082 -4.083,2.0312 -2.035,2.0391 2.035,2.043 2.04,2.039 34.683,18.3711 32.645,16.3281 32.64,12.2461 32.641,10.2071 34.684,6.121 34.679,4.082 36.723,2.039 40.801,2.043 -4.078,-8.164 -8.165,-10.2031 -8.16,-10.207 L 642.621,75.5078 626.305,63.2617 607.938,53.0547 587.543,42.8516 565.102,36.7383 v 0 0" /><path
         id="path28"
         style="fill:#231f20;fill-opacity:1;fill-rule:nonzero;stroke:none"
         d="m 1644.3,489.773 -16.31,8.165 -18.36,2.042 -22.44,-4.082 -24.49,-8.164 -24.48,-14.277 -26.52,-20.41 -26.52,-22.449 -24.48,-28.567 -22.44,-30.613 -18.36,-30.617 -14.27,-28.567 -8.17,-26.531 -4.08,-26.523 v -22.453 l 6.11,-16.329 10.2,-14.285 16.33,-8.164 18.36,-2.043 22.44,4.082 24.47,8.164 24.49,14.289 26.52,20.411 26.53,22.453 24.47,28.562 22.44,30.613 16.33,28.567 14.28,30.613 8.16,28.567 4.08,24.492 v 22.453 l -4.08,18.355 -10.21,12.246 v 0 z m -65.28,-159.175 -16.32,-22.446 -18.36,-20.41 -16.31,-16.324 -16.33,-12.238 -14.28,-10.207 -14.28,-6.121 -14.29,-2.043 -10.2,2.043 -6.11,6.121 v 10.207 l 2.03,12.238 4.08,18.367 10.2,20.41 10.21,22.442 14.28,22.453 14.28,24.488 16.33,22.453 14.27,18.36 14.28,16.328 12.25,12.246 12.22,10.207 10.22,6.121 10.19,4.07 8.17,2.055 14.27,-2.055 6.12,-10.191 2.05,-14.289 -2.05,-18.371 -6.12,-22.442 -12.24,-24.492 -12.23,-24.488 -16.33,-24.492 v 0 0" /><path
         id="path30"
         style="fill:#231f20;fill-opacity:1;fill-rule:nonzero;stroke:none"
         d="m 1093.48,242.852 -10.2,-4.082 -6.12,-2.043 h -2.04 l -2.04,4.082 2.04,4.082 4.08,8.164 4.08,6.125 4.08,10.195 10.2,12.246 10.21,16.328 10.19,20.41 14.28,20.403 28.56,44.898 26.52,42.852 12.25,20.414 12.24,18.367 8.15,14.285 8.17,12.238 4.08,8.164 2.04,2.04 h -65.29 v -2.04 l -4.07,-2.042 -4.09,-6.122 -4.08,-8.164 -6.11,10.203 -8.16,6.125 -8.17,2.04 h -8.15 l -20.41,-2.04 -22.44,-8.164 -24.48,-12.238 -24.48,-14.285 -24.48,-18.367 L 985.355,424.473 962.922,399.988 940.48,375.5 918.031,344.883 895.598,312.234 877.23,275.5 l -8.16,-16.32 -4.074,-18.371 2.035,-14.286 6.121,-14.289 10.203,-10.203 12.243,-4.082 h 16.316 l 16.324,2.039 18.36,8.164 20.398,12.246 16.324,12.247 16.321,16.328 18.359,18.371 14.28,16.316 -6.12,-10.203 -2.04,-4.082 v 0 l -10.2,-18.359 -6.12,-16.328 v -12.247 l 2.04,-12.246 6.12,-8.164 10.2,-4.082 16.32,-2.043 18.36,4.082 16.32,8.164 16.32,10.207 28.57,22.45 28.56,24.496 36.71,32.644 36.73,30.606 20.4,24.492 -150.97,-110.195 v 0 z m -163.207,-2.043 -2.035,2.043 v 6.121 l 4.075,12.25 8.167,18.355 12.235,20.41 12.242,18.371 12.238,18.36 10.203,14.289 4.082,4.082 2.04,2.039 12.24,14.289 14.28,20.406 18.36,20.403 20.4,20.41 20.4,20.41 20.41,14.289 18.35,10.191 h 8.17 8.15 l 4.08,-4.07 2.05,-4.094 v -6.109 l -2.05,-8.164 -8.15,-20.41 -14.29,-24.485 -18.36,-24.492 -16.32,-22.449 -18.36,-20.41 -12.24,-14.289 -8.16,-8.157 -12.24,-14.285 -18.36,-16.328 -18.36,-16.328 -18.364,-14.277 -18.359,-12.246 -14.277,-6.125 -6.125,-2.039 -6.122,2.039 v 0 0" /><path
         id="path32"
         style="fill:#231f20;fill-opacity:1;fill-rule:nonzero;stroke:none"
         d="m 911.914,502.02 v -2.04 l -2.039,-2.042 -4.078,-6.122 -4.082,-8.164 -6.117,10.203 -8.16,6.125 -8.165,2.04 h -8.16 l -20.398,-2.04 -22.445,-8.164 -24.481,-12.238 -24.476,-14.285 -24.485,-18.367 -24.48,-22.453 -22.442,-24.485 -22.441,-24.488 -22.442,-28.574 -22.441,-34.692 -10.195,-16.328 -8.164,-18.367 -6.118,-18.359 -4.085,-16.328 v -16.329 l 6.125,-12.246 10.199,-10.207 12.238,-6.121 h 16.32 l 16.325,4.082 18.359,8.164 20.402,12.246 14.282,12.247 18.359,14.285 16.324,18.371 16.317,16.316 -89.766,-144.89 16.324,-20.403 -12.242,-46.9412 40.801,36.7382 246.851,393.856 h -67.324 v 0 z M 795.629,328.555 787.473,320.398 775.23,308.152 758.91,291.824 740.547,275.5 l -20.402,-14.277 -16.317,-12.25 -16.324,-6.121 -6.121,-2.043 -4.078,2.043 -2.039,2.039 -2.039,6.125 4.078,12.246 8.16,18.359 12.238,20.41 12.242,18.367 12.243,18.364 10.199,14.285 4.078,4.082 2.043,2.043 12.238,14.285 14.281,18.367 18.364,20.403 20.398,20.41 20.399,20.41 20.402,14.289 18.363,10.191 h 8.16 8.16 l 4.082,-4.07 2.04,-4.094 v -6.109 l -2.04,-8.164 -8.16,-20.41 -14.281,-24.485 -18.359,-24.492 -16.325,-22.449 -18.359,-20.41 -12.242,-14.289 v 0 0" /><path
         id="path34"
         style="fill:#231f20;fill-opacity:1;fill-rule:nonzero;stroke:none"
         d="m 2464.41,483.652 -12.22,10.203 -16.33,6.125 -18.36,2.04 -22.44,-2.04 -16.33,-4.082 -18.36,-6.125 -18.36,-8.164 -18.36,-10.191 -20.39,-12.246 -18.38,-16.328 -18.36,-16.332 -18.36,-20.399 -24.47,-28.574 -18.36,-30.613 -16.33,-28.567 -10.19,-28.574 -6.11,-26.523 v -22.453 l 6.11,-18.368 10.19,-14.289 12.25,-8.164 14.28,-2.039 h 18.36 l 18.36,4.082 28.57,10.203 30.59,16.329 30.6,22.453 30.61,28.562 2.03,4.082 v 4.082 h -2.03 l -4.08,-2.039 -22.45,-14.285 -22.44,-14.281 -22.44,-12.246 -18.36,-8.164 -24.47,-6.122 h -20.41 l -4.08,2.04 v 6.125 l -2.03,16.328 2.03,16.32 4.08,8.16 2.03,6.125 36.74,14.285 32.64,14.289 30.6,14.278 26.52,14.289 24.48,16.328 22.44,16.328 18.36,16.324 16.33,16.328 8.14,12.239 6.13,10.207 6.12,10.203 2.05,10.207 v 18.355 l -6.14,14.289 v 0 z m -67.32,-73.457 -26.52,-28.574 -34.67,-26.531 -20.41,-14.289 -20.39,-12.246 -24.49,-12.239 -26.53,-14.285 16.33,30.606 18.36,30.617 18.36,24.488 6.13,10.207 6.12,8.164 14.27,18.36 14.28,14.289 14.28,14.285 14.29,10.207 12.23,10.203 10.2,6.121 10.21,4.074 h 6.11 l 12.25,-2.043 8.16,-8.152 v -8.164 l -2.05,-12.246 -6.11,-12.246 -6.13,-12.246 -8.15,-10.207 -6.13,-8.153 v 0 0" /><path
         id="path36"
         style="fill:#231f20;fill-opacity:1;fill-rule:nonzero;stroke:none"
         d="m 1609.63,453.047 -12.25,-2.039 -8.16,-8.164 -8.17,-8.164 -2.03,-12.25 2.03,-12.235 8.17,-10.207 8.16,-6.121 12.25,-2.043 12.23,2.043 10.21,6.121 6.11,10.207 2.05,12.235 -2.05,12.25 -6.11,8.164 -10.21,8.164 -12.23,2.039 v 0 z m 0,-46.934 -6.13,2.039 -4.07,2.043 -2.05,6.114 -2.03,6.121 2.03,6.125 2.05,4.082 4.07,2.043 6.13,2.039 6.11,-2.039 6.12,-2.043 2.05,-4.082 2.03,-6.125 -2.03,-6.121 -2.05,-6.114 -6.12,-2.043 -6.11,-2.039 v 0 0" /><path
         id="path38"
         style="fill:#231f20;fill-opacity:1;fill-rule:nonzero;stroke:none"
         d="m 1621.86,391.824 20.41,4.082 22.44,12.246 22.44,14.278 24.47,16.332 20.41,16.328 16.33,12.246 10.19,10.191 4.09,2.051 v 2.031 l 8.14,18.371 h -2.03 l -2.03,-4.082 -6.13,-4.082 -8.17,-4.082 -18.36,-14.277 -24.47,-16.328 -24.49,-14.285 -22.44,-14.289 -20.39,-8.164 -14.28,-4.082 -4.08,-6.114 -6.12,-6.125 -8.16,-4.082 -6.13,-4.082 -2.04,-2.039 v -2.043 h 6.12 6.13 8.15 v 0 0" /><path
         id="path40"
         style="fill:#231f20;fill-opacity:1;fill-rule:nonzero;stroke:none"
         d="m 2499.1,524.473 -16.33,4.082 -14.27,8.16 -8.17,14.285 -4.08,18.371 4.08,18.363 8.17,14.286 14.27,10.207 16.33,4.078 16.33,-4.078 12.23,-10.207 8.16,-14.286 4.08,-18.363 -4.08,-18.371 -8.16,-14.285 -12.23,-8.16 -16.33,-4.082 v 0 z m 0,-8.164 10.2,2.039 10.19,2.043 18.38,12.242 10.2,16.328 4.08,10.203 v 10.207 10.203 l -4.08,12.242 -10.2,16.329 -18.38,12.242 -10.19,2.039 -10.2,2.043 -10.19,-2.043 -10.22,-2.039 -18.36,-12.242 -10.19,-16.329 -2.03,-12.242 -2.06,-10.203 2.06,-10.207 2.03,-10.203 10.19,-16.328 18.36,-12.242 10.22,-2.043 10.19,-2.039 v 0 z m -26.52,81.629 h 4.08 l 4.08,-2.04 v -48.98 l -4.08,-2.039 h -4.08 v -2.043 h 26.52 v 2.043 h -4.08 l -2.03,2.039 V 551 567.328 h 4.06 l 6.13,-8.164 4.09,-8.164 4.08,-6.121 4.08,-2.043 h 12.23 v 2.043 l -6.12,4.082 -4.08,8.164 -10.19,12.246 10.19,6.121 2.03,10.199 -2.03,6.125 -2.03,4.082 -12.25,4.082 h -30.6 v -2.042 0 z m 20.41,-2.04 h 4.06 l 8.16,-2.043 2.06,-4.082 v -4.082 l -2.06,-10.199 -2.03,-4.082 h -6.13 -4.06 v 24.488 0 0" /></g></g></svg>