<?xml version="1.0" encoding="iso-8859-1"?>
<!-- Generator: Adobe Illustrator 26.0.1, SVG Export Plug-In . SVG Version: 6.00 Build 0)  -->
<svg version="1.1" id="Layer_1" xmlns="http://www.w3.org/2000/svg" xmlns:xlink="http://www.w3.org/1999/xlink" x="0px" y="0px"
	 viewBox="0 0 500 500" style="enable-background:new 0 0 500 500;" xml:space="preserve">
<g id="watermark_1_">
	<g>
		<g id="watermark" style="opacity:0.61;">
			<g>
				<g>
					<g>
						<g>
							<polygon style="fill:#FFFFFF;" points="213.765,461.172 208.204,474.017 205.268,474.017 199.726,461.172 202.938,461.172 
								206.846,470.347 210.81,461.172 							"/>
						</g>
						<g>
							<path style="fill:#FFFFFF;" d="M223.507,469.741h-7.469c0.275,1.23,1.321,1.982,2.826,1.982c1.046,0,1.798-0.312,2.477-0.954
								l1.523,1.651c-0.917,1.046-2.294,1.597-4.074,1.597c-3.413,0-5.634-2.147-5.634-5.083c0-2.954,2.257-5.083,5.267-5.083
								c2.899,0,5.138,1.945,5.138,5.12C223.562,469.191,223.526,469.503,223.507,469.741 M216.002,468.071h4.863
								c-0.202-1.248-1.138-2.055-2.422-2.055C217.139,466.016,216.204,466.805,216.002,468.071"/>
						</g>
						<g>
							<path style="fill:#FFFFFF;" d="M224.735,468.934c0-2.973,2.294-5.083,5.505-5.083c2.074,0,3.707,0.899,4.423,2.514
								l-2.22,1.193c-0.532-0.936-1.321-1.358-2.221-1.358c-1.45,0-2.587,1.009-2.587,2.734c0,1.725,1.138,2.734,2.587,2.734
								c0.899,0,1.688-0.404,2.221-1.358l2.22,1.211c-0.716,1.578-2.349,2.495-4.423,2.495
								C227.029,474.017,224.735,471.907,224.735,468.934"/>
						</g>
						<g>
							<path style="fill:#FFFFFF;" d="M242.828,473.393c-0.587,0.422-1.45,0.624-2.331,0.624c-2.33,0-3.688-1.193-3.688-3.542
								v-4.055h-1.523v-2.202h1.523v-2.404h2.863v2.404h2.459v2.202h-2.459v4.019c0,0.844,0.458,1.303,1.229,1.303
								c0.422,0,0.844-0.128,1.156-0.367L242.828,473.393z"/>
						</g>
					</g>
					<g>
						<path style="fill:#FFFFFF;" d="M262.474,463.997v2.643c-0.238-0.018-0.422-0.037-0.642-0.037
							c-1.578,0-2.624,0.862-2.624,2.753v4.661h-2.863v-9.873h2.734v1.303C259.776,464.493,260.951,463.997,262.474,463.997"/>
					</g>
					<g>
						<path style="fill:#FFFFFF;" d="M263.299,472.53l1.009-2.239c1.083,0.789,2.697,1.339,4.239,1.339
							c1.762,0,2.477-0.587,2.477-1.376c0-2.404-7.469-0.752-7.469-5.524c0-2.184,1.762-4,5.413-4c1.615,0,3.267,0.385,4.459,1.138
							l-0.918,2.257c-1.193-0.679-2.422-1.009-3.56-1.009c-1.761,0-2.44,0.66-2.44,1.468c0,2.367,7.468,0.734,7.468,5.45
							c0,2.147-1.78,3.982-5.45,3.982C266.492,474.017,264.437,473.411,263.299,472.53"/>
					</g>
					<g>
						<path style="fill:#FFFFFF;" d="M285.428,469.741h-7.469c0.275,1.23,1.321,1.982,2.826,1.982c1.046,0,1.798-0.312,2.477-0.954
							l1.523,1.651c-0.918,1.046-2.294,1.597-4.074,1.597c-3.413,0-5.634-2.147-5.634-5.083c0-2.954,2.257-5.083,5.267-5.083
							c2.9,0,5.138,1.945,5.138,5.12C285.484,469.191,285.447,469.503,285.428,469.741 M277.923,468.071h4.863
							c-0.202-1.248-1.138-2.055-2.422-2.055C279.061,466.016,278.125,466.805,277.923,468.071"/>
					</g>
					<g>
						<path style="fill:#FFFFFF;" d="M297.007,469.741h-7.469c0.275,1.23,1.321,1.982,2.826,1.982c1.046,0,1.798-0.312,2.477-0.954
							l1.523,1.651c-0.918,1.046-2.294,1.597-4.074,1.597c-3.413,0-5.634-2.147-5.634-5.083c0-2.954,2.257-5.083,5.267-5.083
							c2.899,0,5.138,1.945,5.138,5.12C297.062,469.191,297.025,469.503,297.007,469.741 M289.501,468.071h4.863
							c-0.202-1.248-1.138-2.055-2.422-2.055C290.639,466.016,289.703,466.805,289.501,468.071"/>
					</g>
					<g>
						<polygon style="fill:#FFFFFF;" points="303.208,470.145 301.831,471.503 301.831,474.017 298.969,474.017 298.969,460.401 
							301.831,460.401 301.831,468.108 306.016,464.144 309.429,464.144 305.318,468.328 309.796,474.017 306.327,474.017 						"/>
					</g>
					<g>
						<path style="fill:#FFFFFF;" d="M256.601,475.359L256.601,475.359l-2.86-2.86c-0.435,0.508-0.953,0.943-1.534,1.284
							c-0.092,0.069-0.186,0.136-0.283,0.199l3.027,3.027c0.456,0.456,1.195,0.456,1.65,0
							C257.057,476.554,257.057,475.815,256.601,475.359"/>
					</g>
					<g>
						<path style="fill:#FFFFFF;" d="M249.984,463.244c0.221-0.173,0.495-0.281,0.797-0.281c0.042,0,0.083,0.002,0.124,0.006
							c-0.214-0.156-0.478-0.249-0.764-0.249c-0.395,0-0.744,0.18-0.981,0.458c-0.051,0-0.1,0.006-0.151,0.008
							c0.039-0.077,0.064-0.162,0.064-0.255c0-0.234-0.143-0.434-0.346-0.519c0.087,0.126,0.138,0.279,0.138,0.445
							c0,0.122-0.031,0.237-0.081,0.341c-2.811,0.201-5.03,2.539-5.03,5.4c0,2.993,2.426,5.42,5.42,5.42
							c2.993,0,5.42-2.426,5.42-5.42C254.595,465.879,252.593,463.635,249.984,463.244 M247.983,464.656
							c0.435,0,0.844,0.112,1.199,0.309c0.374-0.245,0.82-0.387,1.299-0.387c0.711,0,1.348,0.312,1.784,0.806
							c-0.435-0.379-1.004-0.61-1.627-0.61c-0.449,0-0.87,0.12-1.234,0.329c-0.079,0.046-0.156,0.096-0.229,0.15
							c-0.065-0.048-0.133-0.093-0.204-0.134c-0.369-0.219-0.8-0.344-1.26-0.344c-0.3,0-0.588,0.054-0.854,0.152
							C247.196,464.754,247.578,464.656,247.983,464.656 M251.772,469.098c0.115,0.305,0.181,0.634,0.181,0.979
							c0,1.534-1.244,2.777-2.778,2.777c-1.534,0-2.777-1.243-2.777-2.777c0-0.345,0.066-0.674,0.181-0.979
							c-0.62-0.382-1.035-1.064-1.035-1.846c0-1.197,0.971-2.168,2.168-2.168c0.565,0,1.078,0.218,1.463,0.572
							c0.386-0.354,0.899-0.572,1.464-0.572c1.197,0,2.168,0.971,2.168,2.168C252.807,468.034,252.392,468.716,251.772,469.098"/>
					</g>
					<g>
						<path style="fill:#FFFFFF;" d="M251.666,467.061c0,0.497-0.404,0.901-0.901,0.901c-0.497,0-0.901-0.404-0.901-0.901
							s0.404-0.901,0.901-0.901c0.101,0,0.197,0.017,0.287,0.047c-0.03,0.062-0.045,0.132-0.045,0.204
							c0,0.273,0.221,0.494,0.494,0.494c0.05,0,0.099-0.008,0.146-0.022C251.66,466.941,251.666,467,251.666,467.061"/>
					</g>
					<g>
						<path style="fill:#FFFFFF;" d="M248.255,467.061c0,0.376-0.305,0.681-0.681,0.681c-0.376,0-0.681-0.305-0.681-0.681
							s0.305-0.681,0.681-0.681c0.076,0,0.149,0.013,0.217,0.035c-0.023,0.047-0.034,0.1-0.034,0.155
							c0,0.206,0.167,0.374,0.374,0.374c0.038,0,0.075-0.006,0.11-0.017C248.25,466.97,248.255,467.015,248.255,467.061"/>
					</g>
					<g>
						<g>
							<g>
								<rect x="242.908" y="467.83" style="fill:#FFFFFF;" width="0.616" height="0.616"/>
							</g>
							<g>
								<rect x="254.827" y="467.83" style="fill:#FFFFFF;" width="0.616" height="0.616"/>
							</g>
							<g>
								<path style="fill:#FFFFFF;" d="M255.205,468.082h-0.14c0-3.248-2.642-5.89-5.89-5.89c-3.248,0-5.89,2.642-5.89,5.89h-0.14
									c0-1.611,0.627-3.125,1.766-4.264c1.139-1.139,2.653-1.766,4.264-1.766c1.611,0,3.125,0.627,4.264,1.766
									C254.578,464.957,255.205,466.471,255.205,468.082"/>
							</g>
						</g>
						<g>
							<rect x="248.868" y="461.814" style="fill:#FFFFFF;" width="0.616" height="0.616"/>
						</g>
						<g>
							<rect x="244.95" y="462.052" style="fill:#FFFFFF;" width="8.45" height="0.14"/>
						</g>
						<g>
							<path style="fill:#FFFFFF;" d="M245.174,462.15c0,0.108-0.088,0.196-0.196,0.196c-0.108,0-0.196-0.088-0.196-0.196
								c0-0.108,0.088-0.196,0.196-0.196C245.086,461.954,245.174,462.042,245.174,462.15"/>
						</g>
						<g>
							<path style="fill:#FFFFFF;" d="M253.596,462.15c0,0.108-0.088,0.196-0.196,0.196c-0.108,0-0.196-0.088-0.196-0.196
								c0-0.108,0.088-0.196,0.196-0.196C253.509,461.954,253.596,462.042,253.596,462.15"/>
						</g>
					</g>
				</g>
				<g>
					<path style="fill:#FFFFFF;" d="M314.356,473.409c0,1.559-2.364,1.559-2.364,0C311.993,471.851,314.356,471.851,314.356,473.409
						z"/>
				</g>
				<g>
					<g>
						<g>
							<path style="fill:#FFFFFF;" d="M161.739,466.549l1.772,6.088l1.855-6.088h2.215l-2.823,8.14h-2.33l-0.837-2.396l-0.722-2.708
								l-0.722,2.708l-0.837,2.396h-2.33l-2.839-8.14h2.231l1.855,6.088l1.756-6.088H161.739z"/>
						</g>
						<g>
							<path style="fill:#FFFFFF;" d="M176.713,466.549l1.772,6.088l1.855-6.088h2.215l-2.823,8.14h-2.33l-0.837-2.396l-0.722-2.708
								l-0.722,2.708l-0.837,2.396h-2.33l-2.839-8.14h2.231l1.855,6.088l1.756-6.088H176.713z"/>
						</g>
						<g>
							<path style="fill:#FFFFFF;" d="M191.687,466.549l1.772,6.088l1.855-6.088h2.215l-2.823,8.14h-2.33l-0.837-2.396l-0.722-2.708
								l-0.722,2.708l-0.837,2.396h-2.33l-2.839-8.14h2.231l1.855,6.088l1.756-6.088H191.687z"/>
						</g>
					</g>
					<g>
						<path style="fill:#FFFFFF;" d="M200.908,473.52c0,1.559-2.364,1.559-2.364,0C198.545,471.962,200.908,471.962,200.908,473.52z
							"/>
					</g>
					<g>
						<path style="fill:#FFFFFF;" d="M322.71,473.409c-0.935,0.919-1.919,1.28-3.117,1.28c-2.346,0-4.3-1.411-4.3-4.282
							s1.953-4.284,4.3-4.284c1.149,0,2.035,0.329,2.921,1.199l-1.264,1.329c-0.476-0.428-1.066-0.64-1.623-0.64
							c-1.346,0-2.33,0.985-2.33,2.396c0,1.542,1.05,2.362,2.297,2.362c0.64,0,1.28-0.18,1.772-0.672L322.71,473.409z"/>
					</g>
					<g>
						<path style="fill:#FFFFFF;" d="M331.805,470.472c0,2.33-1.591,4.217-4.217,4.217c-2.626,0-4.201-1.887-4.201-4.217
							c0-2.314,1.609-4.217,4.185-4.217C330.149,466.255,331.805,468.158,331.805,470.472z M325.389,470.472
							c0,1.231,0.739,2.38,2.199,2.38c1.46,0,2.199-1.149,2.199-2.38c0-1.215-0.854-2.396-2.199-2.396
							C326.144,468.077,325.389,469.258,325.389,470.472z"/>
					</g>
					<g>
						<path style="fill:#FFFFFF;" d="M338.572,474.689v-4.332c0-1.068-0.559-2.035-1.658-2.035c-1.082,0-1.722,0.967-1.722,2.035
							v4.332h-2.003v-8.107h1.855l0.148,0.985c0.426-0.82,1.362-1.116,2.133-1.116c0.969,0,1.937,0.394,2.396,1.51
							c0.723-1.149,1.658-1.478,2.708-1.478c2.297,0,3.43,1.412,3.43,3.84v4.365h-2.003v-4.365c0-1.066-0.442-1.97-1.526-1.97
							c-1.082,0-1.756,0.935-1.756,2.003v4.332H338.572z"/>
					</g>
				</g>
			</g>
		</g>
		<g style="opacity:0.61;">
			<g>
				<g>
					<path style="fill:#FFFFFF;" d="M345.988,431.299c-0.006-1.224-0.959-2.121-2.189-2.14c-0.924-0.014-0.832,0.12-0.834-0.867
						c-0.003-1.097-0.007-2.194,0.003-3.292c0.003-0.379-0.112-0.691-0.362-0.976c-2.342-2.668-4.678-5.342-7.019-8.011
						c-0.12-0.137-0.275-0.244-0.414-0.366c-6.214,0-12.427,0-18.641,0c-0.794,0.293-1.14,0.868-1.138,1.709
						c0.01,3.748,0.004,7.496,0.004,11.243c0,0.556-0.003,0.589-0.55,0.551c-1.497-0.102-2.516,0.986-2.497,2.492
						c0.044,3.476,0.013,6.953,0.014,10.429c0.001,1.58,0.867,2.443,2.45,2.449c0.582,0.002,0.582,0.002,0.582,0.6
						c0,2.219-0.001,4.438,0.001,6.657c0.001,1.192,0.58,1.771,1.768,1.771c8.013,0.001,16.027,0.001,24.04,0
						c1.168,0,1.755-0.583,1.757-1.745c0.002-2.256,0-4.512,0.001-6.768c0-0.512,0.002-0.511,0.52-0.515
						c0.271-0.002,0.541,0.008,0.809-0.058c0.996-0.246,1.69-1.044,1.694-2.069C346.003,438.696,346.005,434.997,345.988,431.299z
						 M317.537,417.162c5.337,0,10.674,0,16.01,0c0.548,0,0.554,0.007,0.554,0.561c0.001,2.243-0.001,4.486,0.001,6.73
						c0.001,0.811,0.249,1.059,1.06,1.059c1.91,0.001,3.821,0,5.731,0.001c0.458,0,0.479,0.021,0.481,0.483
						c0.003,0.887,0.002,1.775,0,2.662c-0.001,0.477-0.024,0.498-0.504,0.499c-3.895,0.001-7.79,0-11.684,0
						c-3.882,0-7.765,0-11.647,0c-0.55,0-0.552-0.001-0.552-0.561c-0.001-3.624-0.001-7.247,0-10.871
						C316.987,417.166,316.991,417.162,317.537,417.162z M340.822,451.579c-3.883,0.001-7.766,0-11.65,0c-3.871,0-7.742,0-11.613,0
						c-0.572,0-0.574-0.002-0.574-0.579c-0.001-1.997-0.001-3.994,0.001-5.991c0-0.464,0.023-0.486,0.478-0.487
						c7.803-0.001,15.607-0.001,23.41,0c0.478,0,0.499,0.02,0.499,0.503c0.002,1.997,0.001,3.994,0,5.991
						C341.375,451.574,341.37,451.579,340.822,451.579z"/>
				</g>
				<g>
					<g>
						<rect x="327.418" y="417.053" style="fill:#FFFFFF;" width="1.757" height="1.054"/>
					</g>
					<g>
						<rect x="325.662" y="418.107" style="fill:#FFFFFF;" width="1.757" height="1.054"/>
					</g>
					<g>
						<rect x="327.418" y="419.161" style="fill:#FFFFFF;" width="1.757" height="1.054"/>
					</g>
					<g>
						<rect x="325.662" y="420.215" style="fill:#FFFFFF;" width="1.757" height="1.054"/>
					</g>
					<g>
						<rect x="327.418" y="421.269" style="fill:#FFFFFF;" width="1.757" height="1.054"/>
					</g>
					<g>
						<rect x="325.662" y="422.323" style="fill:#FFFFFF;" width="1.757" height="1.054"/>
					</g>
					<g>
						<rect x="327.418" y="423.378" style="fill:#FFFFFF;" width="1.757" height="1.054"/>
					</g>
					<g>
						<rect x="325.662" y="424.432" style="fill:#FFFFFF;" width="1.757" height="1.054"/>
					</g>
					<g>
						<rect x="327.418" y="425.486" style="fill:#FFFFFF;" width="1.757" height="1.054"/>
					</g>
					<g>
						<rect x="325.662" y="426.54" style="fill:#FFFFFF;" width="1.757" height="1.054"/>
					</g>
					<g>
						<rect x="327.418" y="427.594" style="fill:#FFFFFF;" width="1.757" height="1.054"/>
					</g>
					<g>
						<rect x="325.662" y="428.648" style="fill:#FFFFFF;" width="1.757" height="1.054"/>
					</g>
				</g>
			</g>
			<g>
				<path style="fill:#FFFFFF;" d="M187.637,431.299c-0.006-1.224-0.959-2.121-2.189-2.14c-0.924-0.014-0.832,0.12-0.834-0.867
					c-0.003-1.097-0.007-2.194,0.003-3.292c0.003-0.379-0.112-0.691-0.362-0.976c-2.342-2.668-4.678-5.342-7.019-8.011
					c-0.12-0.137-0.275-0.244-0.414-0.366c-6.214,0-12.427,0-18.641,0c-0.794,0.293-1.14,0.868-1.138,1.709
					c0.01,3.748,0.004,7.496,0.004,11.243c0,0.556-0.003,0.589-0.55,0.551c-1.497-0.102-2.516,0.986-2.497,2.492
					c0.044,3.476,0.013,6.953,0.014,10.429c0.001,1.58,0.867,2.443,2.45,2.449c0.582,0.002,0.582,0.002,0.582,0.6
					c0,2.219-0.001,4.438,0.001,6.657c0.001,1.192,0.58,1.771,1.768,1.771c8.013,0.001,16.027,0.001,24.04,0
					c1.168,0,1.755-0.583,1.757-1.745c0.002-2.256,0-4.512,0.001-6.768c0-0.512,0.002-0.511,0.52-0.515
					c0.271-0.002,0.541,0.008,0.809-0.058c0.996-0.246,1.69-1.044,1.694-2.069C187.652,438.696,187.655,434.997,187.637,431.299z
					 M159.187,417.162c5.337,0,10.674,0,16.01,0c0.548,0,0.554,0.007,0.554,0.561c0.001,2.243-0.001,4.486,0.001,6.73
					c0.001,0.811,0.249,1.059,1.06,1.059c1.91,0.001,3.821,0,5.731,0.001c0.458,0,0.479,0.021,0.481,0.483
					c0.003,0.887,0.002,1.775,0,2.662c-0.001,0.477-0.024,0.498-0.504,0.499c-3.895,0.001-7.79,0-11.684,0
					c-3.882,0-7.765,0-11.647,0c-0.55,0-0.552-0.001-0.552-0.561c-0.001-3.624-0.001-7.247,0-10.871
					C158.636,417.166,158.64,417.162,159.187,417.162z M182.472,451.579c-3.883,0.001-7.766,0-11.65,0c-3.871,0-7.742,0-11.613,0
					c-0.572,0-0.574-0.002-0.574-0.579c-0.001-1.997-0.001-3.994,0.001-5.991c0-0.464,0.023-0.486,0.478-0.487
					c7.803-0.001,15.607-0.001,23.41,0c0.478,0,0.499,0.02,0.499,0.503c0.002,1.997,0.001,3.994,0,5.991
					C183.024,451.574,183.019,451.579,182.472,451.579z"/>
			</g>
			<g>
				<path style="fill:#FFFFFF;" d="M159.779,440.669v-7.897h2.779c0.375,0,0.726,0.061,1.053,0.182
					c0.327,0.121,0.612,0.292,0.855,0.513c0.242,0.221,0.434,0.483,0.573,0.789c0.14,0.305,0.21,0.642,0.21,1.009
					c0,0.375-0.07,0.715-0.21,1.02c-0.14,0.305-0.331,0.568-0.573,0.789c-0.243,0.221-0.528,0.392-0.855,0.513
					c-0.327,0.121-0.678,0.182-1.053,0.182h-1.29v2.901H159.779z M162.58,436.356c0.39,0,0.684-0.111,0.882-0.331
					c0.199-0.22,0.298-0.474,0.298-0.761c0-0.14-0.024-0.276-0.072-0.408c-0.048-0.132-0.121-0.248-0.221-0.347
					c-0.099-0.099-0.223-0.178-0.37-0.237c-0.147-0.059-0.32-0.089-0.518-0.089h-1.312v2.173H162.58z"/>
				<path style="fill:#FFFFFF;" d="M166.308,432.771h1.731l3.177,5.294h0.088l-0.088-1.522v-3.772h1.478v7.897h-1.566l-3.353-5.592
					h-0.088l0.088,1.522v4.07h-1.467V432.771z"/>
				<path style="fill:#FFFFFF;" d="M177.922,436.334h3.872c0.022,0.089,0.04,0.195,0.055,0.32c0.014,0.125,0.022,0.25,0.022,0.375
					c0,0.507-0.077,0.985-0.231,1.434c-0.154,0.449-0.397,0.849-0.728,1.202c-0.353,0.375-0.776,0.666-1.268,0.871
					c-0.493,0.206-1.055,0.309-1.688,0.309c-0.574,0-1.114-0.103-1.622-0.309c-0.507-0.206-0.948-0.492-1.323-0.86
					c-0.375-0.367-0.673-0.803-0.894-1.307c-0.221-0.504-0.331-1.053-0.331-1.649c0-0.595,0.11-1.145,0.331-1.649
					c0.221-0.504,0.518-0.939,0.894-1.307c0.375-0.367,0.816-0.654,1.323-0.86c0.507-0.206,1.048-0.309,1.622-0.309
					c0.64,0,1.211,0.11,1.715,0.331c0.504,0.221,0.935,0.526,1.296,0.915l-1.025,1.004c-0.258-0.272-0.544-0.48-0.861-0.623
					c-0.316-0.143-0.695-0.215-1.136-0.215c-0.361,0-0.703,0.065-1.026,0.193c-0.324,0.129-0.607,0.311-0.85,0.546
					c-0.242,0.235-0.436,0.52-0.579,0.855c-0.143,0.335-0.215,0.708-0.215,1.119c0,0.412,0.072,0.785,0.215,1.12
					c0.143,0.335,0.338,0.62,0.584,0.855c0.246,0.235,0.531,0.418,0.855,0.546c0.323,0.129,0.669,0.193,1.037,0.193
					c0.419,0,0.773-0.061,1.064-0.182c0.29-0.121,0.538-0.278,0.744-0.469c0.148-0.132,0.275-0.3,0.381-0.502
					c0.106-0.202,0.189-0.428,0.248-0.678h-2.482V436.334z"/>
			</g>
			<g>
				<path style="fill:#FFFFFF;" d="M224.019,431.299c-0.006-1.224-0.959-2.121-2.189-2.14c-0.924-0.014-0.832,0.12-0.834-0.867
					c-0.003-1.097-0.007-2.194,0.003-3.292c0.003-0.379-0.112-0.691-0.362-0.976c-2.342-2.668-4.678-5.342-7.019-8.011
					c-0.12-0.137-0.275-0.244-0.414-0.366c-6.214,0-12.427,0-18.641,0c-0.794,0.293-1.14,0.868-1.138,1.709
					c0.01,3.748,0.004,7.496,0.004,11.243c0,0.556-0.003,0.589-0.55,0.551c-1.497-0.102-2.516,0.986-2.497,2.492
					c0.044,3.476,0.013,6.953,0.014,10.429c0.001,1.58,0.867,2.443,2.45,2.449c0.582,0.002,0.582,0.002,0.582,0.6
					c0,2.219-0.001,4.438,0.001,6.657c0.001,1.192,0.58,1.771,1.768,1.771c8.013,0.001,16.027,0.001,24.04,0
					c1.168,0,1.755-0.583,1.757-1.745c0.002-2.256,0-4.512,0.001-6.768c0-0.512,0.002-0.511,0.52-0.515
					c0.271-0.002,0.541,0.008,0.809-0.058c0.997-0.246,1.69-1.044,1.694-2.069C224.034,438.696,224.036,434.997,224.019,431.299z
					 M195.568,417.162c5.337,0,10.674,0,16.01,0c0.548,0,0.554,0.007,0.554,0.561c0.001,2.243-0.001,4.486,0.001,6.73
					c0.001,0.811,0.249,1.059,1.06,1.059c1.91,0.001,3.821,0,5.731,0.001c0.458,0,0.479,0.021,0.481,0.483
					c0.003,0.887,0.002,1.775,0,2.662c-0.001,0.477-0.024,0.498-0.504,0.499c-3.895,0.001-7.79,0-11.684,0
					c-3.882,0-7.765,0-11.647,0c-0.55,0-0.552-0.001-0.552-0.561c-0.001-3.624-0.001-7.247,0-10.871
					C195.018,417.166,195.022,417.162,195.568,417.162z M218.854,451.579c-3.883,0.001-7.766,0-11.65,0c-3.871,0-7.742,0-11.613,0
					c-0.572,0-0.574-0.002-0.574-0.579c-0.001-1.997-0.001-3.994,0.001-5.991c0-0.464,0.023-0.486,0.478-0.487
					c7.803-0.001,15.607-0.001,23.41,0c0.478,0,0.499,0.02,0.499,0.503c0.002,1.997,0.001,3.994,0,5.991
					C219.406,451.574,219.401,451.579,218.854,451.579z"/>
			</g>
			<g>
				<path style="fill:#FFFFFF;" d="M205.111,432.771h1.699l2.967,7.897h-1.644l-0.651-1.886h-3.044l-0.651,1.886h-1.643
					L205.111,432.771z M206.997,437.415l-0.706-1.974l-0.287-0.96h-0.088l-0.287,0.96l-0.706,1.974H206.997z"/>
				<path style="fill:#FFFFFF;" d="M211.331,434.536c-0.125,0-0.245-0.024-0.359-0.072c-0.114-0.048-0.213-0.114-0.298-0.199
					c-0.084-0.084-0.151-0.182-0.198-0.292c-0.048-0.11-0.072-0.232-0.072-0.364s0.024-0.254,0.072-0.364
					c0.048-0.11,0.114-0.208,0.198-0.292c0.084-0.084,0.184-0.151,0.298-0.198c0.114-0.048,0.233-0.072,0.359-0.072
					c0.257,0,0.478,0.09,0.662,0.27c0.184,0.181,0.276,0.399,0.276,0.656s-0.092,0.476-0.276,0.656
					C211.809,434.446,211.589,434.536,211.331,434.536z M210.615,440.669v-5.404h1.445v5.404H210.615z"/>
			</g>
			<g>
				<path style="fill:#FFFFFF;" d="M261.044,431.299c-0.006-1.224-0.959-2.121-2.189-2.14c-0.924-0.014-0.832,0.12-0.834-0.867
					c-0.003-1.097-0.007-2.194,0.003-3.292c0.003-0.379-0.112-0.691-0.362-0.976c-2.342-2.668-4.678-5.342-7.019-8.011
					c-0.12-0.137-0.275-0.244-0.414-0.366c-6.214,0-12.427,0-18.641,0c-0.794,0.293-1.14,0.868-1.138,1.709
					c0.01,3.748,0.004,7.496,0.004,11.243c0,0.556-0.003,0.589-0.55,0.551c-1.497-0.102-2.516,0.986-2.497,2.492
					c0.044,3.476,0.013,6.953,0.014,10.429c0.001,1.58,0.867,2.443,2.45,2.449c0.582,0.002,0.582,0.002,0.582,0.6
					c0,2.219-0.001,4.438,0.001,6.657c0.001,1.192,0.58,1.771,1.768,1.771c8.013,0.001,16.027,0.001,24.04,0
					c1.168,0,1.755-0.583,1.757-1.745c0.002-2.256,0-4.512,0.001-6.768c0-0.512,0.002-0.511,0.52-0.515
					c0.271-0.002,0.541,0.008,0.809-0.058c0.996-0.246,1.69-1.044,1.694-2.069C261.059,438.696,261.061,434.997,261.044,431.299z
					 M232.593,417.162c5.337,0,10.674,0,16.01,0c0.548,0,0.554,0.007,0.554,0.561c0.001,2.243-0.001,4.486,0.001,6.73
					c0.001,0.811,0.249,1.059,1.06,1.059c1.91,0.001,3.821,0,5.731,0.001c0.458,0,0.479,0.021,0.481,0.483
					c0.003,0.887,0.002,1.775,0,2.662c-0.001,0.477-0.024,0.498-0.504,0.499c-3.895,0.001-7.79,0-11.684,0
					c-3.882,0-7.765,0-11.647,0c-0.55,0-0.552-0.001-0.552-0.561c-0.001-3.624-0.001-7.247,0-10.871
					C232.042,417.166,232.047,417.162,232.593,417.162z M255.878,451.579c-3.883,0.001-7.766,0-11.65,0c-3.871,0-7.742,0-11.613,0
					c-0.572,0-0.574-0.002-0.574-0.579c-0.001-1.997-0.001-3.994,0.001-5.991c0-0.464,0.023-0.486,0.478-0.487
					c7.803-0.001,15.607-0.001,23.41,0c0.478,0,0.499,0.02,0.499,0.503c0.002,1.997,0.001,3.994,0,5.991
					C256.431,451.574,256.426,451.579,255.878,451.579z"/>
			</g>
			<g>
				<path style="fill:#FFFFFF;" d="M236.361,440.845c-0.338,0-0.662-0.048-0.971-0.143c-0.309-0.095-0.592-0.239-0.849-0.43
					c-0.257-0.191-0.481-0.425-0.673-0.7c-0.191-0.276-0.342-0.597-0.452-0.965l1.401-0.551c0.103,0.397,0.283,0.726,0.54,0.987
					c0.257,0.261,0.596,0.392,1.015,0.392c0.154,0,0.303-0.02,0.447-0.061c0.143-0.04,0.272-0.099,0.386-0.176
					s0.204-0.175,0.27-0.292c0.066-0.118,0.099-0.254,0.099-0.408c0-0.147-0.026-0.279-0.077-0.397
					c-0.051-0.117-0.138-0.227-0.259-0.331c-0.121-0.103-0.28-0.202-0.475-0.298c-0.195-0.095-0.435-0.195-0.722-0.298l-0.485-0.176
					c-0.213-0.073-0.429-0.173-0.645-0.298c-0.217-0.125-0.413-0.276-0.59-0.452c-0.177-0.176-0.322-0.384-0.436-0.623
					c-0.114-0.239-0.171-0.509-0.171-0.81c0-0.309,0.06-0.597,0.182-0.866c0.121-0.268,0.294-0.503,0.518-0.706
					c0.224-0.202,0.492-0.36,0.805-0.474s0.66-0.171,1.042-0.171c0.397,0,0.74,0.053,1.031,0.16
					c0.291,0.107,0.537,0.243,0.739,0.408c0.202,0.165,0.366,0.348,0.491,0.546c0.125,0.199,0.217,0.386,0.276,0.563l-1.312,0.551
					c-0.074-0.221-0.208-0.419-0.402-0.596c-0.195-0.176-0.462-0.265-0.8-0.265c-0.324,0-0.592,0.075-0.805,0.226
					c-0.213,0.151-0.32,0.348-0.32,0.59c0,0.235,0.103,0.436,0.309,0.601c0.206,0.165,0.533,0.325,0.982,0.48l0.497,0.165
					c0.316,0.111,0.605,0.237,0.866,0.381c0.261,0.143,0.485,0.314,0.673,0.513c0.187,0.199,0.331,0.425,0.43,0.678
					c0.1,0.254,0.149,0.546,0.149,0.877c0,0.412-0.083,0.767-0.248,1.064c-0.165,0.298-0.377,0.542-0.634,0.734
					c-0.258,0.191-0.548,0.335-0.872,0.43C236.986,440.797,236.67,440.845,236.361,440.845z"/>
				<path style="fill:#FFFFFF;" d="M239.516,432.771h1.61l1.633,4.754l0.287,1.015h0.088l0.309-1.015l1.699-4.754h1.61l-2.879,7.897
					h-1.566L239.516,432.771z"/>
				<path style="fill:#FFFFFF;" d="M251.097,436.334h3.871c0.022,0.089,0.04,0.195,0.055,0.32c0.015,0.125,0.023,0.25,0.023,0.375
					c0,0.507-0.078,0.985-0.232,1.434c-0.154,0.449-0.397,0.849-0.728,1.202c-0.353,0.375-0.775,0.666-1.268,0.871
					c-0.493,0.206-1.055,0.309-1.688,0.309c-0.574,0-1.114-0.103-1.621-0.309c-0.507-0.206-0.949-0.492-1.324-0.86
					c-0.375-0.367-0.673-0.803-0.894-1.307c-0.22-0.504-0.331-1.053-0.331-1.649c0-0.595,0.11-1.145,0.331-1.649
					c0.221-0.504,0.518-0.939,0.894-1.307c0.375-0.367,0.816-0.654,1.324-0.86c0.507-0.206,1.047-0.309,1.621-0.309
					c0.64,0,1.211,0.11,1.715,0.331c0.504,0.221,0.936,0.526,1.296,0.915l-1.026,1.004c-0.257-0.272-0.544-0.48-0.861-0.623
					c-0.316-0.143-0.694-0.215-1.136-0.215c-0.36,0-0.702,0.065-1.026,0.193c-0.323,0.129-0.607,0.311-0.849,0.546
					c-0.243,0.235-0.436,0.52-0.579,0.855c-0.143,0.335-0.215,0.708-0.215,1.119c0,0.412,0.072,0.785,0.215,1.12
					c0.143,0.335,0.338,0.62,0.585,0.855c0.246,0.235,0.531,0.418,0.854,0.546c0.324,0.129,0.669,0.193,1.037,0.193
					c0.419,0,0.774-0.061,1.064-0.182c0.29-0.121,0.539-0.278,0.745-0.469c0.147-0.132,0.274-0.3,0.38-0.502
					c0.107-0.202,0.189-0.428,0.248-0.678h-2.482V436.334z"/>
			</g>
			<g>
				<path style="fill:#FFFFFF;" d="M297.3,431.299c-0.006-1.224-0.959-2.121-2.189-2.14c-0.924-0.014-0.832,0.12-0.834-0.867
					c-0.003-1.097-0.007-2.194,0.003-3.292c0.003-0.379-0.112-0.691-0.362-0.976c-2.342-2.668-4.678-5.342-7.019-8.011
					c-0.12-0.137-0.275-0.244-0.414-0.366c-6.214,0-12.427,0-18.641,0c-0.794,0.293-1.14,0.868-1.138,1.709
					c0.01,3.748,0.004,7.496,0.004,11.243c0,0.556-0.003,0.589-0.55,0.551c-1.497-0.102-2.516,0.986-2.497,2.492
					c0.044,3.476,0.013,6.953,0.014,10.429c0.001,1.58,0.867,2.443,2.45,2.449c0.582,0.002,0.582,0.002,0.582,0.6
					c0,2.219-0.001,4.438,0.001,6.657c0.001,1.192,0.58,1.771,1.768,1.771c8.013,0.001,16.027,0.001,24.04,0
					c1.168,0,1.755-0.583,1.757-1.745c0.002-2.256,0-4.512,0.001-6.768c0-0.512,0.002-0.511,0.52-0.515
					c0.271-0.002,0.541,0.008,0.809-0.058c0.996-0.246,1.69-1.044,1.694-2.069C297.315,438.696,297.318,434.997,297.3,431.299z
					 M268.85,417.162c5.337,0,10.674,0,16.01,0c0.548,0,0.554,0.007,0.554,0.561c0.001,2.243-0.001,4.486,0.001,6.73
					c0.001,0.811,0.249,1.059,1.06,1.059c1.91,0.001,3.821,0,5.731,0.001c0.458,0,0.479,0.021,0.481,0.483
					c0.003,0.887,0.002,1.775,0,2.662c-0.001,0.477-0.024,0.498-0.504,0.499c-3.895,0.001-7.79,0-11.684,0
					c-3.882,0-7.765,0-11.647,0c-0.55,0-0.552-0.001-0.552-0.561c-0.001-3.624-0.001-7.247,0-10.871
					C268.299,417.166,268.303,417.162,268.85,417.162z M292.135,451.579c-3.883,0.001-7.766,0-11.65,0c-3.871,0-7.742,0-11.613,0
					c-0.572,0-0.574-0.002-0.574-0.579c-0.001-1.997-0.001-3.994,0.001-5.991c0-0.464,0.023-0.486,0.478-0.487
					c7.803-0.001,15.607-0.001,23.41,0c0.478,0,0.499,0.02,0.499,0.503c0.001,1.997,0.001,3.994,0,5.991
					C292.687,451.574,292.682,451.579,292.135,451.579z"/>
			</g>
			<g>
				<path style="fill:#FFFFFF;" d="M272.966,434.183v1.831h3.165v1.412h-3.165v1.831h3.518v1.412h-5.007v-7.897h5.007v1.412H272.966
					z"/>
				<path style="fill:#FFFFFF;" d="M277.852,440.669v-7.897h2.779c0.375,0,0.726,0.061,1.053,0.182
					c0.327,0.121,0.612,0.292,0.855,0.513c0.243,0.221,0.434,0.483,0.574,0.789c0.14,0.305,0.209,0.642,0.209,1.009
					c0,0.375-0.07,0.715-0.209,1.02c-0.14,0.305-0.331,0.568-0.574,0.789c-0.243,0.221-0.528,0.392-0.855,0.513
					c-0.327,0.121-0.678,0.182-1.053,0.182h-1.29v2.901H277.852z M280.653,436.356c0.389,0,0.684-0.111,0.882-0.331
					c0.199-0.22,0.298-0.474,0.298-0.761c0-0.14-0.024-0.276-0.072-0.408c-0.048-0.132-0.121-0.248-0.221-0.347
					c-0.099-0.099-0.222-0.178-0.37-0.237c-0.147-0.059-0.32-0.089-0.518-0.089h-1.312v2.173H280.653z"/>
				<path style="fill:#FFFFFF;" d="M286.797,440.845c-0.338,0-0.662-0.048-0.971-0.143c-0.309-0.095-0.592-0.239-0.849-0.43
					c-0.257-0.191-0.482-0.425-0.673-0.7c-0.191-0.276-0.342-0.597-0.452-0.965l1.401-0.551c0.103,0.397,0.283,0.726,0.541,0.987
					c0.257,0.261,0.595,0.392,1.015,0.392c0.154,0,0.303-0.02,0.447-0.061c0.143-0.04,0.272-0.099,0.386-0.176
					c0.114-0.077,0.204-0.175,0.27-0.292c0.066-0.118,0.1-0.254,0.1-0.408c0-0.147-0.026-0.279-0.077-0.397
					c-0.051-0.117-0.138-0.227-0.259-0.331c-0.121-0.103-0.279-0.202-0.474-0.298c-0.195-0.095-0.436-0.195-0.723-0.298
					l-0.485-0.176c-0.213-0.073-0.428-0.173-0.645-0.298c-0.217-0.125-0.414-0.276-0.59-0.452c-0.176-0.176-0.322-0.384-0.436-0.623
					c-0.114-0.239-0.171-0.509-0.171-0.81c0-0.309,0.061-0.597,0.182-0.866c0.121-0.268,0.294-0.503,0.518-0.706
					c0.224-0.202,0.493-0.36,0.805-0.474c0.312-0.114,0.66-0.171,1.042-0.171c0.397,0,0.741,0.053,1.031,0.16
					c0.29,0.107,0.537,0.243,0.739,0.408c0.202,0.165,0.365,0.348,0.491,0.546c0.125,0.199,0.217,0.386,0.276,0.563l-1.312,0.551
					c-0.074-0.221-0.208-0.419-0.403-0.596c-0.195-0.176-0.462-0.265-0.799-0.265c-0.324,0-0.592,0.075-0.805,0.226
					c-0.213,0.151-0.32,0.348-0.32,0.59c0,0.235,0.103,0.436,0.309,0.601c0.206,0.165,0.533,0.325,0.982,0.48l0.496,0.165
					c0.316,0.111,0.605,0.237,0.866,0.381c0.261,0.143,0.485,0.314,0.673,0.513c0.187,0.199,0.331,0.425,0.43,0.678
					c0.099,0.254,0.149,0.546,0.149,0.877c0,0.412-0.083,0.767-0.248,1.064c-0.165,0.298-0.377,0.542-0.634,0.734
					c-0.258,0.191-0.548,0.335-0.872,0.43C287.422,440.797,287.105,440.845,286.797,440.845z"/>
			</g>
			<g>
				<path style="fill:#FFFFFF;" d="M321.394,439.168l4.004-4.985h-3.827v-1.412h5.559v1.5l-3.96,4.985h4.004v1.412h-5.779V439.168z"
					/>
				<path style="fill:#FFFFFF;" d="M328.409,432.771h1.489v7.897h-1.489V432.771z"/>
				<path style="fill:#FFFFFF;" d="M331.486,440.669v-7.897h2.779c0.375,0,0.726,0.061,1.053,0.182
					c0.327,0.121,0.612,0.292,0.855,0.513s0.434,0.483,0.574,0.789c0.14,0.305,0.209,0.642,0.209,1.009
					c0,0.375-0.07,0.715-0.209,1.02c-0.14,0.305-0.331,0.568-0.574,0.789c-0.243,0.221-0.528,0.392-0.855,0.513
					c-0.327,0.121-0.678,0.182-1.053,0.182h-1.29v2.901H331.486z M334.288,436.356c0.389,0,0.684-0.111,0.882-0.331
					c0.199-0.22,0.298-0.474,0.298-0.761c0-0.14-0.024-0.276-0.072-0.408c-0.048-0.132-0.121-0.248-0.221-0.347
					c-0.099-0.099-0.222-0.178-0.37-0.237c-0.147-0.059-0.32-0.089-0.518-0.089h-1.312v2.173H334.288z"/>
			</g>
		</g>
		<g style="opacity:0.61;">
			<path style="fill:#FFFFFF;" d="M300.133,433.27h9.067v2.242h-9.067V433.27z M300.133,437.136h9.067v2.243h-9.067V437.136z"/>
		</g>
	</g>
	<g style="opacity:0.61;">
		<path style="fill:#FFFFFF;" d="M156.756,478.878h1.607c1.263,0,2.114,0.812,2.114,1.974c0,1.161-0.851,1.973-2.114,1.973h-1.607
			V478.878z M158.34,482.464c1.049,0,1.725-0.665,1.725-1.612c0-0.947-0.677-1.613-1.725-1.613h-1.167v3.225H158.34z"/>
		<path style="fill:#FFFFFF;" d="M165.139,480.851c0-1.15,0.879-2.007,2.075-2.007c1.184,0,2.069,0.851,2.069,2.007
			c0,1.156-0.885,2.007-2.069,2.007C166.019,482.858,165.139,482.002,165.139,480.851z M168.866,480.851
			c0-0.942-0.705-1.635-1.652-1.635c-0.953,0-1.663,0.693-1.663,1.635c0,0.941,0.71,1.635,1.663,1.635
			C168.162,482.486,168.866,481.793,168.866,480.851z"/>
		<path style="fill:#FFFFFF;" d="M179.596,478.878l-1.331,3.947h-0.44l-1.156-3.366l-1.161,3.366h-0.434l-1.331-3.947h0.429
			l1.139,3.394l1.178-3.394h0.389l1.161,3.411l1.156-3.411H179.596z"/>
		<path style="fill:#FFFFFF;" d="M187.731,478.878v3.947h-0.344l-2.537-3.202v3.202h-0.417v-3.947h0.344l2.543,3.203v-3.203H187.731
			z"/>
		<path style="fill:#FFFFFF;" d="M193.093,478.878h0.417v3.586h2.21v0.361h-2.627V478.878z"/>
		<path style="fill:#FFFFFF;" d="M200.061,480.851c0-1.15,0.879-2.007,2.075-2.007c1.184,0,2.069,0.851,2.069,2.007
			c0,1.156-0.885,2.007-2.069,2.007C200.941,482.858,200.061,482.002,200.061,480.851z M203.788,480.851
			c0-0.942-0.705-1.635-1.652-1.635c-0.953,0-1.663,0.693-1.663,1.635c0,0.941,0.71,1.635,1.663,1.635
			C203.083,482.486,203.788,481.793,203.788,480.851z"/>
		<path style="fill:#FFFFFF;" d="M211.636,481.77h-2.199l-0.474,1.054h-0.434l1.804-3.947h0.412l1.804,3.947h-0.44L211.636,481.77z
			 M211.484,481.432l-0.947-2.12l-0.947,2.12H211.484z"/>
		<path style="fill:#FFFFFF;" d="M217.28,478.878h1.607c1.263,0,2.114,0.812,2.114,1.974c0,1.161-0.851,1.973-2.114,1.973h-1.607
			V478.878z M218.864,482.464c1.049,0,1.725-0.665,1.725-1.612c0-0.947-0.677-1.613-1.725-1.613h-1.167v3.225H218.864z"/>
		<path style="fill:#FFFFFF;" d="M234.041,481.77h-2.199l-0.474,1.054h-0.434l1.804-3.947h0.412l1.804,3.947h-0.44L234.041,481.77z
			 M233.889,481.432l-0.947-2.12l-0.947,2.12H233.889z"/>
		<path style="fill:#FFFFFF;" d="M239.685,478.878h0.417v3.586h2.21v0.361h-2.627V478.878z"/>
		<path style="fill:#FFFFFF;" d="M247.082,478.878h0.417v3.586h2.21v0.361h-2.627V478.878z"/>
		<path style="fill:#FFFFFF;" d="M260.449,479.239v1.551h2.041v0.361h-2.041v1.675h-0.417v-3.947h2.706v0.361H260.449z"/>
		<path style="fill:#FFFFFF;" d="M267.678,478.878h0.417v3.947h-0.417V478.878z"/>
		<path style="fill:#FFFFFF;" d="M273.456,478.878h0.417v3.586h2.21v0.361h-2.627V478.878z"/>
		<path style="fill:#FFFFFF;" d="M283.644,482.464v0.361h-2.791v-3.947h2.706v0.361h-2.289v1.404h2.041v0.355h-2.041v1.466H283.644z
			"/>
		<path style="fill:#FFFFFF;" d="M294.672,479.239v1.551h2.041v0.361h-2.041v1.675h-0.417v-3.947h2.706v0.361H294.672z"/>
		<path style="fill:#FFFFFF;" d="M301.5,480.851c0-1.15,0.879-2.007,2.075-2.007c1.184,0,2.069,0.851,2.069,2.007
			c0,1.156-0.885,2.007-2.069,2.007C302.379,482.858,301.5,482.002,301.5,480.851z M305.226,480.851
			c0-0.942-0.705-1.635-1.652-1.635c-0.953,0-1.663,0.693-1.663,1.635c0,0.941,0.71,1.635,1.663,1.635
			C304.522,482.486,305.226,481.793,305.226,480.851z"/>
		<path style="fill:#FFFFFF;" d="M313.351,482.825l-0.902-1.269c-0.102,0.011-0.203,0.017-0.316,0.017h-1.06v1.252h-0.417v-3.947
			h1.477c1.004,0,1.613,0.507,1.613,1.353c0,0.62-0.327,1.054-0.902,1.24l0.964,1.353H313.351z M313.328,480.231
			c0-0.632-0.417-0.992-1.207-0.992h-1.048v1.979h1.048C312.911,481.218,313.328,480.851,313.328,480.231z"/>
		<path style="fill:#FFFFFF;" d="M322.907,478.878v3.947h-0.4v-3.158l-1.551,2.656h-0.197l-1.551-2.639v3.14h-0.4v-3.947h0.344
			l1.714,2.926l1.697-2.926H322.907z"/>
		<path style="fill:#FFFFFF;" d="M330.744,481.77h-2.199l-0.473,1.054h-0.434l1.804-3.947h0.411l1.804,3.947h-0.44L330.744,481.77z
			 M330.592,481.432l-0.947-2.12l-0.947,2.12H330.592z"/>
		<path style="fill:#FFFFFF;" d="M336.957,479.239h-1.387v-0.361h3.192v0.361h-1.387v3.586h-0.417V479.239z"/>
		<path style="fill:#FFFFFF;" d="M343.063,482.346l0.164-0.321c0.282,0.276,0.784,0.479,1.302,0.479c0.739,0,1.06-0.31,1.06-0.699
			c0-1.083-2.43-0.417-2.43-1.877c0-0.581,0.451-1.083,1.455-1.083c0.446,0,0.908,0.13,1.224,0.35l-0.141,0.333
			c-0.338-0.22-0.733-0.327-1.083-0.327c-0.722,0-1.043,0.321-1.043,0.716c0,1.083,2.43,0.429,2.43,1.866
			c0,0.581-0.462,1.077-1.472,1.077C343.937,482.858,343.356,482.65,343.063,482.346z"/>
	</g>
</g>
<g>
</g>
<g>
	<path style="fill:#DADAD8;" d="M25.027,250.137c0-7.458,0.041-14.917-0.026-22.375c-0.018-2.045,0.752-3.015,3.016-3.015
		c13.398,0.001,26.796,0,40.194,0c1.542,0,3.086-0.044,4.626,0.015c1.974,0.075,2.602,1.076,2.558,3.025
		c-0.023,1.028-0.216,2.094,0.049,3.154c0.298,1.195-0.155,2.402-0.158,3.598c-0.033,12.489-0.015,24.977-0.037,37.466
		c-0.001,0.564,0.438,1.08,0.151,1.642c-0.495,0.971-1.122,1.626-2.389,1.623c-12.663-0.037-25.326-0.023-37.988-0.023
		c-2.533,0-5.067,0.002-7.6,0.005c-1.344,0.001-2.393-1.069-2.394-2.478C25.024,265.227,25.026,257.682,25.027,250.137z"/>
	<path style="fill:#0382B4;" d="M69.058,227.83c0.533,0.58,0.339,1.105-0.137,1.592c-0.995,1.017-1.92,2.097-3.071,2.968
		c-0.636,0.481-1.072,1.216-1.644,1.792c-2.808,2.831-5.631,5.647-8.449,8.468c-3.72,3.725-7.44,7.451-11.161,11.175
		c-3.845,3.848-7.635,7.753-11.574,11.503c-1.185,1.128-2.179,2.428-3.425,3.477c-0.453,0.382-1.021,1.02-1.517-0.008
		c-0.11-0.47-0.057-0.948-0.057-1.422c-0.003-12.243,0.001-24.487-0.011-36.73c-0.001-0.788,0.062-1.547,0.348-2.282l0.015-0.018
		c0.577-0.228,0.877,0.18,1.209,0.522c3.468,3.575,7.051,7.038,10.49,10.643c0.982,1.029,2.089,1.465,3.509,0.83
		c3.127-1.398,6.095-3.131,9.227-4.494c3.589-1.562,6.865-3.689,10.383-5.364c1.718-0.818,3.518-1.471,5.126-2.518
		C68.522,227.831,68.787,227.732,69.058,227.83z"/>
	<path style="fill:#22497D;" d="M72.421,231.242c0.447,0.363,0.303,0.868,0.303,1.328c0.008,12.42,0.009,24.84,0.021,37.26
		c0.001,0.964-0.219,1.791-1.088,2.333c-0.056-0.028-0.113-0.057-0.17-0.084c-3.469-3.862-7.298-7.372-10.887-11.116
		c-1.546-1.613-2.234-1.681-4.224-0.779c-4.497,2.038-8.855,4.359-13.261,6.575c-2.699,1.358-5.452,2.638-8.07,4.166
		c-0.713,0.416-1.482,0.715-2.256,0.992c-0.399,0.143-0.847,0.351-1.071-0.268c0.083-0.325,0.329-0.508,0.607-0.637
		c2.323-1.071,4.5-2.428,6.832-3.476c0.722-0.324,1.335-0.803,1.989-1.224c1.939-1.249,4.174-1.871,6.189-2.981
		c2.196-1.21,4.417-2.455,6.773-3.298c3.271-1.17,5.225-3.351,6.554-6.506c1.727-4.103,3.766-8.077,5.943-11.975
		c0.837-1.498,1.67-3.028,2.192-4.694c0.376-1.201,1.501-2.001,1.796-3.278c0.134-0.58,0.424-1.13,0.606-1.711
		C71.38,231.298,71.675,230.792,72.421,231.242z"/>
	<path style="fill:#58638F;" d="M72.421,231.242c-0.345,0.03-0.759,0.009-0.855,0.433c-0.423,1.861-1.489,3.403-2.317,5.075
		c-0.846,1.709-1.556,3.516-2.478,5.192c-2.115,3.845-4.019,7.788-5.859,11.767c-0.536,1.16-1.036,2.35-1.706,3.431
		c-0.91,1.467-2.511,2.078-3.995,2.74c-3.636,1.623-7.101,3.596-10.728,5.222c-4.347,1.948-8.294,4.655-12.689,6.495
		c-0.128,0.144-0.187,0.337-0.326,0.474c-0.076,0.063-0.162,0.102-0.259,0.117c-0.422-0.802,0.073-1.395,0.599-1.788
		c2.76-2.06,4.7-4.92,7.181-7.255c2.139-2.013,4.331-3.986,6.349-6.114c2.769-2.921,5.511-5.873,8.469-8.595
		c3.685-3.391,6.86-7.277,10.54-10.658c2.19-2.012,4.339-4.048,6.303-6.286C71.003,231.089,71.666,230.062,72.421,231.242z"/>
	<path style="fill:#409BCF;" d="M69.058,227.83c-2.139,1.616-4.698,2.427-7.06,3.608c-1.909,0.955-3.652,2.185-5.612,3.057
		c-2.778,1.235-5.434,2.744-8.206,3.994c-1.599,0.721-3.103,1.619-4.748,2.275c-1.657,0.66-2.761-0.089-3.624-1.043
		c-1.841-2.033-3.957-3.787-5.736-5.872c-1.559-1.828-3.591-3.195-5.033-5.143c-0.136-0.183-0.438-0.243-0.662-0.36
		c0.563-0.624,1.271-0.767,2.092-0.766c12.412,0.017,24.824,0.011,37.237,0.02C68.16,227.599,68.662,227.437,69.058,227.83z"/>
	<path style="fill:#58638F;" d="M71.153,272.425c-0.365,0.413-0.835,0.311-1.31,0.311c-12.09,0.001-24.179,0.017-36.269,0.019
		c-0.824,0-1.75,0.338-2.366-0.568c0.042-0.041,0.084-0.082,0.126-0.122c7.63-0.15,15.262-0.115,22.893-0.116
		c4.409,0,8.82-0.075,13.231,0.07C68.688,272.18,69.994,271.639,71.153,272.425z"/>
	<path style="fill:#409BCF;" d="M28.361,228.363c-0.376,2.408-0.197,4.834-0.201,7.252c-0.019,10.498-0.007,20.997-0.011,31.495
		c0,0.562-0.044,1.125-0.068,1.687c-0.397-0.393-0.251-0.897-0.251-1.356c-0.007-12.431-0.005-24.862-0.007-37.292
		C27.822,229.495,27.796,228.842,28.361,228.363z"/>
	<path style="fill:#22497D;" d="M71.153,272.425c-1.408-0.034-2.815-0.069-4.223-0.103c0.03-0.239,0.178-0.408,0.396-0.436
		c1.419-0.185,2.843-0.435,4.23,0.175c0.034,0.034,0.068,0.069,0.101,0.104C71.489,272.251,71.321,272.338,71.153,272.425z"/>
	<g>
		<g>
			<path style="fill:#21487D;" d="M350.216,257.893c-0.56-6.337-1.085-12.676-1.631-19.014c-0.326-3.786-0.663-7.57-0.998-11.355
				c-0.041-0.46,0.048-0.994-0.669-1.047c-0.577-0.043-1.132-0.112-1.458,0.533c-0.749,1.481-1.573,2.927-2.256,4.437
				c-2.325,5.138-4.607,10.297-6.898,15.45c-1.061,2.388-2.241,4.715-3.458,7.027c-0.758,1.441-1.345,2.971-2.002,4.465
				c-0.098,0.222-0.077,0.602-0.412,0.535c-0.204-0.041-0.42-0.307-0.52-0.524c-0.453-0.978-0.83-1.992-1.302-2.961
				c-2.266-4.646-4.277-9.409-6.625-14.021c-2.341-4.598-4.386-9.349-6.499-14.06c-0.329-0.733-0.727-1.004-1.461-0.93
				c-0.891,0.09-0.778,0.804-0.824,1.379c-0.147,1.812-0.204,3.633-0.4,5.439c-0.612,5.644-0.968,11.316-1.794,16.936
				c-0.195,1.325-0.049,2.732-0.878,3.934c-0.147,0.213-0.115,0.602,0.114,0.858c0.332,0.371,0.253,0.791,0.202,1.228
				c-0.16,1.372-0.318,2.746-0.439,4.122c-0.298,3.408-0.503,6.825-0.876,10.224c-0.433,3.951-0.931,3.037,2.94,3.233
				c1.081,0.055,1.463-0.451,1.466-1.472c0.009-3.039,0.668-6.02,0.798-9.06c0.17-3.965,0.67-7.917,1.045-11.873
				c0.17-1.79,0.382-3.576,0.593-5.532c0.32,0.216,0.42,0.247,0.452,0.311c2.347,4.755,4.293,9.692,6.758,14.401
				c2.096,4.004,3.811,8.209,5.701,12.322c0.115,0.25,0.044,0.689,0.474,0.664c0.296-0.017,0.319-0.359,0.435-0.583
				c1.612-3.134,2.887-6.42,4.484-9.572c2.629-5.189,4.849-10.586,7.234-15.898c0.105-0.234,0.117-0.547,0.451-0.542
				c0.432,0.007,0.407,0.372,0.435,0.666c0.117,1.25,0.22,2.501,0.34,3.75c0.361,3.747,0.712,7.496,1.102,11.24
				c0.099,0.949-0.562,1.901-0.141,2.771c0.549,1.136,0.659,2.318,0.629,3.501c-0.035,1.406,0.398,2.703,0.63,4.049
				c0.121,0.701,0.449,0.911,1.153,0.871c1.238-0.07,2.482-0.039,3.723-0.034c1.929,0.007,1.883,0.012,1.689-1.919
				C351.059,267.196,350.628,262.545,350.216,257.893z"/>
			<path style="fill:#21487D;" d="M432.777,226.637c-1.15-0.892-2.37-0.593-3.635-0.214c-1.015,0.304-0.579,1.056-0.58,1.596
				c-0.028,9.585-0.018,19.17-0.022,28.755c0,0.325,0.183,0.777-0.216,0.928c-0.438,0.166-0.539-0.344-0.717-0.594
				c-2.504-3.534-5.596-6.565-8.43-9.814c-1.248-1.431-2.291-3.009-3.54-4.435c-1.618-1.846-3.265-3.662-4.907-5.483
				c-2.974-3.297-5.693-6.824-8.484-10.284c-0.521-0.646-1.109-0.79-1.828-0.593c-0.826,0.226-0.461,0.933-0.462,1.422
				c-0.018,14.226-0.013,28.451-0.015,42.677c0,3.203-0.003,3.105,3.219,3.221c1.339,0.049,1.49-0.437,1.486-1.536
				c-0.032-8.24-0.022-16.481-0.025-24.721c0-1.344,0-2.688,0-4.032c0-0.265-0.004-0.555,0.28-0.673
				c0.32-0.132,0.458,0.154,0.605,0.358c0.531,0.735,1.025,1.499,1.587,2.209c3.045,3.843,6.632,7.213,9.598,11.139
				c2.228,2.948,4.777,5.651,7.257,8.403c2.367,2.627,4.426,5.53,6.798,8.167c0.484,0.538,0.994,0.837,1.697,0.581
				c0.662-0.242,0.484-0.835,0.484-1.337c0.002-7.416,0.001-14.833,0.001-22.249c0-7.46,0.002-14.92-0.007-22.379
				C432.925,227.375,433.128,226.91,432.777,226.637z"/>
			<path style="fill:#21487D;" d="M198.896,260.964c-1.296-1.809-2.26-3.866-3.317-5.845c-0.617-1.153-0.528-1.502,0.659-2.07
				c2.215-1.057,4.348-2.294,5.806-4.418c1.336-1.947,1.903-4.098,2.161-6.415c0.661-5.928-1.786-12.236-8.143-14.615
				c-0.001,0-0.003-0.001-0.004-0.001c-1.105-0.921-2.746-0.538-3.816-1.561c-0.065-0.062-0.259-0.029-0.376,0.011
				c-0.84,0.285-1.714,0.207-2.576,0.253c-0.001,0-0.003,0-0.004-0.001c-0.424-0.453-0.974-0.234-1.447-0.208
				c-1.95,0.104-3.918-0.315-5.85,0.206c0,0,0,0-0.001,0c0,0,0,0,0.001-0.001c-1.036,0.024-2.072,0.03-3.107,0.08
				c-0.36,0.017-1.014-0.039-0.919,0.448c0.283,1.452-0.66,2.654-0.66,4.031c0.005,12.92,0.013,25.84-0.011,38.759
				c-0.002,1.314,0.933,2.402,0.727,3.764c-0.067,0.442,0.489,0.503,0.899,0.503c1.429,0,2.862-0.044,4.287,0.031
				c1.141,0.06,1.482-0.339,1.466-1.501c-0.074-5.457-0.043-10.916-0.069-16.374c-0.004-0.902,0.302-1.352,1.28-1.369
				c1.01-0.017,1.962,0.115,2.874,0.541c-0.001-0.002-0.003-0.004-0.005-0.006c0.002,0.002,0.004,0.003,0.006,0.005
				c0.281,0.63,0.528,1.276,0.846,1.887c1.432,2.744,2.887,5.475,4.327,8.214c1.323,2.515,2.632,5.038,3.947,7.558
				c0.268,0.51,0.568,0.961,1.255,0.953c2.007-0.029,4.017-0.049,6.027-0.036c1.044,0.008,0.971-0.529,0.56-1.132
				C203.158,268.925,201.546,264.653,198.896,260.964z M191.581,249.988c-2.015,0.752-4.163,0.953-6.321,0.721
				c-0.758-0.078-0.659-0.682-0.659-1.19c-0.005-3.03-0.003-6.061-0.003-9.091c-0.003-2.942,0.036-5.886-0.021-8.828
				c-0.021-1.101,0.398-1.453,1.45-1.411c2.734,0.112,5.532,0.156,7.664,2.153c1.958,1.833,3.699,3.944,3.705,6.834
				c0.003,2.137,0.052,4.311-1.023,6.318C195.272,247.552,193.754,249.176,191.581,249.988z"/>
			<path style="fill:#21487D;" d="M124.148,227.701c-2.981-1.145-6.173-1.705-9.429-1.638c-2.603,0.057-5.207,0.065-7.808-0.013
				c-1.151-0.034-1.481,0.328-1.474,1.471c0.047,7.503,0.023,15.006,0.023,22.511c0,7.545,0.016,15.092-0.021,22.639
				c-0.005,0.841,0.247,1.164,1.049,1.151c1.606-0.031,3.215-0.099,4.819-0.049c0.987,0.031,1.138-0.422,1.135-1.26
				c-0.031-5.163-0.039-10.322-0.018-15.485c0.01-2.84-0.463-2.632,2.648-2.583c3.718,0.057,7.326-0.331,10.645-2.231
				c6.259-3.58,7.256-11.4,5.254-17.164C129.769,231.588,127.509,228.99,124.148,227.701z M123.893,246.13
				c-2.392,3.926-6.37,5.194-10.71,4.834c-0.846-0.07-0.763-0.669-0.763-1.231c-0.003-3.033,0-6.068,0-9.101
				c0-3.036,0.031-6.068-0.016-9.101c-0.018-1.023,0.338-1.317,1.356-1.341c2.33-0.052,4.546,0.167,6.62,1.388
				c3.017,1.775,4.595,4.462,4.998,7.823C125.666,241.772,125.132,244.097,123.893,246.13z"/>
			<path style="fill:#21487D;" d="M388.744,270.846c0.352-1.413-0.38-1.569-1.553-1.559c-5.621,0.046-11.242,0.008-16.863,0.038
				c-0.918,0.005-1.191-0.343-1.187-1.225c0.028-5.162,0.035-10.324-0.004-15.486c-0.008-1.052,0.401-1.366,1.39-1.328
				c1.341,0.051,2.686,0.005,4.03-0.012c3.591-0.045,7.181,0.108,10.773,0.032c1.762-0.038,1.762-0.009,1.763-1.8
				c0-0.737-0.006-1.475,0.002-2.212c0.007-0.66-0.241-0.919-0.91-0.655c-0.233,0.092-0.5,0.135-0.752,0.135
				c-5.032,0.007-10.064-0.006-15.096,0.014c-0.883,0.003-1.209-0.298-1.2-1.221c0.042-4.511,0.048-9.022-0.001-13.533
				c-0.012-1.146,0.386-1.496,1.512-1.485c4.815,0.047,9.63,0.015,14.445,0.015c2.851,0,2.599,0.475,2.601-2.638
				c0.001-1.487-0.332-1.845-1.795-1.846c-7.331-0.008-14.663,0.008-21.994-0.017c-0.999-0.003-1.36,0.368-1.357,1.359
				c0.023,7.504,0.012,15.009,0.012,22.513c0,3.34,0,6.68,0,10.02c0,4.164,0.011,8.329-0.009,12.493
				c-0.004,0.839,0.097,1.406,1.163,1.402c7.312-0.027,14.624-0.012,21.936-0.021c0.937-0.001,2.084,0.258,2.76-0.18
				C389.307,273.067,388.51,271.788,388.744,270.846z"/>
			<path style="fill:#21487D;" d="M167.994,270.435c-1.351-3.707-2.754-7.396-4.046-11.127c-1.89-5.449-3.681-10.932-5.55-16.391
				c-1.177-3.444-2.385-6.881-3.767-10.252c-0.406-0.994-0.599-2.085-1.075-3.038c-0.393-0.784,0.016-1.718-0.794-2.489
				c-0.424-0.404-0.716-0.76-1.281-0.747c-0.583,0.013-0.976,0.213-1.208,0.903c-0.82,2.447-1.749,4.861-2.658,7.279
				c-1.234,3.293-2.533,6.561-3.811,9.836c-1.796,4.598-3.59,9.203-5.202,13.876c-1.658,4.808-3.533,9.539-5.308,14.306
				c-0.286,0.768-0.219,1.283,0.815,1.198c0.724-0.06,1.474-0.125,2.182-0.01c1.041,0.172,1.463-0.302,1.778-1.198
				c1.073-3.049,2.215-6.074,3.298-9.117c0.253-0.711,0.513-1.208,1.416-1.2c4.676,0.034,9.351,0.023,14.024,0.008
				c0.786-0.005,1.257,0.193,1.515,1.044c0.685,2.262,1.533,4.478,2.223,6.74c1.185,3.887,1.153,3.897,5.228,3.754
				c0.489,0,1.382-0.016,2.273,0.003c0.786,0.016,1.023-0.336,0.771-1.057C168.546,271.982,168.275,271.206,167.994,270.435z
				 M155.428,258.022c-3.345-0.365-6.709-0.141-10.065-0.2c-0.518-0.008-1.114,0.075-1.463-0.312
				c-0.542-0.604,0.377-0.784,0.495-1.231c0.612-2.34,1.625-4.543,2.445-6.81c0.963-2.668,1.934-5.337,2.898-8.008
				c0.115-0.312,0.096-0.773,0.581-0.703c0.396,0.06,0.435,0.463,0.544,0.799c1.325,4.007,2.585,8.039,4.046,11.999
				c0.424,1.143,0.898,2.278,1.289,3.444C156.539,258.022,156.498,258.106,155.428,258.022z"/>
			<path style="fill:#21487D;" d="M300.659,272.38c-0.898-1.942-1.604-3.944-2.244-5.996c-1.346-4.314-2.861-8.581-4.434-12.822
				c-1.869-5.043-3.257-10.247-5.41-15.201c-1.453-3.34-2.408-6.899-3.561-10.367c-0.247-0.742-0.336-1.536-1.382-1.609
				c-1.151-0.081-1.307,0.823-1.585,1.557c-0.747,1.968-1.458,3.952-2.156,5.938c-0.807,2.296-1.783,4.519-2.728,6.761
				c-1.166,2.77-2.067,5.652-3.111,8.474c-1.716,4.639-3.423,9.281-5.189,13.902c-1.237,3.244-2.473,6.495-3.897,9.659
				c-0.463,1.031-0.143,1.104,0.635,1.122c0.903,0.023,1.815-0.089,2.713-0.023c1.002,0.076,1.474-0.344,1.796-1.268
				c1.018-2.929,2.195-5.806,3.147-8.755c0.406-1.252,1.099-1.523,2.268-1.513c4.421,0.039,8.841,0.023,13.262-0.008
				c0.877-0.008,1.38,0.333,1.64,1.146c0.815,2.564,1.645,5.123,2.463,7.688c0.81,2.541,0.807,2.541,3.436,2.708
				c0.338,0.021,0.677,0.047,0.679,0.047c1.195,0,2.051,0.023,2.905-0.005c1.203-0.036,1.338-0.247,0.825-1.185
				C300.691,272.554,300.693,272.458,300.659,272.38z M287.989,257.96c-0.32,0.221-0.703,0.164-1.099,0.021
				c-1.002-0.359-2.059-0.177-3.082-0.143c-2.491,0.083-4.993-0.305-7.474,0.229c-0.515,0.112-0.901,0.018-0.643-0.776
				c1.377-4.21,3.47-8.133,4.863-12.337c0.505-1.533,0.916-3.111,1.822-4.803c0.693,2.08,1.302,3.9,1.906,5.722
				c1.216,3.679,2.439,7.36,3.624,11.051C288.004,257.234,288.468,257.627,287.989,257.96z"/>
			<path style="fill:#21487D;" d="M474.939,227.29c-0.007-0.13,0.001-0.26-0.007-0.39c-0.018-0.31-0.23-0.545-0.492-0.47
				c-0.889,0.255-1.642-0.34-2.464-0.342c-9.11-0.021-18.22-0.036-27.33,0.002c-2.444,0.01-2.573,0.231-2.579,2.691
				c-0.001,0.26,0.017,0.523-0.01,0.78c-0.082,0.79,0.225,1.042,1.045,1.03c3.513-0.05,7.03,0.049,10.54-0.065
				c1.377-0.045,1.673,0.424,1.664,1.683c-0.048,6.637-0.022,13.274-0.022,19.911c0,6.203,0,12.406-0.001,18.61
				c0,0.779-0.032,1.559-0.002,2.337c0.015,0.391,0.101,0.742,0.677,0.733c1.724-0.027,3.449-0.01,5.173,0.025
				c0.511,0.01,0.816-0.269,0.75-0.669c-0.197-1.194,0.46-2.238,0.457-3.404c-0.027-11.365-0.013-22.731-0.02-34.096
				c-0.001-1.317-0.59-2.557-0.437-3.921c0.096-0.862,0.288-1.209,1.219-1.191c2.906,0.054,5.813,0.019,8.719,0.019
				C475.118,230.564,475.118,230.564,474.939,227.29z"/>
			<path style="fill:#21487D;" d="M255.443,226.375c-1.818,0.006-3.636,0.002-5.454,0.025c-0.409,0.005-0.835,0.157-0.751,0.678
				c0.189,1.166-0.363,2.237-0.362,3.376c0.005,13.13,0.001,26.261,0.007,39.391c0,1.142,0.488,2.224,0.436,3.383
				c-0.031,0.696,0.589,0.658,1.02,0.67c1.555,0.045,3.113,0.026,4.669,0.048c1.057,0.015,1.39-0.468,1.384-1.527
				c-0.04-7.41-0.021-14.82-0.021-22.231c0.007,0,0.014,0,0.021,0c0-7.453-0.002-14.907,0.003-22.36
				C256.394,227.124,256.508,226.371,255.443,226.375z"/>
			<path style="fill:#21487D;" d="M239.231,269.308c-0.31-0.291-0.691-0.289-1.085-0.288c-4.118,0.006-8.236,0.003-12.354,0.005
				c-0.34,0-0.65,0.03-0.986,0.202c-0.921,0.47-1.193,0.085-1.189-0.89c0.031-8.365,0.025-16.73,0.024-25.096
				c0-5.201-0.006-10.402-0.025-15.603c-0.001-0.393,0.243-1.001-0.357-1.104c-1.864-0.321-3.731-0.834-5.64-0.254
				c-0.735-0.029-1.132,0.226-1.059,1.06c0.06,0.684-0.02,1.379-0.021,2.069c-0.006,11.416,0.014,22.833-0.03,34.249
				c-0.011,2.856,0.13,5.713-0.068,8.571c-0.064,0.924-0.023,1.935,1.49,1.778c1.401-0.146,2.775,0.315,4.22,0.315
				c6.061,0.002,12.122,0.293,18.178-0.243c1.768-0.156,1.779-0.127,1.786-1.906C242.127,269.193,242.127,269.193,239.231,269.308z"
				/>
		</g>
	</g>
	<path style="fill:#0B3662;" d="M71.557,272.06c-1.533,0.253-3.106-0.208-4.626,0.262c-3.314-0.023-6.629-0.071-9.943-0.063
		c-7.072,0.017-14.144,0.108-21.215,0.058c-1.47-0.01-2.989,0.302-4.439-0.251c-0.036-0.343,0.135-0.481,0.46-0.469
		c1.206,0.396,2.065-0.494,2.999-0.915c2.122-0.957,4.15-2.123,6.229-3.176c4.319-2.189,8.646-4.363,12.973-6.536
		c1.003-0.504,2.043-0.937,3.025-1.476c1.066-0.585,2.028-0.405,2.845,0.363c1.374,1.291,2.623,2.718,4.019,3.983
		c2.55,2.309,4.826,4.881,7.202,7.356C71.319,271.439,71.645,271.639,71.557,272.06z"/>
</g>
</svg>
