<?xml version="1.0" standalone="no"?>
<!DOCTYPE svg PUBLIC "-//W3C//DTD SVG 20010904//EN"
 "http://www.w3.org/TR/2001/REC-SVG-20010904/DTD/svg10.dtd">
<svg version="1.0" xmlns="http://www.w3.org/2000/svg"
 width="1920.000000pt" height="1075.000000pt" viewBox="0 0 1920.000000 1075.000000"
 preserveAspectRatio="xMidYMid meet">

<g transform="translate(0.000000,1075.000000) scale(0.100000,-0.100000)"
fill="#000000" stroke="none">
<path d="M7808 7413 c7 -3 16 -2 19 1 4 3 -2 6 -13 5 -11 0 -14 -3 -6 -6z"/>
<path d="M7748 7403 c6 -2 18 -2 25 0 6 3 1 5 -13 5 -14 0 -19 -2 -12 -5z"/>
<path d="M7585 7380 c-21 -5 -25 -9 -15 -13 8 -4 40 0 70 7 54 14 54 14 15 14
-22 0 -53 -4 -70 -8z"/>
<path d="M7440 7335 c0 -8 1 -15 3 -15 1 0 22 7 47 14 l45 15 -47 0 c-36 1
-48 -3 -48 -14z"/>
<path d="M7323 7301 c-1 -17 2 -18 20 -11 12 4 38 13 57 18 34 10 34 10 -20
11 -48 1 -56 -2 -57 -18z"/>
<path d="M7260 7270 c0 -12 8 -12 35 0 18 8 17 9 -7 9 -16 1 -28 -3 -28 -9z"/>
<path d="M7183 7253 c-28 -3 -43 -9 -43 -18 0 -7 -13 -16 -30 -20 -16 -4 -30
-11 -30 -16 0 -5 -13 -9 -30 -9 -21 0 -30 -5 -30 -16 0 -19 19 -14 114 32 38
19 75 34 82 34 7 0 16 5 19 10 3 6 3 9 -2 8 -4 -1 -27 -3 -50 -5z"/>
<path d="M6960 7135 c0 -13 4 -14 20 -5 11 6 20 13 20 15 0 3 -9 5 -20 5 -11
0 -20 -7 -20 -15z"/>
<path d="M6915 7130 c3 -5 1 -10 -4 -10 -6 0 -11 -7 -11 -15 0 -12 5 -13 24
-4 26 12 25 39 -1 39 -8 0 -11 -4 -8 -10z"/>
<path d="M6840 7070 c0 -13 11 -13 30 0 12 8 11 10 -7 10 -13 0 -23 -4 -23
-10z"/>
<path d="M6780 7035 c0 -13 4 -14 20 -5 11 6 20 13 20 15 0 3 -9 5 -20 5 -11
0 -20 -7 -20 -15z"/>
<path d="M8020 7039 c-95 -8 -264 -43 -399 -81 -355 -102 -659 -302 -823 -542
-51 -74 -106 -192 -117 -251 -8 -43 -7 -45 15 -45 13 0 23 3 23 8 -1 4 -1 31
0 60 1 51 2 52 31 52 28 0 30 3 32 38 0 20 1 43 1 50 -1 7 11 12 28 12 22 0
29 5 29 20 0 16 7 20 30 20 27 0 30 3 30 30 0 27 3 30 30 30 23 0 30 4 30 20
0 15 7 20 24 20 29 0 42 16 37 49 -2 21 0 23 32 19 29 -3 33 -1 29 14 -3 14 2
18 22 18 35 0 33 18 -1 23 -26 4 -26 4 5 6 21 0 32 6 32 16 0 10 10 15 30 15
25 0 30 4 30 25 0 21 5 25 30 25 20 0 30 5 30 15 0 10 10 15 29 15 17 0 29 5
28 13 -1 40 4 47 33 47 23 0 30 4 30 20 0 16 7 20 30 20 20 0 30 5 30 15 0 10
10 15 30 15 19 0 30 5 30 14 0 10 19 16 63 22 57 7 59 8 27 14 -32 6 -30 7 28
14 34 4 62 12 62 16 0 4 27 11 60 15 39 4 60 12 60 20 0 9 33 15 123 21 87 6
112 10 87 15 -19 3 47 7 148 8 111 0 181 -3 177 -8 -3 -5 -1 -12 4 -15 5 -3 7
-16 3 -28 -4 -16 5 -11 33 20 21 24 36 45 33 48 -5 5 -258 23 -293 20 -11 0
-54 -4 -95 -7z"/>
<path d="M6720 6995 c0 -10 -10 -15 -30 -15 -23 0 -30 -4 -30 -20 0 -16 -7
-20 -32 -20 -22 0 -29 -3 -20 -9 11 -7 10 -9 -3 -15 -9 -3 -13 -10 -10 -16 4
-6 -6 -10 -24 -10 -27 0 -31 -4 -31 -26 l0 -26 42 34 c24 18 49 39 58 46 8 8
39 31 69 53 42 30 50 39 33 39 -13 0 -22 -6 -22 -15z"/>
<path d="M6480 6809 c0 -22 11 -24 28 -7 17 17 15 24 -8 25 -14 1 -20 -4 -20
-18z"/>
<path d="M8220 6804 c0 -8 5 -12 10 -9 6 3 10 10 10 16 0 5 -4 9 -10 9 -5 0
-10 -7 -10 -16z"/>
<path d="M6420 6753 c0 -26 0 -26 20 -8 16 14 17 20 8 27 -22 13 -28 9 -28
-19z"/>
<path d="M6360 6684 c0 -27 14 -25 30 7 9 16 7 19 -10 19 -15 0 -20 -7 -20
-26z"/>
<path d="M8882 6595 c0 -59 3 -81 8 -65 4 14 8 43 8 65 0 22 -4 51 -8 65 -5
16 -8 -6 -8 -65z"/>
<path d="M8747 6640 c-3 -11 -1 -20 4 -20 5 0 9 9 9 20 0 11 -2 20 -4 20 -2 0
-6 -9 -9 -20z"/>
<path d="M6300 6604 c0 -8 5 -12 10 -9 6 3 10 10 10 16 0 5 -4 9 -10 9 -5 0
-10 -7 -10 -16z"/>
<path d="M7273 6573 c9 -2 25 -2 35 0 9 3 1 5 -18 5 -19 0 -27 -2 -17 -5z"/>
<path d="M7140 6540 c0 -11 4 -20 9 -20 5 0 7 9 4 20 -3 11 -7 20 -9 20 -2 0
-4 -9 -4 -20z"/>
<path d="M7210 6550 l-55 -7 63 -1 c40 -1 61 2 57 8 -3 6 -7 9 -8 8 -1 -1 -27
-4 -57 -8z"/>
<path d="M6250 6540 c0 -5 5 -10 10 -10 6 0 10 5 10 10 0 6 -4 10 -10 10 -5 0
-10 -4 -10 -10z"/>
<path d="M7308 6543 c7 -3 16 -2 19 1 4 3 -2 6 -13 5 -11 0 -14 -3 -6 -6z"/>
<path d="M8686 6531 c-4 -7 -5 -15 -2 -18 9 -9 19 4 14 18 -4 11 -6 11 -12 0z"/>
<path d="M7080 6501 c0 -6 5 -12 10 -12 13 -2 29 -6 33 -8 7 -6 98 -7 102 -1
3 4 -19 10 -48 14 -28 3 -62 9 -74 12 -14 4 -23 2 -23 -5z"/>
<path d="M7250 6482 c0 -5 12 -9 28 -9 15 0 69 -1 120 -3 51 -1 96 0 99 4 4 3
-14 6 -38 6 -24 0 -81 3 -126 6 -51 4 -83 2 -83 -4z"/>
<path d="M7020 6424 l0 -56 -31 7 -31 7 4 -71 c3 -66 1 -72 -16 -69 -12 2 -24
17 -32 38 -12 34 -12 33 -13 -37 -1 -40 -5 -73 -9 -73 -11 0 -10 2 -18 -142
-6 -105 -5 -118 10 -118 9 0 16 -8 16 -20 0 -11 5 -20 11 -20 6 0 9 7 5 15 -7
19 -8 19 41 -5 23 -11 45 -29 48 -41 9 -26 0 -35 -19 -20 -11 9 -15 8 -20 -5
-10 -26 -7 -30 24 -32 29 -2 30 -1 30 43 0 29 4 45 13 46 16 0 88 9 107 12 8
1 21 7 29 12 10 5 16 4 19 -3 2 -7 8 -9 14 -6 7 4 6 9 -2 14 -10 6 -8 14 6 34
23 30 34 33 41 7 6 -22 49 -31 97 -22 23 5 32 13 34 31 5 30 31 62 44 54 6 -4
5 -10 -3 -15 -11 -7 -10 -9 3 -9 25 0 23 87 -2 95 -18 6 -33 39 -23 49 3 3 14
-5 24 -17 16 -19 18 -20 19 -4 0 10 8 17 21 17 15 0 19 5 15 18 -5 15 -1 19
24 19 16 0 32 2 35 5 12 11 -8 38 -29 38 -11 0 -28 5 -36 10 -12 8 -10 10 10
11 23 0 23 1 5 9 -11 5 -31 9 -44 9 -24 1 -24 1 -5 -14 18 -14 17 -14 -12 -15
-27 0 -31 4 -31 25 0 14 5 25 11 24 6 -1 45 -1 86 0 53 1 71 4 60 11 -8 6 -27
8 -41 5 -14 -3 -36 -1 -50 4 l-24 10 24 0 c19 1 22 4 14 12 -6 6 -9 18 -6 25
3 8 -1 14 -10 14 -9 0 -19 5 -23 11 -4 7 0 9 14 5 11 -4 23 -2 27 4 3 6 -4 10
-17 11 -53 2 -63 4 -65 14 -1 6 15 9 38 8 27 -1 39 2 36 10 -2 7 -20 10 -44 9
-29 -3 -41 0 -40 10 1 7 -2 14 -8 15 -5 2 -10 -9 -10 -25 0 -15 -4 -33 -8 -39
-5 -7 -4 -13 1 -13 6 0 9 -11 8 -25 -1 -17 -6 -24 -16 -23 -11 3 -15 17 -15
50 0 26 -3 50 -7 53 -4 4 -4 13 -1 21 3 9 -1 14 -12 14 -9 0 -15 -6 -12 -12 2
-7 0 -21 -5 -32 -7 -12 -7 -16 0 -12 6 3 13 2 17 -4 3 -5 -1 -10 -9 -10 -9 0
-16 -4 -16 -10 0 -5 5 -10 11 -10 6 0 9 -10 7 -22 -2 -13 -10 -23 -18 -23 -11
0 -15 12 -15 50 l0 50 -42 3 c-32 2 -43 7 -43 20 -1 15 -2 15 -14 -1 -14 -18
-15 -18 -26 0 -8 13 -13 15 -17 5 -4 -9 -8 -10 -18 -2 -8 6 -28 12 -45 12 -17
1 -33 5 -36 9 -3 5 2 6 10 3 9 -3 16 -1 16 5 0 6 -9 11 -20 11 -18 0 -20 -7
-20 -56z m60 -14 c0 -5 -2 -10 -4 -10 -3 0 -8 5 -11 10 -3 6 -1 10 4 10 6 0
11 -4 11 -10z m88 -19 c3 -8 -1 -12 -9 -9 -7 2 -15 10 -17 17 -3 8 1 12 9 9 7
-2 15 -10 17 -17z m37 -1 c3 -5 -1 -10 -10 -10 -9 0 -13 5 -10 10 3 6 8 10 10
10 2 0 7 -4 10 -10z m50 0 c3 -5 -1 -10 -9 -10 -9 0 -16 5 -16 10 0 6 4 10 9
10 6 0 13 -4 16 -10z m-170 -41 c11 -17 2 -18 -19 -3 -17 12 -17 14 -4 14 9 0
20 -5 23 -11z m135 7 c0 -2 -3 -11 -6 -20 -7 -17 -34 -22 -34 -6 0 6 5 10 11
10 5 0 7 5 4 10 -3 6 1 10 9 10 9 0 16 -2 16 -4z m210 -21 c21 -22 21 -25 6
-25 -12 0 -16 -5 -12 -15 3 -9 0 -15 -9 -15 -8 0 -16 6 -16 13 -1 6 -3 24 -5
40 -4 34 6 34 36 2z m-310 5 c0 -5 -4 -10 -10 -10 -5 0 -10 5 -10 10 0 6 5 10
10 10 6 0 10 -4 10 -10z m45 0 c3 -5 -1 -10 -10 -10 -9 0 -13 5 -10 10 3 6 8
10 10 10 2 0 7 -4 10 -10z m90 -20 c3 -5 -1 -10 -9 -10 -9 0 -16 5 -16 10 0 6
4 10 9 10 6 0 13 -4 16 -10z m-185 -10 c0 -5 -4 -10 -10 -10 -5 0 -10 5 -10
10 0 6 5 10 10 10 6 0 10 -4 10 -10z m90 -10 c0 -5 -4 -10 -9 -10 -6 0 -13 5
-16 10 -3 6 1 10 9 10 9 0 16 -4 16 -10z m130 -10 c0 -5 -4 -10 -10 -10 -5 0
-10 5 -10 10 0 6 5 10 10 10 6 0 10 -4 10 -10z m80 -6 c0 -2 -9 -4 -21 -4 -11
0 -18 4 -14 10 5 8 35 3 35 -6z m-280 -24 c13 -8 13 -10 -2 -10 -9 0 -20 5
-23 10 -8 13 5 13 25 0z m66 -18 c1 -13 -5 -22 -14 -22 -12 0 -12 3 -2 15 9
10 9 15 1 15 -6 0 -11 5 -11 11 0 21 25 2 26 -19z m-116 -4 c0 -19 -2 -20 -10
-8 -13 19 -13 30 0 30 6 0 10 -10 10 -22z m213 11 c-8 -8 -19 -8 -40 -1 -28
10 -28 10 12 11 28 1 36 -2 28 -10z m62 1 c-3 -5 -15 -10 -26 -10 -10 0 -19 5
-19 10 0 6 12 10 26 10 14 0 23 -4 19 -10z m58 -1 c-6 -6 -9 -18 -6 -25 4 -10
0 -12 -11 -8 -9 3 -13 10 -10 15 3 5 0 9 -5 9 -6 0 -11 5 -11 10 0 6 12 10 27
10 20 0 24 -3 16 -11z m-415 -60 c2 -30 1 -32 -9 -14 -7 11 -17 23 -22 26 -13
9 1 31 16 26 7 -2 13 -19 15 -38z m337 31 c3 -5 -1 -10 -9 -10 -9 0 -16 5 -16
10 0 6 4 10 9 10 6 0 13 -4 16 -10z m-279 -12 c4 -6 3 -8 -4 -4 -5 3 -13 0
-15 -6 -3 -8 -6 -6 -6 5 -1 19 14 23 25 5z m89 -8 c-3 -5 -12 -10 -18 -10 -7
0 -6 4 3 10 19 12 23 12 15 0z m45 -10 c0 -5 -2 -10 -4 -10 -3 0 -8 5 -11 10
-3 6 -1 10 4 10 6 0 11 -4 11 -10z m100 0 c0 -6 -11 -8 -27 -4 -40 10 -41 14
-5 14 18 0 32 -5 32 -10z m119 -6 c3 -3 -8 -5 -24 -3 -17 2 -36 0 -43 -4 -13
-9 -32 -1 -32 13 0 10 89 5 99 -6z m74 5 l22 0 -23 -9 c-24 -10 -52 -4 -52 12
0 6 7 7 16 4 9 -3 25 -6 37 -7z m67 -9 c0 -13 -11 -13 -30 0 -12 8 -11 10 8
10 12 0 22 -4 22 -10z m-571 -42 c1 -5 -3 -8 -9 -8 -5 0 -10 12 -9 28 0 24 1
25 9 7 5 -11 9 -23 9 -27z m176 32 c3 -5 1 -10 -4 -10 -6 0 -11 5 -11 10 0 6
2 10 4 10 3 0 8 -4 11 -10z m90 -10 c3 -5 1 -10 -4 -10 -6 0 -11 5 -11 10 0 6
2 10 4 10 3 0 8 -4 11 -10z m152 -17 c-8 -7 -37 9 -31 19 3 5 12 4 20 -3 8 -6
13 -14 11 -16z m-107 13 c0 -11 -19 -15 -25 -6 -3 5 1 10 9 10 9 0 16 -2 16
-4z m175 -6 c3 -5 2 -10 -4 -10 -5 0 -13 5 -16 10 -3 6 -2 10 4 10 5 0 13 -4
16 -10z m-265 -50 c0 -5 -7 -10 -15 -10 -8 0 -15 5 -15 10 0 6 7 10 15 10 8 0
15 -4 15 -10z m40 0 c0 -5 -7 -10 -15 -10 -8 0 -15 5 -15 10 0 6 7 10 15 10 8
0 15 -4 15 -10z m220 -40 c0 -5 -7 -7 -15 -4 -8 4 -15 8 -15 10 0 2 7 4 15 4
8 0 15 -4 15 -10z m-471 -24 l23 -25 -23 6 -24 6 20 -23 20 -23 -21 11 c-14 7
-21 21 -22 42 0 16 1 30 2 30 1 0 13 -11 25 -24z m471 -6 c0 -5 -4 -10 -9 -10
-6 0 -13 5 -16 10 -3 6 1 10 9 10 9 0 16 -4 16 -10z m-70 -30 c0 -5 -4 -10
-10 -10 -5 0 -10 5 -10 10 0 6 5 10 10 10 6 0 10 -4 10 -10z m-343 -25 c0 -8
-4 -15 -9 -15 -4 0 -8 7 -8 15 0 8 4 15 8 15 5 0 9 -7 9 -15z m-61 -37 c-15
-10 -26 0 -26 23 0 18 1 18 18 2 11 -11 14 -21 8 -25z m112 28 c-7 -8 -15 -12
-17 -11 -5 6 10 25 20 25 5 0 4 -6 -3 -14z m286 2 c-4 -6 1 -17 11 -25 17 -12
17 -13 -9 -13 -22 0 -27 4 -22 16 3 9 6 20 6 25 0 5 5 9 11 9 5 0 7 -5 3 -12z
m-40 -29 c-8 -14 -34 -10 -34 5 0 9 7 12 20 9 11 -3 17 -9 14 -14z m-128 -26
c-8 -8 -36 5 -36 17 0 7 6 7 21 0 11 -7 18 -14 15 -17z m-216 -14 c0 -6 -4 -7
-10 -4 -5 3 -10 11 -10 16 0 6 5 7 10 4 6 -3 10 -11 10 -16z m50 -9 c0 -5 -7
-7 -15 -4 -8 4 -12 10 -9 15 6 11 24 2 24 -11z"/>
<path d="M7220 6440 c0 -5 5 -10 10 -10 6 0 10 5 10 10 0 6 -4 10 -10 10 -5 0
-10 -4 -10 -10z"/>
<path d="M7250 6440 c0 -5 5 -10 10 -10 6 0 10 5 10 10 0 6 -4 10 -10 10 -5 0
-10 -4 -10 -10z"/>
<path d="M7415 6440 c-19 -8 -19 -9 3 -9 12 -1 22 4 22 9 0 6 -1 10 -2 9 -2 0
-12 -4 -23 -9z"/>
<path d="M7468 6433 c7 -3 16 -2 19 1 4 3 -2 6 -13 5 -11 0 -14 -3 -6 -6z"/>
<path d="M8626 6425 c-3 -8 -1 -15 4 -15 6 0 10 7 10 15 0 8 -2 15 -4 15 -2 0
-6 -7 -10 -15z"/>
<path d="M8826 6424 c-9 -23 -7 -36 3 -30 12 8 21 46 11 46 -4 0 -11 -7 -14
-16z"/>
<path d="M7510 6360 c0 -5 5 -10 11 -10 5 0 7 5 4 10 -3 6 -8 10 -11 10 -2 0
-4 -4 -4 -10z"/>
<path d="M8767 6343 c-4 -3 -7 -11 -7 -17 0 -6 5 -5 12 2 6 6 9 14 7 17 -3 3
-9 2 -12 -2z"/>
<path d="M7512 6313 c2 -9 8 -18 15 -20 7 -3 9 3 6 16 -6 25 -26 28 -21 4z"/>
<path d="M8567 6300 c-3 -11 -1 -20 4 -20 5 0 9 9 9 20 0 11 -2 20 -4 20 -2 0
-6 -9 -9 -20z"/>
<path d="M6125 6300 c3 -5 8 -10 11 -10 2 0 4 5 4 10 0 6 -5 10 -11 10 -5 0
-7 -4 -4 -10z"/>
<path d="M9706 6295 c-3 -8 -1 -15 4 -15 6 0 10 7 10 15 0 8 -2 15 -4 15 -2 0
-6 -7 -10 -15z"/>
<path d="M6121 6264 c0 -11 3 -14 6 -6 3 7 2 16 -1 19 -3 4 -6 -2 -5 -13z"/>
<path d="M8700 6269 c0 -5 5 -7 10 -4 6 3 10 8 10 11 0 2 -4 4 -10 4 -5 0 -10
-5 -10 -11z"/>
<path d="M7520 6229 c0 -5 5 -7 10 -4 6 3 10 8 10 11 0 2 -4 4 -10 4 -5 0 -10
-5 -10 -11z"/>
<path d="M7807 6203 c-4 -3 -7 -11 -7 -17 0 -6 5 -5 12 2 6 6 9 14 7 17 -3 3
-9 2 -12 -2z"/>
<path d="M7740 6094 c0 -8 5 -12 10 -9 6 3 10 10 10 16 0 5 -4 9 -10 9 -5 0
-10 -7 -10 -16z"/>
<path d="M6065 5943 c2 -143 10 -203 27 -203 6 0 8 11 4 28 -4 15 -9 91 -13
170 -3 78 -9 142 -13 142 -4 0 -6 -62 -5 -137z"/>
<path d="M6654 5975 c0 -55 1 -76 3 -47 2 29 2 74 0 100 -2 26 -3 2 -3 -53z"/>
<path d="M7680 5999 c0 -5 5 -7 10 -4 6 3 10 8 10 11 0 2 -4 4 -10 4 -5 0 -10
-5 -10 -11z"/>
<path d="M12188 6003 c6 -2 18 -2 25 0 6 3 1 5 -13 5 -14 0 -19 -2 -12 -5z"/>
<path d="M9380 5980 l-35 -19 95 0 c87 1 91 2 50 11 -25 5 -49 14 -54 19 -13
12 -15 11 -56 -11z"/>
<path d="M12068 5973 c7 -3 16 -2 19 1 4 3 -2 6 -13 5 -11 0 -14 -3 -6 -6z"/>
<path d="M7620 5924 c0 -14 3 -14 15 -4 8 7 15 14 15 16 0 2 -7 4 -15 4 -8 0
-15 -7 -15 -16z"/>
<path d="M11944 5931 c3 -5 15 -7 26 -4 28 7 25 13 -6 13 -14 0 -23 -4 -20 -9z"/>
<path d="M7220 5923 c0 -10 40 -36 46 -30 3 2 -7 12 -21 21 -14 9 -25 13 -25
9z"/>
<path d="M11880 5894 c0 -12 4 -14 13 -7 6 6 19 13 27 16 9 3 3 6 -12 6 -20 1
-28 -4 -28 -15z"/>
<path d="M7560 5844 c0 -14 4 -23 10 -19 6 3 10 12 10 20 0 7 6 16 13 18 6 3
2 6 -10 6 -18 1 -23 -4 -23 -25z"/>
<path d="M11820 5861 c0 -5 9 -7 20 -4 11 3 20 7 20 9 0 2 -9 4 -20 4 -11 0
-20 -4 -20 -9z"/>
<path d="M6695 5830 c3 -5 10 -10 16 -10 5 0 9 5 9 10 0 6 -7 10 -16 10 -8 0
-12 -4 -9 -10z"/>
<path d="M11778 5833 c7 -3 16 -2 19 1 4 3 -2 6 -13 5 -11 0 -14 -3 -6 -6z"/>
<path d="M10902 5779 c-17 -26 -15 -27 31 -21 41 5 51 22 13 22 -13 0 -26 5
-28 10 -2 6 -9 1 -16 -11z"/>
<path d="M7500 5764 c0 -14 3 -14 15 -4 8 7 15 14 15 16 0 2 -7 4 -15 4 -8 0
-15 -7 -15 -16z"/>
<path d="M7440 5689 c0 -18 2 -19 15 -9 8 7 15 16 15 21 0 5 -7 9 -15 9 -9 0
-15 -9 -15 -21z"/>
<path d="M6121 5668 c-1 -16 4 -28 9 -28 12 0 12 8 0 35 -8 18 -9 17 -9 -7z"/>
<path d="M7247 5628 c8 -59 13 -61 13 -5 0 26 -4 47 -9 47 -5 0 -7 -19 -4 -42z"/>
<path d="M8438 5642 c-21 -9 -38 -22 -38 -28 0 -7 15 -4 40 8 22 11 40 24 40
29 0 11 3 12 -42 -9z"/>
<path d="M7380 5618 c0 -20 1 -21 20 -3 11 10 20 20 20 22 0 1 -9 3 -20 3 -14
0 -20 -7 -20 -22z"/>
<path d="M8248 5609 c-8 -5 8 -9 40 -9 28 0 52 4 52 10 0 12 -73 10 -92 -1z"/>
<path d="M8138 5593 c-6 -8 -9 -15 -7 -18 7 -7 89 7 89 15 0 14 -70 17 -82 3z"/>
<path d="M7320 5548 c0 -12 1 -19 3 -17 1 2 9 12 16 22 12 14 11 17 -3 17 -10
0 -16 -8 -16 -22z"/>
<path d="M8087 5526 c-4 -10 -5 -21 -2 -24 9 -9 17 6 13 25 -3 17 -4 17 -11
-1z"/>
<path d="M13134 5528 c-3 -4 10 -8 30 -8 19 0 43 -3 53 -7 16 -6 16 -5 4 10
-14 18 -77 21 -87 5z"/>
<path d="M13095 5510 c4 -6 11 -8 16 -5 14 9 11 15 -7 15 -8 0 -12 -5 -9 -10z"/>
<path d="M7260 5489 c0 -5 5 -7 10 -4 6 3 10 8 10 11 0 2 -4 4 -10 4 -5 0 -10
-5 -10 -11z"/>
<path d="M13156 5475 c-3 -9 -6 -21 -6 -26 0 -12 57 -12 65 1 3 6 1 10 -4 10
-6 0 -10 6 -8 12 3 19 -39 22 -47 3z"/>
<path d="M7220 5455 c-7 -8 -8 -15 -2 -15 5 0 15 7 22 15 7 8 8 15 2 15 -5 0
-15 -7 -22 -15z"/>
<path d="M8221 5438 c0 -18 3 -26 6 -18 3 8 10 23 15 33 6 12 5 17 -7 17 -10
0 -15 -10 -14 -32z"/>
<path d="M8012 5430 l-23 -30 26 0 c21 0 25 5 25 30 0 17 -1 30 -3 30 -2 0
-13 -13 -25 -30z"/>
<path d="M13238 5427 c-15 -12 -15 -15 3 -37 l19 -25 0 38 c0 20 -1 37 -2 37
-2 0 -10 -6 -20 -13z"/>
<path d="M13157 5390 c3 -13 14 -20 29 -20 26 0 30 10 12 28 -20 20 -47 15
-41 -8z"/>
<path d="M7130 5390 c-9 -6 -10 -10 -3 -10 6 0 13 -8 15 -17 2 -13 7 -10 22
13 10 16 13 23 5 17 -16 -15 -33 -17 -24 -3 8 12 4 12 -15 0z"/>
<path d="M7956 5365 c-16 -24 -16 -25 4 -25 15 0 20 7 20 25 0 14 -2 25 -4 25
-2 0 -11 -11 -20 -25z"/>
<path d="M8176 5355 c17 -13 17 -14 2 -15 -20 0 -24 -15 -8 -25 8 -5 7 -11 -1
-21 -10 -12 -9 -16 8 -20 14 -4 19 -12 16 -25 -3 -10 -10 -19 -15 -19 -5 0 -6
-4 -3 -10 3 -5 1 -10 -4 -10 -7 0 -11 -47 -11 -135 0 -107 3 -135 13 -135 11
0 13 20 9 98 -4 97 13 196 40 229 6 8 7 28 2 50 -4 21 -7 41 -6 46 1 4 -12 7
-30 7 -30 0 -31 -1 -12 -15z"/>
<path d="M12570 5360 l35 -7 -32 -2 c-28 -1 -33 -5 -33 -26 l0 -25 40 25 c22
14 48 25 57 25 15 0 16 2 3 10 -8 5 -35 9 -60 9 l-45 -2 35 -7z"/>
<path d="M13086 5361 c-4 -5 3 -7 14 -4 23 6 26 13 6 13 -8 0 -17 -4 -20 -9z"/>
<path d="M6988 5343 c6 -2 18 -2 25 0 6 3 1 5 -13 5 -14 0 -19 -2 -12 -5z"/>
<path d="M13110 5325 c7 -8 16 -15 21 -15 5 0 9 7 9 15 0 9 -9 15 -21 15 -18
0 -19 -2 -9 -15z"/>
<path d="M7900 5310 c0 -5 5 -10 10 -10 6 0 10 5 10 10 0 6 -4 10 -10 10 -5 0
-10 -4 -10 -10z"/>
<path d="M12480 5285 c0 -10 -10 -15 -30 -15 -20 0 -30 -5 -30 -15 0 -17 16
-20 25 -5 3 6 13 10 22 10 8 0 26 9 40 20 l26 20 -27 0 c-16 0 -26 -5 -26 -15z"/>
<path d="M13080 5290 c0 -5 5 -10 11 -10 5 0 7 5 4 10 -3 6 -8 10 -11 10 -2 0
-4 -4 -4 -10z"/>
<path d="M7898 5283 c7 -3 16 -2 19 1 4 3 -2 6 -13 5 -11 0 -14 -3 -6 -6z"/>
<path d="M7020 5260 c0 -5 4 -10 9 -10 6 0 13 5 16 10 3 6 -1 10 -9 10 -9 0
-16 -4 -16 -10z"/>
<path d="M13140 5255 c0 -14 7 -16 42 -11 51 7 62 16 20 16 -16 0 -37 3 -46 6
-11 4 -16 1 -16 -11z"/>
<path d="M7846 5251 c-4 -7 -5 -15 -2 -18 9 -9 19 4 14 18 -4 11 -6 11 -12 0z"/>
<path d="M6748 5223 c6 -2 18 -2 25 0 6 3 1 5 -13 5 -14 0 -19 -2 -12 -5z"/>
<path d="M12883 5188 c1 -27 5 -48 10 -48 10 0 8 62 -3 80 -6 11 -9 1 -7 -32z"/>
<path d="M6952 5201 c-11 -7 -11 -9 1 -14 16 -6 27 0 27 15 0 10 -11 10 -28
-1z"/>
<path d="M7780 5185 c-10 -12 -10 -15 4 -15 9 0 16 7 16 15 0 8 -2 15 -4 15
-2 0 -9 -7 -16 -15z"/>
<path d="M7720 5115 c-10 -12 -10 -15 4 -15 9 0 16 7 16 15 0 8 -2 15 -4 15
-2 0 -9 -7 -16 -15z"/>
<path d="M7662 5060 c-10 -17 -10 -20 3 -20 8 0 15 9 15 20 0 11 -1 20 -3 20
-1 0 -8 -9 -15 -20z"/>
<path d="M12826 5021 c-4 -7 -5 -15 -2 -18 9 -9 19 4 14 18 -4 11 -6 11 -12 0z"/>
<path d="M7605 5010 c-3 -5 -1 -10 4 -10 6 0 11 5 11 10 0 6 -2 10 -4 10 -3 0
-8 -4 -11 -10z"/>
<path d="M7588 4973 c7 -3 16 -2 19 1 4 3 -2 6 -13 5 -11 0 -14 -3 -6 -6z"/>
<path d="M7522 4931 l-32 -31 30 0 c16 0 32 5 35 10 3 6 0 10 -7 10 -10 0 -10
2 1 9 7 5 12 14 9 21 -2 7 -16 -1 -36 -19z"/>
<path d="M10326 4930 l-28 -30 41 0 c40 0 41 -1 41 -32 0 -37 18 -71 27 -50
10 25 33 13 33 -18 0 -23 5 -30 19 -30 11 0 27 -7 36 -16 12 -12 43 -18 124
-22 122 -5 258 6 226 19 -17 6 -15 8 11 8 73 2 122 13 117 27 -4 11 9 14 61
14 l66 0 0 -30 c0 -23 5 -30 19 -30 18 0 18 2 -2 69 l-20 69 -49 -29 c-27 -16
-55 -29 -63 -29 -7 0 -20 -6 -27 -13 -12 -12 -40 -20 -173 -49 -80 -17 -202
-5 -267 26 -59 28 -131 97 -152 146 l-12 29 -28 -29z"/>
<path d="M12756 4941 c-11 -12 -17 -23 -15 -25 8 -8 41 23 37 34 -2 7 -11 3
-22 -9z"/>
<path d="M6127 4910 c-32 -4 -61 -11 -65 -15 -4 -4 4 -5 18 -1 44 11 263 19
333 12 48 -6 67 -12 67 -22 0 -9 -11 -14 -30 -14 -23 0 -30 -5 -30 -19 0 -11
8 -22 18 -24 9 -3 -5 -3 -33 -1 -35 3 -44 2 -30 -5 16 -7 12 -10 -27 -16 -27
-4 -48 -11 -48 -15 0 -4 26 -2 58 6 31 7 98 22 147 33 50 10 78 20 63 20 -23
1 -28 6 -28 26 0 22 4 25 33 24 17 -1 46 -5 62 -9 l30 -7 -35 -16 c-42 -20
-29 -22 22 -4 43 15 54 23 36 25 -7 1 -47 8 -88 16 -80 16 -367 20 -473 6z
m393 -70 c-14 -4 -34 -8 -45 -8 -16 0 -15 2 5 8 14 4 34 8 45 8 16 0 15 -2 -5
-8z"/>
<path d="M5980 4870 c-8 -5 -27 -10 -42 -10 -17 0 -28 -5 -28 -14 0 -13 43
-44 83 -59 30 -11 18 2 -18 19 -34 16 -48 44 -22 44 7 0 22 7 33 15 21 16 17
20 -6 5z"/>
<path d="M8220 4852 c0 -14 6 -22 16 -22 14 0 15 3 3 18 -7 9 -15 19 -16 21
-2 2 -3 -5 -3 -17z"/>
<path d="M10240 4845 c-10 -12 -10 -15 4 -15 9 0 16 7 16 15 0 8 -2 15 -4 15
-2 0 -9 -7 -16 -15z"/>
<path d="M10175 4780 c-18 -19 -17 -20 3 -20 15 0 22 6 22 20 0 11 -2 20 -3
20 -2 0 -12 -9 -22 -20z"/>
<path d="M6198 4783 c12 -2 30 -2 40 0 9 3 -1 5 -23 4 -22 0 -30 -2 -17 -4z"/>
<path d="M8280 4780 c0 -5 5 -10 11 -10 5 0 7 5 4 10 -3 6 -8 10 -11 10 -2 0
-4 -4 -4 -10z"/>
<path d="M10115 4720 c-18 -19 -17 -20 3 -20 15 0 22 6 22 20 0 11 -2 20 -3
20 -2 0 -12 -9 -22 -20z"/>
<path d="M9200 4713 c-14 -3 -29 -9 -35 -14 -12 -12 56 0 70 12 10 9 8 10 -35
2z"/>
<path d="M11160 4670 c0 -38 2 -40 30 -40 19 0 30 -5 30 -14 0 -8 14 -17 30
-21 26 -6 30 -11 30 -42 l0 -35 63 7 c59 6 105 25 61 25 -37 0 -148 63 -196
112 l-48 47 0 -39z"/>
<path d="M9090 4680 l-25 -8 28 -1 c15 -1 27 4 27 9 0 6 -1 10 -2 9 -2 -1 -14
-5 -28 -9z"/>
<path d="M10057 4655 c-17 -24 -17 -25 3 -25 15 0 20 6 20 25 0 30 -1 30 -23
0z"/>
<path d="M8520 4646 c0 -13 12 -16 60 -16 47 0 60 -3 60 -15 0 -12 17 -15 90
-15 67 0 89 3 88 13 -2 8 22 14 82 18 97 6 72 12 -40 9 -41 -1 -78 -7 -81 -12
-4 -6 -11 -8 -17 -4 -5 3 -54 11 -108 16 -55 6 -107 13 -116 16 -12 3 -18 0
-18 -10z"/>
<path d="M10002 4590 c-10 -17 -10 -20 3 -20 8 0 15 9 15 20 0 11 -1 20 -3 20
-1 0 -8 -9 -15 -20z"/>
<path d="M9060 4519 c0 -5 5 -7 10 -4 6 3 10 8 10 11 0 2 -4 4 -10 4 -5 0 -10
-5 -10 -11z"/>
<path d="M10484 4421 c3 -5 15 -7 26 -4 28 7 25 13 -6 13 -14 0 -23 -4 -20 -9z"/>
<path d="M10587 4423 c18 -2 50 -2 70 0 21 2 7 4 -32 4 -38 0 -55 -2 -38 -4z"/>
<path d="M9974 4389 c-6 -11 96 -12 113 -1 6 4 -16 8 -48 8 -33 1 -62 -2 -65
-7z"/>
<path d="M9513 3863 c9 -2 23 -2 30 0 6 3 -1 5 -18 5 -16 0 -22 -2 -12 -5z"/>
<path d="M9768 3833 c7 -3 16 -2 19 1 4 3 -2 6 -13 5 -11 0 -14 -3 -6 -6z"/>
</g>
</svg>
