<?xml version="1.0" standalone="no"?>
<!DOCTYPE svg PUBLIC "-//W3C//DTD SVG 20010904//EN"
 "http://www.w3.org/TR/2001/REC-SVG-20010904/DTD/svg10.dtd">
<svg version="1.0" xmlns="http://www.w3.org/2000/svg"
 width="1024.000000pt" height="819.000000pt" viewBox="0 0 1024.000000 819.000000"
 preserveAspectRatio="xMidYMid meet">
<metadata>
Created by potrace 1.16, written by Peter Selinger 2001-2019
</metadata>
<g transform="translate(0.000000,819.000000) scale(0.100000,-0.100000)"
fill="#000000" stroke="none">
<path d="M4980 6505 c-135 -38 -199 -95 -202 -179 -2 -50 81 -256 103 -256 12
0 10 13 -15 105 -9 35 -10 58 -4 78 13 34 51 46 77 23 11 -10 27 -16 37 -14
11 2 18 -4 19 -17 1 -11 9 -40 17 -65 9 -25 19 -56 22 -70 5 -24 7 -25 93 -24
l87 2 23 73 c12 41 23 82 23 92 0 12 8 17 29 17 16 0 31 6 35 15 15 39 76 -8
76 -58 -1 -18 -9 -57 -20 -87 -28 -81 -7 -84 33 -4 94 188 85 273 -33 334 -30
15 -147 50 -168 50 -4 0 -7 -39 -7 -87 0 -49 -4 -97 -9 -108 -8 -18 -10 -17
-16 10 -4 17 -8 54 -9 83 l-1 52 -39 0 c-35 0 -39 -3 -45 -31 -3 -17 -6 -54
-6 -82 0 -31 -4 -47 -9 -41 -16 15 -29 112 -21 154 5 30 4 40 -7 44 -8 4 -15
6 -16 5 -1 0 -22 -7 -47 -14z"/>
<path d="M6046 6218 c4 -7 16 -24 25 -38 10 -14 25 -59 34 -100 16 -80 36
-116 78 -140 24 -13 27 -13 46 10 11 14 25 35 32 48 11 20 10 24 -9 38 -13 8
-35 41 -51 72 -16 31 -40 67 -52 79 -38 35 -120 59 -103 31z"/>
<path d="M4160 6193 c-39 -15 -70 -47 -94 -98 -14 -31 -39 -67 -54 -80 l-27
-23 31 -43 c17 -24 36 -45 42 -47 6 -2 26 13 45 32 28 28 38 49 52 113 9 43
26 92 36 109 10 17 19 34 19 38 0 7 -29 7 -50 -1z"/>
<path d="M5897 6161 c-9 -16 -17 -40 -17 -53 -1 -12 -7 -36 -15 -53 l-13 -30
-1 43 c-1 23 -5 42 -10 42 -14 0 -43 -70 -37 -87 11 -28 -6 -114 -30 -149 -13
-19 -24 -37 -24 -39 0 -13 60 -2 94 18 66 37 80 73 85 215 1 67 -1 122 -6 122
-5 0 -16 -13 -26 -29z"/>
<path d="M4333 6046 c3 -106 7 -128 26 -160 27 -43 67 -66 116 -66 l35 0 -26
39 c-20 31 -27 58 -33 126 -6 58 -14 92 -25 103 -15 15 -16 13 -16 -26 0 -53
-15 -47 -24 9 -7 44 -34 99 -49 99 -4 0 -7 -56 -4 -124z"/>
<path d="M5493 6123 c-4 -10 -11 -21 -17 -25 -8 -5 -8 -13 1 -26 10 -17 8 -21
-14 -33 -14 -7 -36 -27 -50 -43 -28 -34 -26 -60 13 -118 29 -45 38 -46 164
-17 102 24 110 32 110 113 0 54 -29 83 -91 92 -40 5 -45 9 -42 28 3 15 -3 24
-23 34 -37 16 -43 15 -51 -5z"/>
<path d="M4712 6116 c-17 -8 -22 -17 -19 -33 3 -19 0 -23 -20 -23 -32 0 -85
-23 -103 -44 -16 -21 -16 -86 0 -126 10 -25 19 -28 115 -45 56 -9 108 -14 114
-10 23 14 61 85 61 114 0 31 -57 91 -87 91 -12 0 -13 3 -3 15 9 11 9 21 -1 45
-15 32 -21 34 -57 16z"/>
<path d="M6226 5815 c-16 -92 -62 -215 -86 -230 -6 -4 -20 1 -31 10 -18 17
-19 17 -34 -18 -8 -20 -15 -39 -15 -43 0 -23 -59 -77 -132 -121 -141 -87 -170
-139 -146 -260 9 -46 8 -60 -5 -89 -30 -62 -23 -100 28 -150 25 -25 47 -55 50
-67 14 -55 -40 -105 -93 -86 -28 11 -52 65 -52 119 0 31 -6 47 -26 65 -29 27
-60 33 -67 13 -2 -7 9 -25 25 -40 24 -22 28 -34 28 -80 0 -29 -7 -66 -15 -82
-20 -37 -19 -100 1 -117 53 -44 54 -123 0 -174 -26 -25 -34 -42 -44 -104 -11
-66 -11 -76 4 -93 10 -10 19 -41 22 -73 4 -53 3 -56 -34 -93 -22 -22 -45 -41
-53 -44 -21 -6 -6 -38 18 -38 10 0 21 7 25 15 9 24 24 17 31 -14 16 -73 125
-161 125 -101 0 35 15 22 49 -42 18 -35 47 -78 65 -96 30 -33 104 -78 112 -69
2 2 -3 23 -11 47 -27 76 -14 150 14 83 7 -16 20 -38 31 -51 16 -20 22 -21 39
-10 29 18 30 93 1 108 -15 8 -20 21 -20 54 0 45 10 56 51 56 15 0 19 7 19 34
0 40 7 46 56 52 51 6 74 -10 74 -51 0 -28 4 -35 19 -35 41 0 51 -11 51 -56 0
-32 -5 -46 -19 -53 -26 -14 -34 -89 -12 -115 9 -10 43 -32 76 -47 50 -24 73
-29 138 -29 42 0 77 4 77 9 0 5 -22 25 -49 45 -87 64 -151 150 -151 202 0 12
9 8 37 -16 97 -85 232 -142 298 -126 l30 8 -35 30 c-133 117 -180 162 -180
175 0 11 5 13 18 8 9 -4 69 -10 132 -12 102 -3 121 -1 169 19 53 22 78 48 48
48 -33 0 -145 41 -191 71 -56 35 -52 42 28 53 27 3 74 18 104 32 59 28 145
101 136 115 -3 5 -20 9 -39 9 -67 0 -285 86 -285 112 0 4 12 10 28 13 108 23
164 48 222 103 42 40 56 81 23 67 -25 -11 -203 -19 -203 -10 0 4 29 38 64 75
88 93 163 248 109 225 -55 -24 -208 -75 -225 -75 -17 0 -14 8 25 63 24 34 56
86 71 115 27 54 61 170 53 179 -3 3 -29 -13 -59 -35 -60 -45 -97 -66 -104 -59
-3 3 6 32 20 65 14 33 30 82 36 109 12 49 15 161 6 170 -3 3 -26 -15 -50 -41
-25 -25 -50 -46 -56 -46 -7 0 -10 30 -9 88 5 159 -24 329 -54 319 -6 -2 -21
-34 -34 -73 -27 -78 -89 -177 -115 -182 -16 -3 -18 5 -18 55 0 33 -6 79 -14
104 -8 24 -20 66 -27 93 -11 45 -51 106 -68 106 -4 0 -15 -43 -25 -95z m275
-322 c6 -196 3 -344 -8 -359 -11 -15 -112 -35 -178 -35 -49 1 -155 17 -164 26
-8 8 -17 270 -12 368 l1 27 180 0 180 0 1 -27z m-411 -58 c0 -3 -7 -22 -16
-43 -9 -20 -16 -47 -15 -60 1 -12 -7 -34 -18 -48 -12 -15 -21 -41 -21 -60 0
-46 -8 -63 -41 -79 -27 -14 -69 -20 -69 -10 0 3 17 21 38 40 l37 35 -23 18
-23 18 31 29 c37 35 38 45 5 45 -42 0 -29 25 38 74 59 43 77 52 77 41z m606
-359 c-67 -104 -246 -237 -296 -221 -11 3 -20 13 -20 21 0 14 25 31 132 94 32
19 88 58 124 87 70 55 88 61 60 19z m-376 -224 c0 -216 0 -216 -96 -225 -37
-4 -72 -11 -76 -15 -6 -6 -27 -3 -51 5 -23 8 -55 12 -72 9 -20 -4 -38 0 -53
10 -21 15 -22 20 -22 205 l0 189 185 0 185 0 0 -178z m418 -44 c-8 -22 -110
-76 -173 -93 -107 -27 -206 -14 -193 26 3 10 26 14 89 15 78 0 190 26 239 55
22 13 42 11 38 -3z m-268 -167 c59 -21 115 -32 183 -37 53 -4 97 -10 97 -15 0
-5 -19 -13 -42 -20 -90 -24 -305 10 -331 52 -9 14 -4 49 6 49 1 0 41 -13 87
-29z m-548 -46 c19 -17 37 -23 49 -20 15 5 19 1 19 -20 0 -31 -22 -42 -57 -26
-22 10 -29 9 -49 -10 -22 -21 -24 -21 -49 -5 -24 16 -28 16 -44 2 -33 -30 -71
-13 -71 32 0 18 4 22 19 17 13 -4 25 3 39 22 l20 28 22 -28 c27 -34 35 -34 50
3 7 17 15 30 17 30 3 0 19 -11 35 -25z m588 -239 c0 -146 -3 -188 -14 -199 -8
-8 -42 -17 -77 -20 -34 -4 -68 -12 -75 -18 -10 -8 -22 -8 -41 -1 -16 6 -53 13
-83 16 -35 4 -59 12 -67 23 -9 12 -13 69 -13 200 l0 183 185 0 185 0 0 -184z
m-458 -48 c1 -73 2 -159 2 -190 1 -32 -4 -62 -11 -69 -11 -11 -130 -30 -178
-29 -76 2 -156 14 -165 24 -10 13 -22 358 -12 384 3 9 49 12 183 12 l179 0 2
-132z"/>
<path d="M6170 5316 l0 -164 68 -6 c87 -8 86 -8 162 1 l65 8 -1 95 c0 52 -1
125 -2 163 l-2 67 -145 0 -145 0 0 -164z"/>
<path d="M6063 4993 l-83 -4 0 -158 0 -158 63 -8 c70 -8 97 -8 180 1 l57 6 0
159 0 159 -32 0 c-18 0 -49 2 -68 3 -19 2 -72 2 -117 0z m152 -94 c4 -11 4
-36 1 -54 -4 -18 -2 -44 5 -57 14 -33 -1 -92 -26 -96 -13 -3 -17 1 -13 16 3
10 1 27 -4 36 -9 16 -11 16 -24 -3 -17 -24 -39 -18 -49 12 -6 22 -6 22 -16 -3
-6 -14 -8 -33 -5 -42 3 -13 -2 -18 -15 -18 -22 0 -33 20 -30 59 1 14 3 55 4
91 2 51 5 65 19 68 25 5 58 -29 58 -60 0 -15 4 -29 9 -33 11 -6 25 31 16 44
-5 9 43 61 57 61 4 0 10 -9 13 -21z"/>
<path d="M6179 4499 c-5 -3 -8 -56 -5 -120 2 -63 5 -135 5 -161 1 -46 2 -48
31 -48 32 0 40 14 15 24 -15 5 -21 47 -8 59 3 4 14 0 24 -9 17 -15 20 -15 49
10 18 14 35 26 40 26 13 0 27 -23 34 -57 l7 -31 -58 -8 -58 -7 35 -12 c21 -7
45 -9 60 -4 14 4 45 10 70 13 25 3 46 5 48 5 1 1 1 74 0 163 -3 183 0 176 -84
163 l-44 -6 20 -26 c11 -14 20 -37 20 -52 1 -30 16 -53 48 -70 23 -12 31 -54
12 -66 -6 -4 -10 -12 -9 -18 6 -49 -1 -51 -39 -14 -35 34 -45 38 -97 40 -64 3
-76 14 -52 51 14 21 14 25 0 38 -14 14 -13 18 6 37 11 11 26 18 33 16 8 -3 17
8 24 29 l11 34 -65 4 c-35 2 -68 0 -73 -3z"/>
<path d="M5720 4236 l0 -164 68 -6 c37 -3 74 -6 82 -6 8 0 45 3 83 6 l67 6 0
164 0 164 -150 0 -150 0 0 -164z m177 132 c28 -26 30 -61 3 -88 -11 -11 -20
-22 -20 -24 0 -2 16 -6 36 -9 56 -9 73 -30 67 -80 -7 -55 -20 -72 -41 -55 -12
10 -16 10 -19 1 -6 -18 -33 -16 -33 2 0 28 -31 30 -51 4 l-19 -24 -6 22 c-5
18 -11 22 -31 17 -25 -7 -25 -6 -9 23 13 26 13 33 1 49 -8 11 -15 27 -15 36 0
20 38 34 53 19 6 -6 19 -11 30 -11 18 0 17 1 -2 26 -27 34 -27 62 1 91 26 28
26 28 55 1z"/>
<path d="M3981 5862 c-25 -36 -70 -196 -78 -278 -3 -35 -9 -64 -13 -64 -5 0
-23 17 -40 37 -35 40 -69 110 -90 186 -10 38 -15 45 -26 36 -30 -25 -47 -120
-48 -270 l-1 -147 -25 18 c-14 10 -38 32 -54 49 -17 17 -33 31 -38 31 -13 0
-9 -104 7 -175 9 -36 26 -90 40 -120 17 -39 20 -55 11 -55 -16 0 -97 53 -121
80 -10 11 -22 20 -28 20 -12 0 -1 -71 20 -130 18 -48 92 -171 126 -207 11 -13
18 -26 15 -29 -8 -7 -137 32 -206 62 l-54 24 7 -38 c11 -58 50 -121 122 -195
52 -54 63 -71 52 -79 -14 -9 -146 -4 -186 8 -62 18 15 -79 92 -116 22 -11 68
-25 101 -31 32 -7 63 -15 68 -20 22 -20 -158 -102 -263 -120 -29 -4 -56 -11
-59 -14 -12 -11 103 -105 129 -105 4 0 14 17 22 39 31 75 135 124 197 91 21
-11 45 -73 36 -95 -6 -16 34 -79 49 -77 6 1 11 69 13 172 l2 170 180 0 180 0
1 -47 c4 -129 -1 -337 -8 -344 -5 -5 -38 -11 -73 -15 -35 -3 -72 -10 -82 -15
-9 -5 -23 -8 -29 -7 -7 2 -25 -23 -41 -55 l-28 -57 45 -56 c25 -30 45 -59 45
-64 0 -6 4 -10 9 -10 17 0 51 68 69 137 19 76 37 90 37 28 -1 -40 -41 -155
-54 -155 -13 0 -32 -42 -26 -61 10 -32 32 -22 76 36 23 30 43 55 45 55 5 0 -7
-213 -12 -222 -12 -20 37 -5 74 22 40 29 113 118 125 153 4 10 11 16 16 13 12
-8 3 -81 -15 -125 -8 -19 -12 -36 -10 -39 3 -2 26 8 51 22 51 30 113 108 141
178 21 53 34 61 34 24 0 -36 12 -38 52 -11 23 15 47 46 64 80 25 53 28 55 45
39 21 -18 49 -12 49 10 0 9 -14 23 -30 31 -66 34 -88 120 -49 184 19 32 20 38
8 105 -10 56 -19 75 -41 94 -41 35 -55 90 -33 133 10 19 24 42 32 51 16 18 14
67 -4 138 -13 53 0 129 25 149 15 11 19 20 13 30 -8 12 -14 12 -40 1 -40 -16
-50 -35 -57 -107 -4 -32 -10 -66 -15 -75 -22 -41 -101 -31 -118 14 -13 35 5
77 49 121 45 45 50 72 24 136 -13 33 -14 52 -6 105 19 118 -14 173 -153 255
-82 48 -122 92 -132 144 -7 36 -28 45 -52 23 -18 -17 -20 -15 -51 47 -19 39
-40 108 -53 171 -11 58 -24 106 -28 106 -4 0 -17 -13 -28 -28z m-207 -274 c18
-38 22 -56 15 -70 -9 -17 -1 -18 166 -18 l175 0 1 -57 c2 -241 -2 -328 -16
-342 -8 -9 -38 -16 -71 -18 -31 -1 -66 -9 -78 -17 -19 -12 -25 -12 -41 0 -19
14 -75 20 -75 8 0 -4 17 -21 37 -39 26 -22 35 -36 30 -49 -8 -19 -17 -16 -67
27 -22 19 -31 34 -27 47 4 14 -2 20 -23 25 -16 3 -31 14 -35 23 -3 9 -5 105
-4 212 1 161 -2 202 -14 227 -13 24 -17 72 -8 91 4 9 13 -4 35 -50z m489 -227
c54 -40 67 -69 26 -58 -33 9 -33 -14 0 -45 36 -34 38 -44 11 -53 -28 -9 -25
-19 17 -54 46 -38 37 -49 -22 -27 -47 19 -63 45 -52 88 4 14 -2 31 -19 51 -14
16 -24 39 -23 51 1 12 -3 34 -9 49 -16 39 -16 62 1 50 6 -6 38 -29 70 -52z
m-610 -350 c42 -32 110 -76 152 -97 79 -41 96 -61 70 -80 -33 -24 -123 26
-229 125 -55 53 -96 111 -78 111 4 0 43 -27 85 -59z m667 -179 c0 -224 -3
-232 -82 -232 -28 0 -62 -7 -78 -16 -26 -16 -29 -16 -51 0 -15 10 -43 16 -76
16 -40 0 -58 5 -73 20 -19 19 -20 33 -20 203 0 101 3 187 7 190 3 4 89 7 190
7 l183 0 0 -188z m-540 -98 c58 -1 108 -3 113 -3 21 -2 3 -33 -28 -48 -65 -31
-213 3 -307 69 -48 34 -31 38 45 11 57 -21 94 -27 177 -29z m118 -116 c-8 -59
-227 -109 -340 -77 -51 14 -48 29 6 29 65 0 205 29 245 50 20 11 49 19 64 20
24 0 28 -4 25 -22z m493 -48 c14 -38 20 -38 48 1 l23 32 25 -31 c14 -19 29
-29 38 -25 18 6 20 -28 3 -45 -17 -17 -38 -15 -60 5 -17 15 -19 15 -36 0 -23
-21 -31 -21 -54 0 -15 14 -22 14 -42 4 -35 -19 -60 -10 -64 22 -3 25 -1 28 17
22 14 -4 27 1 43 18 31 34 47 33 59 -3z m194 -333 c0 -186 0 -189 -24 -208
-16 -13 -39 -19 -75 -19 -29 0 -61 -6 -71 -14 -17 -12 -23 -12 -47 0 -15 8
-50 14 -78 14 -37 0 -55 5 -70 20 -19 19 -20 31 -18 208 l3 187 140 5 c77 3
163 3 190 0 l50 -5 0 -188z"/>
<path d="M3790 5291 l0 -169 68 -6 c86 -8 95 -8 167 0 33 4 63 11 66 16 4 6 7
82 8 169 l2 159 -155 0 -156 0 0 -169z m220 129 c18 0 31 -39 20 -60 -9 -17
-8 -20 9 -20 23 0 45 -34 37 -57 -3 -8 -12 -13 -19 -10 -17 5 -36 -23 -37 -53
-1 -46 -12 -70 -32 -70 -15 0 -19 5 -15 20 3 10 -1 24 -9 31 -10 8 -14 8 -14
0 0 -6 1 -13 3 -14 5 -9 -27 -37 -42 -37 -14 0 -17 8 -15 45 1 24 6 54 9 66 6
19 4 21 -14 16 -31 -8 -49 28 -26 53 10 11 14 26 10 43 -4 14 -2 28 5 32 15 9
40 -13 40 -36 0 -11 5 -19 10 -19 6 0 10 10 10 22 0 27 29 60 48 53 7 -3 18
-5 22 -5z"/>
<path d="M3980 4811 l0 -169 68 -6 c79 -8 88 -8 167 0 33 3 63 11 67 17 4 6 7
82 7 169 l1 158 -155 0 -155 0 0 -169z m170 134 c7 -8 10 -21 7 -29 -10 -25 3
-25 30 0 38 35 57 28 61 -23 2 -31 -3 -51 -20 -75 -13 -18 -26 -34 -30 -36
-15 -7 -8 -39 13 -66 27 -34 19 -62 -12 -45 -17 8 -27 8 -46 -2 -18 -10 -29
-10 -42 -2 -9 6 -29 9 -44 6 -23 -4 -27 -2 -27 16 0 12 7 24 15 27 24 9 18 49
-15 101 -32 51 -38 94 -16 112 12 10 20 9 40 -4 14 -10 26 -21 26 -26 0 -5 5
-9 11 -9 6 0 8 9 4 20 -6 20 9 50 25 50 4 0 13 -7 20 -15z"/>
<path d="M4240 4254 c0 -74 4 -133 9 -130 38 24 139 234 124 259 -2 4 -33 7
-69 7 l-64 0 0 -136z"/>
<path d="M4416 4353 c12 -71 97 -223 124 -223 6 0 10 51 10 130 l0 130 -70 0
-71 0 7 -37z"/>
<path d="M4365 4228 c-15 -29 -36 -64 -46 -77 -11 -13 -19 -28 -19 -32 0 -13
64 -11 78 3 9 9 15 9 24 0 11 -11 88 -18 88 -8 0 3 -14 25 -30 50 -17 24 -37
61 -45 80 -9 20 -17 36 -19 36 -2 0 -16 -24 -31 -52z"/>
<path d="M5545 5769 c-92 -20 -172 -23 -211 -9 -38 15 -41 5 -11 -37 l27 -37
-21 -22 c-12 -13 -46 -35 -75 -51 -30 -15 -53 -32 -51 -38 3 -8 52 -28 105
-41 7 -2 12 -19 12 -40 0 -30 3 -35 18 -29 52 22 71 14 72 -28 0 -14 -4 -16
-18 -8 -13 7 -31 6 -55 -1 -43 -13 -48 -10 -51 34 -4 47 -4 46 -26 53 -14 5
-32 -3 -60 -25 -36 -29 -40 -36 -35 -64 9 -44 -24 -88 -49 -66 -28 22 -39 50
-27 64 15 18 6 35 -35 70 -30 25 -38 27 -59 18 -20 -10 -25 -19 -25 -51 l0
-39 -60 1 c-59 2 -61 3 -58 27 3 26 12 28 60 15 25 -6 27 -5 30 31 2 30 8 40
23 42 32 5 95 34 90 42 -3 4 -29 20 -60 35 -30 16 -62 36 -71 46 -15 17 -15
21 5 52 11 19 21 36 21 39 0 2 -40 2 -88 0 -58 -3 -115 1 -166 12 -123 25
-153 22 -190 -19 -19 -20 -42 -35 -55 -35 -64 0 -113 -67 -91 -124 11 -30 35
-43 53 -28 11 9 47 16 74 13 6 -1 19 -9 28 -18 12 -11 31 -16 59 -14 49 2 93
-12 118 -39 23 -24 13 -30 -37 -24 -24 4 -79 -1 -129 -11 l-88 -17 -30 22
c-32 24 -47 17 -48 -22 0 -52 73 -62 177 -23 88 34 115 24 45 -16 -58 -33 -64
-44 -26 -53 19 -5 37 1 72 24 46 31 75 34 128 13 21 -8 28 23 13 60 -22 52
-78 106 -148 143 -93 48 -105 58 -97 88 3 14 20 33 36 41 28 15 33 14 92 -16
33 -17 79 -32 100 -34 22 -2 42 -6 45 -9 8 -7 -42 -26 -70 -26 -52 -1 -50 -16
8 -71 71 -67 99 -125 91 -192 -3 -26 -14 -61 -26 -76 -27 -39 -26 -41 15 -41
43 0 44 -10 9 -75 l-25 -49 23 -18 c27 -20 42 -21 121 -8 42 6 68 18 93 39 19
17 46 34 60 37 35 9 101 -12 130 -41 18 -18 42 -26 99 -34 71 -10 78 -9 105
10 l28 21 -24 46 c-33 61 -32 86 1 78 40 -10 46 1 25 48 -23 54 -21 137 4 188
10 20 39 59 66 87 27 28 46 52 42 55 -4 2 -28 7 -54 10 -58 9 -73 26 -22 26
24 0 59 13 100 35 34 19 70 35 79 35 9 0 30 -14 47 -31 l31 -30 -24 -25 c-12
-13 -50 -37 -83 -53 -76 -36 -152 -114 -162 -165 -3 -20 -4 -39 -1 -42 3 -4
22 -1 41 6 40 13 94 1 116 -26 16 -18 93 -20 88 -1 -3 6 -23 22 -46 35 -73 41
-49 56 35 23 26 -10 67 -22 89 -25 35 -6 46 -4 69 17 23 19 27 29 21 51 l-7
27 -30 -22 c-27 -19 -38 -21 -87 -14 -32 5 -92 9 -135 9 -60 1 -77 4 -75 15 5
23 70 51 119 51 33 0 51 6 64 20 19 21 89 28 100 10 12 -20 36 -9 52 24 13 28
14 40 4 63 -14 34 -58 63 -94 63 -15 0 -38 13 -55 30 -26 26 -37 30 -79 29
-26 -1 -84 -10 -128 -20z m-535 -419 c13 -24 33 -26 50 -5 28 33 42 -45 15
-81 -14 -18 -15 -18 -46 -1 -29 16 -34 16 -41 3 -14 -25 -45 -19 -67 13 -22
31 -28 61 -11 61 6 0 10 -4 10 -10 0 -21 30 -9 36 15 8 31 39 33 54 5z"/>
<path d="M5416 4884 c-3 -9 -6 -138 -6 -288 0 -330 11 -306 -148 -319 -124 -9
-121 -9 -269 1 -70 4 -117 12 -125 20 -10 10 -14 84 -18 300 -5 270 -6 287
-23 287 -16 0 -19 -9 -20 -62 -2 -48 -7 -67 -24 -85 -27 -29 -33 -90 -11 -115
42 -49 47 -85 19 -141 -16 -32 -18 -46 -10 -87 5 -28 11 -57 12 -66 2 -9 19
-30 39 -48 33 -29 42 -32 94 -30 51 2 59 0 80 -24 29 -33 35 -33 63 -1 21 24
24 25 41 9 15 -14 21 -14 39 -4 17 12 23 10 44 -9 30 -28 33 -28 64 8 22 27
31 30 79 30 43 0 62 6 92 28 36 25 40 32 49 97 8 55 7 76 -3 97 -20 40 -17
108 6 138 25 32 25 85 0 117 -14 18 -20 41 -20 79 0 61 -7 84 -25 84 -7 0 -16
-7 -19 -16z"/>
<path d="M5512 4888 c-7 -7 -12 -33 -12 -60 0 -51 15 -68 64 -68 49 0 56 8 56
70 0 44 -4 59 -16 64 -26 10 -79 7 -92 -6z"/>
<path d="M4643 4874 c-12 -32 -8 -105 6 -113 13 -8 65 -6 99 5 19 6 16 110 -4
118 -33 13 -94 6 -101 -10z"/>
<path d="M4880 4613 c0 -148 4 -274 8 -280 7 -12 156 -26 247 -25 96 1 226 16
235 27 7 8 9 107 8 276 l-3 264 -247 3 -248 2 0 -267z m270 187 c0 -54 16 -64
55 -34 40 30 43 30 76 -2 31 -29 28 -54 -5 -54 -24 0 -53 -40 -42 -58 3 -5 21
-13 41 -16 36 -7 65 -37 65 -68 0 -24 -16 -23 -23 2 -3 12 -14 20 -27 20 -17
0 -20 -4 -14 -17 4 -10 8 -34 9 -53 2 -39 11 -74 28 -108 10 -21 8 -26 -13
-43 -20 -16 -34 -19 -75 -13 -27 3 -97 9 -153 12 -93 6 -106 10 -123 31 -29
36 -22 82 20 121 31 29 41 48 35 64 -9 24 -21 19 -33 -14 -14 -41 -31 -38 -31
6 0 46 16 74 42 74 23 0 58 26 58 43 0 6 -6 18 -14 26 -7 9 -16 30 -19 47 -5
29 -4 31 19 26 20 -4 26 1 35 28 24 66 89 52 89 -20z"/>
<path d="M5091 4543 c-29 -35 -40 -77 -23 -86 4 -2 20 -7 36 -11 28 -7 28 -6
23 23 -4 17 -2 31 3 31 20 0 60 -24 60 -37 0 -21 38 -53 55 -47 8 4 15 13 15
21 0 20 -108 143 -125 143 -8 0 -27 -17 -44 -37z"/>
<path d="M3918 4482 c-114 -3 -118 -3 -119 -25 -1 -22 -1 -286 0 -299 1 -5 84
-16 141 -18 28 -1 125 16 138 23 19 12 17 317 -2 317 -8 0 -20 1 -28 3 -7 1
-66 1 -130 -1z m5 -44 l16 -23 19 24 c13 15 25 22 36 18 18 -7 21 -23 6 -32
-5 -3 -10 -12 -10 -20 0 -10 9 -12 35 -8 34 6 35 5 35 -29 0 -60 -12 -128 -23
-128 -6 0 -19 8 -29 17 -18 16 -19 15 -34 -5 -18 -27 -31 -28 -56 -5 -18 16
-21 16 -49 1 -15 -9 -30 -14 -33 -10 -2 4 -7 40 -11 79 -6 64 -5 74 10 80 10
3 26 1 36 -5 25 -16 36 4 14 28 -18 20 -13 40 9 40 8 0 21 -10 29 -22z"/>
<path d="M3545 4298 c-20 -12 -29 -24 -27 -38 2 -13 -2 -20 -12 -20 -24 0 -19
-27 7 -45 49 -32 154 38 145 98 -2 18 -9 22 -43 23 -22 0 -54 -8 -70 -18z"/>
<path d="M3546 4112 c-3 -5 -38 -20 -78 -32 -40 -13 -77 -26 -82 -31 -23 -20
135 -70 200 -62 66 7 75 12 64 32 -8 15 -17 18 -49 14 -21 -3 -47 -1 -57 5
-17 10 -16 12 14 22 17 7 32 15 32 19 0 14 -38 42 -44 33z"/>
<path d="M3691 4081 l-23 -18 47 -69 c27 -38 58 -91 71 -119 37 -84 87 -118
122 -83 24 24 12 58 -43 120 -31 35 -74 91 -97 126 -23 34 -44 62 -47 62 -3 0
-17 -9 -30 -19z"/>
<path d="M4800 4020 c0 -13 -13 -26 -38 -39 -21 -11 -44 -27 -52 -36 -8 -9
-31 -25 -52 -36 -41 -21 -44 -29 -52 -128 l-4 -64 58 6 c32 4 60 3 62 -2 6
-16 88 -101 100 -104 7 -1 15 13 18 32 4 28 11 35 40 45 32 10 35 14 32 48 -3
27 2 41 19 57 29 26 49 27 77 1 33 -31 30 -95 -5 -132 -21 -22 -36 -28 -69
-28 -40 0 -43 -2 -58 -40 -20 -51 -20 -54 2 -45 41 18 127 33 140 26 11 -6 7
-14 -19 -35 -28 -22 -31 -28 -19 -36 8 -5 25 -10 37 -10 14 0 30 -11 40 -27
10 -16 30 -41 45 -57 31 -35 40 -30 89 40 21 31 37 43 64 48 42 8 43 14 8 42
-21 17 -25 26 -17 34 8 8 29 7 79 -5 37 -8 69 -14 71 -12 2 2 -3 22 -12 44
-16 40 -17 41 -55 36 -33 -5 -42 -1 -69 25 -39 39 -41 91 -5 127 28 29 42 31
74 9 18 -13 22 -24 19 -56 -3 -38 -1 -41 32 -52 26 -8 36 -18 38 -36 7 -49 21
-46 80 19 l57 63 38 -10 c21 -6 44 -9 51 -6 17 7 12 139 -6 161 -13 16 -62 50
-127 89 -19 12 -39 31 -45 43 -12 27 -16 26 -74 -4 -69 -36 -142 -118 -142
-158 0 -23 -63 -127 -96 -157 -19 -19 -26 -21 -39 -10 -27 22 -115 161 -109
171 12 20 -68 119 -96 119 -10 0 -34 14 -55 30 -44 35 -55 37 -55 10z"/>
<path d="M5063 4023 c-19 -7 -15 -38 7 -58 26 -23 25 -29 -7 -71 -22 -29 -24
-37 -12 -45 22 -14 32 -11 56 19 l23 27 23 -27 c25 -31 37 -34 55 -16 9 9 6
20 -14 46 l-26 34 21 29 c25 33 26 43 7 58 -11 10 -20 6 -41 -16 l-26 -28 -22
28 c-24 28 -24 29 -44 20z"/>
<path d="M5665 3700 c-11 -4 -41 -5 -67 -2 -44 4 -48 3 -48 -17 0 -39 17 -57
81 -86 84 -37 167 -87 243 -144 85 -65 139 -85 216 -79 49 3 65 9 90 33 17 16
30 34 30 42 0 7 9 17 19 23 30 15 34 45 16 100 -18 55 -51 84 -61 53 -3 -10
-14 -37 -25 -60 -11 -23 -19 -48 -18 -55 5 -43 -17 -52 -41 -15 -8 12 -15 24
-15 27 -5 34 -20 60 -50 83 -32 25 -36 26 -41 10 -3 -10 -10 -30 -16 -45 -7
-18 -6 -33 2 -47 18 -34 3 -43 -38 -22 -37 19 -157 118 -219 179 -17 18 -33
32 -35 31 -2 0 -12 -4 -23 -9z"/>
<path d="M3963 3677 c-39 -26 -41 -41 -8 -63 20 -13 53 -58 118 -162 6 -9 3
-15 -11 -19 -11 -2 -24 -15 -30 -28 -16 -34 6 -59 47 -53 l31 5 -20 -22 c-25
-27 -26 -51 0 -65 14 -8 26 -8 40 0 24 13 26 3 4 -21 -40 -45 29 -68 80 -28
15 12 32 32 37 46 7 18 15 23 36 21 25 -3 28 0 34 42 4 25 12 56 17 70 26 64
136 140 268 184 82 27 104 46 104 91 0 26 -10 27 -67 10 -6 -2 -24 0 -40 4
-25 7 -35 1 -92 -51 -70 -64 -148 -112 -197 -123 -23 -4 -49 1 -94 20 -40 17
-72 24 -87 20 -30 -7 -71 35 -93 97 -18 50 -33 55 -77 25z"/>
<path d="M5580 3532 c0 -43 -37 -72 -92 -74 -43 0 -74 10 -125 42 -38 24 -40
0 -3 -31 50 -42 101 -64 215 -95 92 -24 144 -46 210 -90 20 -13 25 -14 25 -3
0 27 -39 77 -84 109 -35 25 -49 44 -57 73 -10 39 -57 97 -78 97 -6 0 -11 -13
-11 -28z"/>
<path d="M4631 3524 c-12 -15 -26 -45 -33 -67 -9 -28 -25 -49 -59 -75 -26 -19
-56 -50 -65 -68 -19 -34 -14 -55 8 -36 33 27 121 65 203 89 103 29 165 58 215
101 49 42 32 49 -32 13 -70 -40 -128 -42 -163 -6 -14 13 -25 36 -25 50 0 33
-23 32 -49 -1z"/>
<path d="M4936 3462 c-47 -50 -176 -108 -301 -137 -37 -8 -115 -53 -115 -65 0
-6 15 -10 34 -10 48 0 65 -8 82 -41 11 -23 21 -29 47 -29 32 0 32 0 29 43 -4
52 -4 53 128 122 79 42 100 49 100 36 0 -26 -50 -96 -81 -115 -27 -16 -29 -16
-46 4 -10 11 -22 20 -27 20 -18 0 -35 -36 -36 -73 0 -21 -6 -50 -14 -65 -20
-38 -30 -98 -18 -106 5 -3 26 21 46 53 20 32 72 91 115 130 87 79 109 119 114
206 3 61 -15 69 -57 27z"/>
<path d="M5268 3485 c-10 -10 3 -109 18 -141 15 -30 65 -84 151 -159 24 -20
57 -62 75 -94 l33 -56 3 33 c2 19 -5 51 -17 76 -12 23 -21 56 -21 74 0 32 -18
82 -30 82 -4 0 -15 -9 -25 -20 -10 -11 -26 -20 -35 -20 -18 0 -71 52 -89 87
-27 52 -13 52 92 1 134 -66 136 -68 129 -123 -4 -43 -3 -45 21 -45 18 0 35 12
57 40 27 35 37 40 72 40 89 0 6 54 -147 95 -113 30 -162 53 -222 101 -40 33
-54 39 -65 29z"/>
<path d="M5026 3419 c-22 -69 -30 -88 -56 -129 -17 -26 -57 -68 -90 -94 -60
-46 -95 -90 -106 -134 -9 -32 0 -36 29 -17 20 13 30 14 46 6 27 -15 57 -14 91
4 28 15 43 55 20 55 -16 0 -12 58 6 93 21 42 63 97 73 97 5 0 14 -21 20 -46 7
-26 21 -64 32 -85 36 -71 71 -45 108 79 9 29 20 53 25 54 6 0 27 -28 48 -63
39 -65 48 -114 26 -138 -11 -10 -7 -17 15 -37 32 -27 44 -29 99 -12 29 9 41 9
50 0 7 -7 18 -12 25 -12 32 0 -22 79 -117 172 -88 87 -101 104 -118 158 l-18
59 -43 -39 c-24 -22 -51 -40 -59 -40 -9 0 -35 19 -59 42 -30 29 -44 37 -47 27z"/>
<path d="M5666 3174 c-11 -28 -6 -64 10 -90 15 -23 15 -28 0 -67 -21 -56 -21
-57 17 -57 79 0 150 71 145 145 -3 39 -4 40 -38 37 -25 -2 -47 4 -73 22 -44
30 -53 32 -61 10z"/>
<path d="M4540 3154 c-25 -19 -45 -24 -75 -22 l-40 3 2 -49 c3 -80 61 -134
146 -136 41 0 43 3 22 40 -19 33 -19 62 2 104 13 29 14 40 5 61 -14 30 -17 30
-62 -1z"/>
<path d="M5097 3053 c-3 -10 -8 -36 -12 -58 -4 -22 -16 -57 -28 -78 l-21 -37
44 -45 c24 -25 49 -45 55 -45 14 0 85 85 85 101 0 7 -7 20 -15 29 -9 10 -22
46 -29 81 -12 61 -14 64 -43 67 -23 2 -33 -2 -36 -15z"/>
<path d="M1639 2604 c-63 -19 -133 -83 -156 -142 -27 -69 -23 -163 11 -233 26
-56 74 -106 253 -266 124 -111 159 -201 114 -298 -39 -86 -104 -125 -207 -125
-119 0 -190 54 -210 160 -8 44 -8 44 -15 15 -3 -16 -7 -65 -8 -108 l-1 -78 35
-15 c91 -38 260 -35 347 6 54 25 113 81 141 134 18 34 22 57 22 141 0 86 -3
106 -23 144 -32 58 -92 121 -216 225 -170 143 -204 209 -157 313 30 64 85 96
169 96 112 1 192 -50 192 -122 0 -11 4 -22 9 -25 10 -7 27 161 17 171 -23 24
-247 29 -317 7z"/>
<path d="M8808 2565 c-2 -3 -107 -5 -232 -6 -126 -1 -240 -5 -255 -9 -26 -8
-25 -8 7 -9 78 -2 82 -26 83 -541 1 -368 -3 -414 -36 -426 -8 -4 -15 -9 -15
-13 0 -3 107 -7 238 -9 181 -2 241 0 255 10 20 15 30 54 21 81 -5 17 -8 17
-34 -8 -33 -32 -107 -44 -208 -34 -106 10 -106 11 -110 251 -3 159 -1 203 10
209 19 13 180 11 217 -2 17 -6 36 -20 42 -31 16 -31 29 -5 29 61 0 47 -2 52
-17 46 -62 -26 -270 -35 -278 -12 -10 28 -13 377 -4 383 6 3 58 6 115 5 114
-1 153 -12 169 -49 5 -12 13 -22 16 -22 6 0 19 75 19 111 0 17 -20 26 -32 14z"/>
<path d="M5762 2547 c-11 -14 -139 -361 -268 -726 -60 -172 -87 -225 -126
-254 -26 -20 -28 -20 -75 -2 -53 20 -143 100 -204 180 -21 28 -72 93 -113 146
l-76 97 38 42 c83 95 122 179 122 264 0 56 -39 136 -84 173 -67 55 -113 63
-357 63 -139 0 -219 -4 -219 -10 0 -5 10 -10 23 -10 44 0 66 -12 76 -42 16
-45 14 -822 -2 -868 -8 -24 -23 -40 -46 -51 -19 -9 -30 -18 -25 -20 5 -2 79
-2 164 1 122 4 146 7 113 14 -75 15 -78 23 -78 230 l0 181 84 0 c46 0 89 -4
96 -10 7 -5 61 -75 121 -155 59 -80 126 -162 149 -183 74 -70 79 -72 285 -73
102 -1 192 3 200 7 12 7 10 8 -7 9 -36 0 -54 27 -47 68 8 48 72 249 90 285
l15 27 142 0 c78 0 147 -4 152 -8 11 -7 23 -35 78 -177 50 -129 59 -162 52
-184 -6 -19 0 -20 104 -23 125 -3 180 4 120 15 -78 15 -105 57 -204 307 -31
80 -104 263 -161 407 -57 144 -104 267 -104 272 0 16 -17 22 -28 8z m-936 -82
c58 -29 92 -75 109 -149 36 -156 -30 -314 -133 -317 -65 -3 -136 3 -159 12
l-23 9 0 229 c0 174 3 231 13 234 6 3 41 6 78 6 50 1 76 -5 115 -24z m944
-147 c6 -18 27 -76 45 -128 18 -52 43 -119 54 -148 12 -30 19 -58 16 -63 -7
-11 -252 -12 -258 -1 -7 10 113 372 123 372 4 0 13 -15 20 -32z"/>
<path d="M6505 2550 c-7 -11 -8 -93 -5 -570 0 -173 -2 -335 -6 -359 -6 -39
-11 -45 -48 -62 l-41 -19 150 1 c139 0 162 7 85 23 -44 9 -52 38 -61 216 -16
353 -20 560 -11 560 5 0 31 -24 57 -52 283 -308 714 -748 733 -748 12 0 14 91
12 648 -1 304 1 319 46 338 19 8 34 16 34 19 0 3 -62 5 -137 4 -137 -1 -138
-1 -90 -16 36 -11 51 -21 58 -41 18 -45 37 -752 21 -752 -4 0 -66 62 -137 138
-70 75 -167 178 -214 227 -47 50 -124 131 -171 181 -47 49 -124 131 -172 182
-48 51 -89 92 -92 92 -3 0 -8 -5 -11 -10z"/>
<path d="M7835 2551 c-76 -4 -102 -8 -83 -14 38 -10 57 -44 62 -108 10 -122 6
-772 -4 -811 -9 -30 -19 -43 -43 -53 -29 -13 -20 -14 111 -15 93 0 141 4 137
10 -3 6 -14 10 -24 10 -10 0 -26 9 -36 20 -23 25 -32 191 -34 609 -1 306 1
318 59 338 19 7 33 13 30 13 -17 5 -79 6 -175 1z"/>
<path d="M2625 2530 c-51 -10 -149 -53 -198 -87 -36 -25 -116 -120 -145 -171
-49 -89 -76 -225 -62 -321 18 -128 58 -216 136 -300 94 -102 207 -146 369
-145 312 2 526 221 527 539 1 155 -44 268 -144 361 -70 64 -133 98 -220 119
-67 16 -197 18 -263 5z m256 -67 c86 -41 140 -90 182 -166 47 -86 67 -173 67
-293 0 -168 -40 -275 -135 -362 -44 -41 -72 -56 -127 -73 -181 -55 -360 19
-461 192 -90 154 -87 442 7 578 101 145 307 200 467 124z"/>
<path d="M3464 2519 c-3 -5 4 -9 16 -9 41 0 79 -28 85 -63 4 -19 5 -218 3
-443 -3 -444 -4 -450 -59 -461 -72 -14 -13 -20 179 -18 184 2 213 5 262 24
183 70 244 300 117 438 -23 25 -66 59 -94 75 -29 17 -53 32 -53 35 0 3 16 24
36 45 51 57 74 112 74 183 0 83 -33 135 -110 173 -54 26 -59 27 -253 28 -108
1 -200 -2 -203 -7z m353 -40 c97 -36 145 -193 94 -306 -29 -62 -60 -78 -149
-76 -41 0 -78 5 -84 11 -5 5 -8 83 -6 186 2 144 6 179 18 186 20 13 92 12 127
-1z m78 -464 c66 -44 104 -103 122 -189 24 -116 -8 -200 -91 -241 -55 -28
-115 -32 -177 -13 -73 21 -74 25 -77 260 -3 167 -1 213 10 220 7 5 45 7 85 4
62 -4 80 -9 128 -41z"/>
</g>
</svg>
